<svg xmlns="http://www.w3.org/2000/svg" width="728.933" height="148.343" viewBox="0 0 728.933 148.343">
  <g id="Group_166" data-name="Group 166" transform="translate(-689.323 -554.885)">
    <path id="Path_1705" data-name="Path 1705" d="M547.913,147.559h-5.38a1.349,1.349,0,0,1-1.3-1.392v-2.229a1.35,1.35,0,0,1,1.3-1.392h5.38a1.35,1.35,0,0,1,1.3,1.392v2.229a1.348,1.348,0,0,1-1.3,1.392" transform="translate(772.034 537.852)" fill="#20b3af"/>
    <path id="Path_1706" data-name="Path 1706" d="M541.312,147.559h-5.38a1.349,1.349,0,0,1-1.3-1.392v-2.229a1.35,1.35,0,0,1,1.3-1.392h5.38a1.35,1.35,0,0,1,1.3,1.392v2.229a1.348,1.348,0,0,1-1.3,1.392" transform="translate(767.528 537.852)" fill="#20b3af"/>
    <path id="Path_1707" data-name="Path 1707" d="M534.557,147.559h-5.38a1.349,1.349,0,0,1-1.3-1.392v-2.229a1.35,1.35,0,0,1,1.3-1.392h5.38a1.35,1.35,0,0,1,1.3,1.392v2.229a1.348,1.348,0,0,1-1.3,1.392" transform="translate(762.916 537.852)" fill="#20b3af"/>
    <path id="Path_1708" data-name="Path 1708" d="M527.8,147.559h-5.38a1.349,1.349,0,0,1-1.3-1.392v-2.229a1.35,1.35,0,0,1,1.3-1.392h5.38a1.35,1.35,0,0,1,1.3,1.392v2.229a1.348,1.348,0,0,1-1.3,1.392" transform="translate(758.304 537.852)" fill="#20b3af"/>
    <path id="Path_1709" data-name="Path 1709" d="M521.2,147.559h-5.38a1.349,1.349,0,0,1-1.3-1.392v-2.229a1.35,1.35,0,0,1,1.3-1.392h5.38a1.35,1.35,0,0,1,1.3,1.392v2.229a1.349,1.349,0,0,1-1.3,1.392" transform="translate(753.798 537.852)" fill="#20b3af"/>
    <path id="Path_1710" data-name="Path 1710" d="M494.54,147.559h-5.38a1.349,1.349,0,0,1-1.3-1.392v-2.229a1.35,1.35,0,0,1,1.3-1.392h5.38a1.35,1.35,0,0,1,1.3,1.392v2.229a1.348,1.348,0,0,1-1.3,1.392" transform="translate(735.597 537.852)" fill="#20b3af"/>
    <path id="Path_1711" data-name="Path 1711" d="M507.9,147.559h-5.38a1.349,1.349,0,0,1-1.3-1.392v-2.229a1.35,1.35,0,0,1,1.3-1.392h5.38a1.35,1.35,0,0,1,1.3,1.392v2.229a1.348,1.348,0,0,1-1.3,1.392" transform="translate(744.715 537.852)" fill="#20b3af"/>
    <path id="Path_1712" data-name="Path 1712" d="M501.295,147.559h-5.38a1.349,1.349,0,0,1-1.3-1.392v-2.229a1.35,1.35,0,0,1,1.3-1.392h5.38a1.35,1.35,0,0,1,1.3,1.392v2.229a1.348,1.348,0,0,1-1.3,1.392" transform="translate(740.208 537.852)" fill="#20b3af"/>
    <path id="Path_1713" data-name="Path 1713" d="M514.445,147.559h-5.38a1.349,1.349,0,0,1-1.3-1.392v-2.229a1.35,1.35,0,0,1,1.3-1.392h5.38a1.351,1.351,0,0,1,1.3,1.392v2.229a1.35,1.35,0,0,1-1.3,1.392" transform="translate(749.185 537.852)" fill="#20b3af"/>
    <path id="Path_1714" data-name="Path 1714" d="M566.245,147.424h-5.827a1.294,1.294,0,0,1-1.25-1.336v-2.339a1.3,1.3,0,0,1,1.25-1.336h5.827a1.3,1.3,0,0,1,1.249,1.336v2.339a1.294,1.294,0,0,1-1.249,1.336" transform="translate(784.28 537.746)" fill="#20b3af"/>
    <path id="Path_1715" data-name="Path 1715" d="M567.254,142.541c.468.065,1.269.189,2.287.411a14.856,14.856,0,0,1,2.408.769.454.454,0,0,1,.221.612l-1.424,3.05a.4.4,0,0,1-.473.229,11.993,11.993,0,0,0-1.647-.335,14.128,14.128,0,0,0-1.474-.088.427.427,0,0,1-.407-.448l.047-3.762a.424.424,0,0,1,.463-.438" transform="translate(789.452 537.845)" fill="#20b3af"/>
    <path id="Path_1716" data-name="Path 1716" d="M571.858,144.114a.43.43,0,0,1,.56-.2c.639.3,1.986.918,2.766,1.3.747.369,1.836.972,2.4,1.289a.494.494,0,0,1,.2.623l-.858,2.022a.439.439,0,0,1-.579.245c-.634-.285-1.853-.821-2.322-1.007-1.409-.558-2.593-.926-3.256-1.113a.488.488,0,0,1-.268-.706Z" transform="translate(791.974 538.918)" fill="#20b3af"/>
    <path id="Path_1717" data-name="Path 1717" d="M552.962,141.239a1.107,1.107,0,0,1,1.067,1.142v4.948a1.069,1.069,0,1,1-2.134,0v-4.948a1.106,1.106,0,0,1,1.067-1.142" transform="translate(779.314 536.806)" fill="#20b3af"/>
    <path id="Path_1718" data-name="Path 1718" d="M487.283,73.963a3.39,3.39,0,0,1,2.415.443,2.612,2.612,0,0,1,1.281,2.971,6.536,6.536,0,0,1-1.131,2.105,28.424,28.424,0,0,1-3.027,3.052,51.042,51.042,0,0,1-7.17,4.961c-1.09.652-2.149,1.365-3.221,2.051a13.448,13.448,0,0,1-2.019,1.062A13.434,13.434,0,0,0,471.72,92.6c.077.236.109.466.163.472a2.867,2.867,0,0,1,2.3,1.621,21.63,21.63,0,0,0,1.612,2.229c-.5.3-.9.744-1.285.733a12.378,12.378,0,0,0-3.421.845,5.45,5.45,0,0,1-2.574.31,5.492,5.492,0,0,1,.082-.839,7.471,7.471,0,0,1,.367-.9c-.788.038-1.4.072-2.019.1a1.067,1.067,0,0,1-1.04-.592c.056-.032.108-.1.165-.1s.1.063.146.1l-.3-.063c-.629.448-1.255.9-1.886,1.349a5.918,5.918,0,0,0-1.743,1.448c1.036.407,1.991-.16,3.017.16.7.958,1.472,2,2.226,3.027a1.38,1.38,0,0,1-1.346,1.241A21.458,21.458,0,0,0,462.8,104.8a2.358,2.358,0,0,1-2.465-.085c.007-.4.015-.821.022-1.228-.123-.1-.215-.247-.33-.27-.48-.092-.964-.149-1.447-.221a4.511,4.511,0,0,0-2.975.625c-2.773,1.545-5.619,2.946-8.5,4.435-.066-.69.377-.762.671-.949,2.571-1.642,5.151-3.268,7.715-4.925a22.043,22.043,0,0,0,1.876-1.419,7.632,7.632,0,0,0,.759-.99c-.71.3-1.023.411-1.319.556a50.914,50.914,0,0,1-11.7,4.089c-3.552.769-7.113,1.5-10.668,2.242a3.965,3.965,0,0,1-1.237.2c-1.671-.229-2.923.7-4.222,1.588-.491.333-.937.935-1.782.668.582-.618,1.11-1.176,1.629-1.729-1.405-1.864-1.405-1.864-.986-3.772-4-3.2-8.144-6.326-12.289-9.616a6.664,6.664,0,0,1,2.529-1.768,2.161,2.161,0,0,1,1.4.045c1.949.58,3.87,1.255,5.819,1.822,3.964,1.16,7.947,2.251,11.912,3.412a3.561,3.561,0,0,0,2.98-.42c3.128-1.8,6.31-3.493,9.467-5.238.543-.3,1.06-.652,1.546-.953-.02-.621-.407-.664-.725-.758-1.41-.425-2.822-.828-4.232-1.25-.463-.137-.919-.3-1.408-.457a3.324,3.324,0,0,1,3.187-1.653c1.672,0,3.343.083,5.016.1a21,21,0,0,0,4.994-.085,19.706,19.706,0,0,0,4.33-2.172c.623-.33,1.223-.711,1.849-1.039a24.891,24.891,0,0,0,5.728-4.043,34.26,34.26,0,0,1,9.231-6.052,5.7,5.7,0,0,1,3.65-.556c.747.146,1.486.326,2.23.49l.054-.067c-.688.077-1.381.124-2.065.239-.656.112-1.452.014-1.743.9-.172.52.49.978,1.747,1.127a21.777,21.777,0,0,0,5.99-.277c.076-.013.125-.211.222-.389L487.31,73.9Zm-9.351,13.046c-.018-.1-.035-.191-.052-.286.057-.009.115-.018.173-.029-.032.079-.066.158-.1.225l-.286-.09.266.18m9.031-3.058c.018-.094.035-.189.054-.285.035.041.072.081.108.121a1,1,0,0,1-.148.092c-.057.04-.113.1-.172.108s-.1-.059-.153-.1c.1.02.209.041.311.059m-60.474,26.805c1.122,1.008,2.038,1.237,3.078.542.372-.252.811-.384,1.2-.6,4.023-2.184,8.052-4.354,12.06-6.569Q460.086,94.6,476.9,84.22a32.863,32.863,0,0,0,2.918-2.136c.178-.14.212-.49.325-.778-.276-.045-.449-.137-.557-.079-17.35,8.874-34,19.192-51.206,28.373-.581.312-1.131.688-1.895,1.156" transform="translate(686.236 482.042)" fill="#868686"/>
    <path id="Path_1719" data-name="Path 1719" d="M642.731,143.158H451.269v-5.4H642.731a900.836,900.836,0,0,0,96.745-6.409c47.592-5.82,111.216-18.252,144.055-44.418l3.016,4.334c-64.392,51.305-236.519,51.894-243.816,51.894" transform="translate(239.375 493.321)" fill="#868686"/>
    <path id="Path_1720" data-name="Path 1720" d="M967.8,168.928V161.51h.91v-.918h.858v2.773h.708v2.791h13.473a3.1,3.1,0,0,0,6.164,0h.5l.521,1.3h5.39l.86-1.3h.69a3.1,3.1,0,0,0,6.164,0h103.476a3.1,3.1,0,0,0,6.164,0h.591l.522,1.477,5.036-.178,2.357-4.089h.2a3.481,3.481,0,0,0-.792,2.217,3.139,3.139,0,1,0,6.265,0,3.465,3.465,0,0,0-.774-2.217h.37l1.23,2.791,21.71.378s-1.213,0-1.045-1.115,1.381-1.116,2.61-1.316c1.213-.178,2.78-2.215,2.78-2.215s.69-1.675.168-2.609a32.467,32.467,0,0,0-7.646-7.619c-3.823-2.591-13.727-8.715-15.984-9.832a110.943,110.943,0,0,0-11.451-4.646c-2.729-.63-8.859-.738-11.993-.738a62.757,62.757,0,0,0-11.469,1.855c-2.071.56-8.151.738-9.718.918-1.565.2-33.531.2-33.531.2l-2.257-1.855-34.391-.2-1.9,1.495H982.255l-1.735-.738H969.406v3.708h-1.045v-1.116H967.8v-2.447H449.948v32h728.933v-1.333Zm173.74-16.709c-.86,0-1.567-.326-1.567-.74s.707-.738,1.567-.738,1.567.324,1.567.738-.708.74-1.567.74m4.075.556a.945.945,0,1,1-1.129.938,1.045,1.045,0,0,1,1.129-.938m-14.182-10.5c1.7.846,7.766,4.54,12.279,7.437a28.162,28.162,0,0,1-6.889-1.116c-3.655-1.116-11.3-4.088-12.512-5.024-1.213-.918-3.991-4.266-4.345-5.942,1.733.2,9.211,3.529,11.468,4.646m.069,10.156-1.869,3.781s-3.655-1.223-5.627-1.889a33.229,33.229,0,0,0-7.815-1.118c-2.509-.108-13.337,0-13.337,0v-7.473s8.958.2,11.25.342a27.417,27.417,0,0,1,10.205,2.557c3.335,1.567,7.192,3.8,7.192,3.8m-88.1-14.314h6.248v1.1h-6.248Zm-8.859,0h6.248v1.1h-6.248Zm-7.831,0h6.265v1.1h-6.265Zm-8.859,0h6.265v1.1h-6.265Zm-47.408,1.745h132c.067,0,8.22-.378,12.009-.178a24.664,24.664,0,0,1,7.173,1.529l.54.7a30.316,30.316,0,0,0-7.747-1.657c-3.756-.18-11.875.182-11.976.182h-132ZM1096.1,144.2V156.54a1.083,1.083,0,0,1-1.045,1.1h-4.547a1.069,1.069,0,0,1-1.026-1.1V144.2a1.059,1.059,0,0,1,1.026-1.1h4.547a1.072,1.072,0,0,1,1.045,1.1m-8.185.27h-.858v-1.224h.858Zm-4.4,8.679H981.732v-6.879h101.791Zm-122.387,1.134,128.063-.108v3.079a1.167,1.167,0,0,0,1.129,1.19h4.934a1.164,1.164,0,0,0,1.112-1.19v-3.079h3.705s17.162-.16,20.4.234a32.943,32.943,0,0,1,11.282,3.944c3.455,2.017,9.787,6.41,9.787,6.41l-2.744-.016s-5.053-2.991-7.278-4.107a26.272,26.272,0,0,0-9.043-2.089l-161.344.126Z" transform="translate(239.375 532.967)" fill="#20b3af"/>
    <path id="Path_1721" data-name="Path 1721" d="M984.2,129.032l-2.861,2.467-.32.27-5.166-12.389h-7.5l-2.507-8.589H947.471v9.958h-5.015V99.789h-5.822v21.644h-14.2v6.176H907.944l.017,4.862H904.8l-1.833,3.8,73.768-.791-87.5.953.606,2.413H451.772v16.512h542.58l23.724-26.326Zm8.264,4.61a.51.51,0,0,1-.473-.54.488.488,0,0,1,.473-.5.5.5,0,0,1,.469.5.521.521,0,0,1-.469.54" transform="translate(238.872 503.617)" fill="#193b6a"/>
    <path id="Path_1722" data-name="Path 1722" d="M472.372,122.692a1.77,1.77,0,1,0,1.649,1.765,1.709,1.709,0,0,0-1.649-1.765" transform="translate(723.899 521.956)" fill="#fff"/>
    <path id="Path_1723" data-name="Path 1723" d="M459.344,122.692a1.77,1.77,0,1,0,1.649,1.765,1.711,1.711,0,0,0-1.649-1.765" transform="translate(715.003 521.956)" fill="#fff"/>
    <path id="Path_1724" data-name="Path 1724" d="M465.706,122.692a1.77,1.77,0,1,0,1.649,1.765,1.711,1.711,0,0,0-1.649-1.765" transform="translate(719.346 521.956)" fill="#fff"/>
    <path id="Path_1725" data-name="Path 1725" d="M452.675,122.692a1.77,1.77,0,1,0,1.651,1.765,1.709,1.709,0,0,0-1.651-1.765" transform="translate(710.452 521.956)" fill="#fff"/>
    <path id="Path_1726" data-name="Path 1726" d="M469.13,122.692a1.77,1.77,0,1,0,1.649,1.765,1.709,1.709,0,0,0-1.649-1.765" transform="translate(721.685 521.956)" fill="#fff"/>
    <path id="Path_1727" data-name="Path 1727" d="M456.1,122.692a1.77,1.77,0,1,0,1.649,1.765,1.709,1.709,0,0,0-1.649-1.765" transform="translate(712.79 521.956)" fill="#fff"/>
    <path id="Path_1728" data-name="Path 1728" d="M462.464,122.692a1.77,1.77,0,1,0,1.647,1.765,1.709,1.709,0,0,0-1.647-1.765" transform="translate(717.133 521.956)" fill="#fff"/>
    <path id="Path_1729" data-name="Path 1729" d="M449.433,122.692a1.77,1.77,0,1,0,1.649,1.765,1.709,1.709,0,0,0-1.649-1.765" transform="translate(708.238 521.956)" fill="#fff"/>
    <path id="Path_1730" data-name="Path 1730" d="M491.244,122.185l.438.814.439.812h-.658a2.655,2.655,0,0,0,2.2,2.687v-6.45a1.154,1.154,0,0,1-.746-1.1,1.087,1.087,0,1,1,2.169,0,1.16,1.16,0,0,1-.739,1.1v6.446a2.657,2.657,0,0,0,2.179-2.683h-.574l.439-.812.439-.814.439.814.438.812h-.572a3.29,3.29,0,0,1-2.788,3.34v.787l.5,0-.432.789-.434.789-.422-.794-.424-.8.529,0v-.78a3.286,3.286,0,0,1-2.809-3.342h-.486L490.8,123Z" transform="translate(737.31 518.027)" fill="#fff"/>
    <path id="Path_1731" data-name="Path 1731" d="M477.3,109h-4.4v2.06h4.955Z" transform="translate(725.385 510.994)" fill="#fff"/>
    <rect id="Rectangle_446" data-name="Rectangle 446" width="1.466" height="2.06" transform="translate(1194.603 619.992)" fill="#fff"/>
    <rect id="Rectangle_447" data-name="Rectangle 447" width="1.467" height="2.06" transform="translate(1191.746 619.992)" fill="#fff"/>
    <rect id="Rectangle_448" data-name="Rectangle 448" width="1.636" height="2.298" transform="translate(1207.836 627.395)" fill="#fff"/>
    <rect id="Rectangle_449" data-name="Rectangle 449" width="1.636" height="2.298" transform="translate(1182.998 627.395)" fill="#fff"/>
    <rect id="Rectangle_450" data-name="Rectangle 450" width="1.636" height="2.298" transform="translate(1198.49 627.395)" fill="#fff"/>
    <rect id="Rectangle_451" data-name="Rectangle 451" width="1.636" height="2.298" transform="translate(1173.652 627.395)" fill="#fff"/>
    <rect id="Rectangle_452" data-name="Rectangle 452" width="1.636" height="2.298" transform="translate(1203.121 627.395)" fill="#fff"/>
    <rect id="Rectangle_453" data-name="Rectangle 453" width="1.636" height="2.298" transform="translate(1178.283 627.395)" fill="#fff"/>
    <rect id="Rectangle_454" data-name="Rectangle 454" width="1.637" height="2.298" transform="translate(1193.773 627.395)" fill="#fff"/>
    <rect id="Rectangle_455" data-name="Rectangle 455" width="1.636" height="2.298" transform="translate(1168.937 627.395)" fill="#fff"/>
    <rect id="Rectangle_456" data-name="Rectangle 456" width="1.636" height="2.298" transform="translate(1205.563 627.395)" fill="#fff"/>
    <rect id="Rectangle_457" data-name="Rectangle 457" width="1.636" height="2.298" transform="translate(1180.724 627.395)" fill="#fff"/>
    <rect id="Rectangle_458" data-name="Rectangle 458" width="1.637" height="2.298" transform="translate(1196.215 627.395)" fill="#fff"/>
    <rect id="Rectangle_459" data-name="Rectangle 459" width="1.636" height="2.298" transform="translate(1171.379 627.395)" fill="#fff"/>
    <rect id="Rectangle_460" data-name="Rectangle 460" width="1.636" height="2.298" transform="translate(1200.848 627.395)" fill="#fff"/>
    <rect id="Rectangle_461" data-name="Rectangle 461" width="1.636" height="2.298" transform="translate(1176.009 627.395)" fill="#fff"/>
    <rect id="Rectangle_462" data-name="Rectangle 462" width="1.637" height="2.298" transform="translate(1191.5 627.395)" fill="#fff"/>
    <rect id="Rectangle_463" data-name="Rectangle 463" width="1.637" height="2.298" transform="translate(1166.662 627.395)" fill="#fff"/>
  </g>
</svg>
