<svg xmlns="http://www.w3.org/2000/svg" width="2002.035" height="99.298" viewBox="0 0 2002.035 99.298">
  <g id="Group_4359" data-name="Group 4359" transform="translate(-15521.896 10788.955)">
    <path id="Path_1705" data-name="Path 1705" d="M545.7,145.9h-3.6a.9.9,0,0,1-.872-.932v-1.492a.9.9,0,0,1,.872-.932h3.6a.9.9,0,0,1,.871.932v1.492a.9.9,0,0,1-.871.932" transform="translate(16912.422 -10847.484)" fill="#20b3af"/>
    <path id="Path_1706" data-name="Path 1706" d="M539.1,145.9h-3.6a.9.9,0,0,1-.872-.932v-1.492a.9.9,0,0,1,.872-.932h3.6a.9.9,0,0,1,.871.932v1.492a.9.9,0,0,1-.871.932" transform="translate(16911.588 -10847.484)" fill="#20b3af"/>
    <path id="Path_1707" data-name="Path 1707" d="M532.348,145.9h-3.6a.9.9,0,0,1-.872-.932v-1.492a.9.9,0,0,1,.872-.932h3.6a.9.9,0,0,1,.871.932v1.492a.9.9,0,0,1-.871.932" transform="translate(16910.734 -10847.484)" fill="#20b3af"/>
    <path id="Path_1708" data-name="Path 1708" d="M525.592,145.9h-3.6a.9.9,0,0,1-.872-.932v-1.492a.9.9,0,0,1,.872-.932h3.6a.9.9,0,0,1,.871.932v1.492a.9.9,0,0,1-.871.932" transform="translate(16909.881 -10847.484)" fill="#20b3af"/>
    <path id="Path_1709" data-name="Path 1709" d="M518.992,145.9h-3.6a.9.9,0,0,1-.872-.932v-1.492a.9.9,0,0,1,.872-.932h3.6a.9.9,0,0,1,.871.932v1.492a.9.9,0,0,1-.871.932" transform="translate(16909.047 -10847.484)" fill="#20b3af"/>
    <path id="Path_1710" data-name="Path 1710" d="M492.331,145.9h-3.6a.9.9,0,0,1-.872-.932v-1.492a.9.9,0,0,1,.872-.932h3.6a.9.9,0,0,1,.871.932v1.492a.9.9,0,0,1-.871.932" transform="translate(16905.678 -10847.484)" fill="#20b3af"/>
    <path id="Path_1711" data-name="Path 1711" d="M505.687,145.9h-3.6a.9.9,0,0,1-.872-.932v-1.492a.9.9,0,0,1,.872-.932h3.6a.9.9,0,0,1,.871.932v1.492a.9.9,0,0,1-.871.932" transform="translate(16907.365 -10847.484)" fill="#20b3af"/>
    <path id="Path_1712" data-name="Path 1712" d="M499.086,145.9h-3.6a.9.9,0,0,1-.872-.932v-1.492a.9.9,0,0,1,.872-.932h3.6a.9.9,0,0,1,.871.932v1.492a.9.9,0,0,1-.871.932" transform="translate(16906.531 -10847.484)" fill="#20b3af"/>
    <path id="Path_1713" data-name="Path 1713" d="M512.236,145.9h-3.6a.9.9,0,0,1-.872-.932v-1.492a.9.9,0,0,1,.872-.932h3.6a.9.9,0,0,1,.872.932v1.492a.9.9,0,0,1-.872.932" transform="translate(16908.193 -10847.484)" fill="#20b3af"/>
    <path id="Path_1714" data-name="Path 1714" d="M563.906,145.767H560a.866.866,0,0,1-.837-.894v-1.566a.867.867,0,0,1,.837-.894h3.9a.867.867,0,0,1,.836.894v1.566a.866.866,0,0,1-.836.894" transform="translate(16914.688 -10847.512)" fill="#20b3af"/>
    <path id="Path_1715" data-name="Path 1715" d="M567.085,142.539c.313.043.849.127,1.531.275a9.948,9.948,0,0,1,1.612.515.3.3,0,0,1,.148.41l-.953,2.042a.27.27,0,0,1-.316.153,8.027,8.027,0,0,0-1.1-.224,9.457,9.457,0,0,0-.987-.059.286.286,0,0,1-.273-.3l.031-2.518a.284.284,0,0,1,.31-.293" transform="translate(16915.646 -10847.486)" fill="#20b3af"/>
    <path id="Path_1716" data-name="Path 1716" d="M571.389,144.036a.287.287,0,0,1,.375-.133c.428.2,1.329.615,1.852.873.5.247,1.229.651,1.607.863a.331.331,0,0,1,.133.417l-.574,1.354a.294.294,0,0,1-.388.164c-.425-.19-1.24-.55-1.554-.674-.943-.374-1.736-.62-2.179-.745a.326.326,0,0,1-.179-.472Z" transform="translate(16916.113 -10847.211)" fill="#20b3af"/>
    <path id="Path_1717" data-name="Path 1717" d="M552.609,141.239a.741.741,0,0,1,.714.764v3.312a.716.716,0,1,1-1.428,0V142a.741.741,0,0,1,.714-.764" transform="translate(16913.77 -10847.753)" fill="#20b3af"/>
    <path id="Path_1718" data-name="Path 1718" d="M463.568,73.593a2.269,2.269,0,0,1,1.616.3,1.749,1.749,0,0,1,.857,1.989,4.375,4.375,0,0,1-.757,1.409,19.026,19.026,0,0,1-2.026,2.043,34.165,34.165,0,0,1-4.8,3.321c-.73.436-1.438.914-2.156,1.373a9,9,0,0,1-1.352.711,8.993,8.993,0,0,0-1.8,1.331c.052.158.073.312.109.316a1.919,1.919,0,0,1,1.539,1.085,14.483,14.483,0,0,0,1.079,1.492c-.332.2-.6.5-.86.491a8.286,8.286,0,0,0-2.29.565,3.648,3.648,0,0,1-1.723.207,3.676,3.676,0,0,1,.055-.562,5,5,0,0,1,.246-.6c-.527.025-.939.048-1.352.066a.714.714,0,0,1-.7-.4c.037-.022.072-.064.11-.068s.065.042.1.065l-.2-.042c-.421.3-.84.6-1.263.9a3.961,3.961,0,0,0-1.167.969c.694.272,1.332-.107,2.02.107.471.641.986,1.342,1.49,2.026a.924.924,0,0,1-.9.83,14.363,14.363,0,0,0-2.267.717,1.579,1.579,0,0,1-1.65-.057c0-.265.01-.55.015-.822-.082-.07-.144-.165-.221-.181-.321-.061-.645-.1-.969-.148a3.019,3.019,0,0,0-1.991.418c-1.856,1.034-3.761,1.972-5.687,2.969-.044-.462.252-.51.449-.635,1.721-1.1,3.448-2.188,5.164-3.3a14.753,14.753,0,0,0,1.256-.95,5.106,5.106,0,0,0,.508-.663c-.475.2-.685.275-.883.372a34.081,34.081,0,0,1-7.832,2.737c-2.378.515-4.761,1-7.141,1.5a2.654,2.654,0,0,1-.828.136,4.019,4.019,0,0,0-2.826,1.063c-.329.223-.627.626-1.193.447.39-.413.743-.787,1.09-1.157-.94-1.248-.94-1.248-.66-2.525-2.677-2.144-5.452-4.234-8.226-6.437a4.461,4.461,0,0,1,1.693-1.184,1.447,1.447,0,0,1,.938.03c1.3.388,2.591.84,3.895,1.22,2.654.776,5.32,1.507,7.973,2.284a2.383,2.383,0,0,0,1.995-.281c2.094-1.207,4.224-2.338,6.337-3.506.364-.2.71-.436,1.035-.638-.014-.416-.273-.445-.485-.507-.944-.284-1.889-.554-2.833-.837-.31-.092-.615-.2-.943-.306a2.225,2.225,0,0,1,2.133-1.107c1.12,0,2.238.055,3.358.069a14.057,14.057,0,0,0,3.343-.057,13.19,13.19,0,0,0,2.9-1.454c.417-.221.819-.476,1.238-.7a16.662,16.662,0,0,0,3.834-2.706,22.933,22.933,0,0,1,6.179-4.051,3.818,3.818,0,0,1,2.443-.372c.5.1.995.218,1.492.328l.036-.045c-.461.052-.925.083-1.382.16-.439.075-.972.01-1.167.6-.115.348.328.654,1.169.755a14.577,14.577,0,0,0,4.01-.186c.051-.008.083-.141.149-.26l-1.308-.714Zm-6.259,8.733c-.012-.064-.024-.128-.035-.192l.116-.019c-.021.053-.044.106-.068.151l-.191-.06.178.121m6.045-2.047c.012-.063.024-.127.036-.19.024.028.048.054.072.081a.671.671,0,0,1-.1.061c-.038.027-.076.069-.115.072s-.068-.04-.1-.064c.07.013.14.028.208.04m-40.48,17.943c.751.675,1.364.828,2.06.363.249-.169.543-.257.806-.4,2.693-1.462,5.39-2.915,8.073-4.4q11.55-6.377,22.808-13.328a22,22,0,0,0,1.953-1.43c.119-.094.142-.328.217-.521-.185-.03-.3-.092-.373-.053C446.8,84.4,435.657,91.3,424.142,97.448c-.389.209-.757.46-1.268.774" transform="translate(16896.541 -10861.798)" fill="#868686"/>
    <path id="Path_1719" data-name="Path 1719" d="M579.43,124.568l-1643.1-.111v-3.616l1643.1.111a603,603,0,0,0,64.759-4.29c31.857-3.9,74.446-12.217,96.428-29.732l2.018,2.9c-43.1,34.343-158.321,34.737-163.205,34.737" transform="translate(16585.615 -10858.93)" fill="#868686"/>
    <path id="Path_1720" data-name="Path 1720" d="M796.59,158.188v-4.966h.609v-.615h.574v1.856h.474v1.868h9.019a2.074,2.074,0,0,0,4.126,0h.338l.349.869h3.608l.576-.869h.462a2.074,2.074,0,0,0,4.126,0h69.265a2.074,2.074,0,0,0,4.126,0h.4l.349.988,3.371-.119,1.578-2.737h.135a2.33,2.33,0,0,0-.531,1.484,2.1,2.1,0,1,0,4.193,0,2.32,2.32,0,0,0-.518-1.484h.248l.823,1.868,14.532.253s-.812,0-.7-.746.925-.747,1.747-.881,1.861-1.483,1.861-1.483.462-1.121.113-1.747a21.736,21.736,0,0,0-5.118-5.1c-2.559-1.734-9.189-5.834-10.7-6.581a74.263,74.263,0,0,0-7.665-3.11,49.319,49.319,0,0,0-8.028-.494,42.007,42.007,0,0,0-7.677,1.242,64.207,64.207,0,0,1-6.5.615c-1.047.133-22.445.133-22.445.133l-1.51-1.242-23.021-.131-1.274,1H806.264l-1.161-.494h-7.44v2.482h-.7V139.3h-.373v-1.638H-1064.154V159.08H937.881v-.892ZM912.888,147c-.576,0-1.049-.218-1.049-.5s.473-.494,1.049-.494,1.049.217,1.049.494-.474.5-1.049.5m2.728.372a.633.633,0,1,1-.756.628.7.7,0,0,1,.756-.628m-9.493-7.027c1.139.567,5.2,3.039,8.219,4.978a18.85,18.85,0,0,1-4.611-.747,53.752,53.752,0,0,1-8.376-3.363,10.732,10.732,0,0,1-2.908-3.978c1.16.133,6.166,2.362,7.676,3.11m.046,6.8-1.251,2.531s-2.447-.818-3.767-1.264a22.241,22.241,0,0,0-5.231-.749c-1.679-.072-8.927,0-8.927,0v-5s6,.133,7.531.229a18.352,18.352,0,0,1,6.831,1.712c2.232,1.049,4.814,2.543,4.814,2.543M847.2,137.566h4.182v.734H847.2Zm-5.93,0h4.182v.734h-4.182Zm-5.242,0h4.193v.734h-4.193Zm-5.93,0h4.193v.734H830.1Zm-31.734,1.168h88.361c.045,0,5.5-.253,8.039-.119a16.508,16.508,0,0,1,4.8,1.023l.362.47A20.293,20.293,0,0,0,894.738,139c-2.514-.121-7.949.122-8.016.122H798.361Zm84.111,2.9V149.9a.725.725,0,0,1-.7.735h-3.043a.715.715,0,0,1-.687-.735v-8.257a.709.709,0,0,1,.687-.735h3.043a.718.718,0,0,1,.7.735m-5.479.181h-.574V141h.574Zm-2.943,5.81H805.913v-4.6H874.05Zm-81.923.759,85.723-.072v2.061a.781.781,0,0,0,.756.8h3.3a.779.779,0,0,0,.745-.8v-2.061h2.48s11.488-.107,13.653.157a22.051,22.051,0,0,1,7.552,2.64c2.313,1.35,6.551,4.291,6.551,4.291l-1.837-.011s-3.383-2-4.872-2.749a17.586,17.586,0,0,0-6.053-1.4l-108,.084Z" transform="translate(16586.051 -10848.737)" fill="#20b3af"/>
    <path id="Path_1721" data-name="Path 1721" d="M808.171,119.364l-1.915,1.651-.214.181-3.458-8.293h-5.023l-1.678-5.749h-12.3v6.666h-3.357V99.789h-3.9v14.488h-9.506v4.134h-9.7l.011,3.254h-2.118l-1.227,2.543,49.378-.529-58.571.638.405,1.615H-1062.707v11.053H814.964l15.881-17.622Zm5.532,3.086a.341.341,0,0,1-.317-.362.327.327,0,0,1,.317-.337.334.334,0,0,1,.314.337.349.349,0,0,1-.314.362" transform="translate(16585.111 -10856.265)" fill="#193b6a"/>
    <path id="Path_1722" data-name="Path 1722" d="M471.827,122.692a1.185,1.185,0,1,0,1.1,1.181,1.144,1.144,0,0,0-1.1-1.181" transform="translate(16903.512 -10851.562)" fill="#fff"/>
    <path id="Path_1723" data-name="Path 1723" d="M458.8,122.692a1.185,1.185,0,1,0,1.1,1.181,1.145,1.145,0,0,0-1.1-1.181" transform="translate(16901.865 -10851.562)" fill="#fff"/>
    <path id="Path_1724" data-name="Path 1724" d="M465.16,122.692a1.185,1.185,0,1,0,1.1,1.181,1.145,1.145,0,0,0-1.1-1.181" transform="translate(16902.67 -10851.562)" fill="#fff"/>
    <path id="Path_1725" data-name="Path 1725" d="M452.13,122.692a1.185,1.185,0,1,0,1.1,1.181,1.144,1.144,0,0,0-1.1-1.181" transform="translate(16901.023 -10851.562)" fill="#fff"/>
    <path id="Path_1726" data-name="Path 1726" d="M468.585,122.692a1.185,1.185,0,1,0,1.1,1.181,1.144,1.144,0,0,0-1.1-1.181" transform="translate(16903.104 -10851.562)" fill="#fff"/>
    <path id="Path_1727" data-name="Path 1727" d="M455.556,122.692a1.185,1.185,0,1,0,1.1,1.181,1.144,1.144,0,0,0-1.1-1.181" transform="translate(16901.457 -10851.562)" fill="#fff"/>
    <path id="Path_1728" data-name="Path 1728" d="M461.918,122.692a1.185,1.185,0,1,0,1.1,1.181,1.144,1.144,0,0,0-1.1-1.181" transform="translate(16902.26 -10851.562)" fill="#fff"/>
    <path id="Path_1729" data-name="Path 1729" d="M448.888,122.692a1.185,1.185,0,1,0,1.1,1.181,1.144,1.144,0,0,0-1.1-1.181" transform="translate(16900.613 -10851.562)" fill="#fff"/>
    <path id="Path_1730" data-name="Path 1730" d="M490.954,120.731l.293.545.294.544h-.44a1.777,1.777,0,0,0,1.472,1.8V119.3a.772.772,0,0,1-.5-.738.728.728,0,1,1,1.452,0,.777.777,0,0,1-.494.738v4.315a1.779,1.779,0,0,0,1.459-1.8h-.384l.294-.544.294-.545.294.545.293.544H494.9a2.2,2.2,0,0,1-1.866,2.236v.527l.335,0-.29.528-.291.528-.283-.532-.284-.533.354,0v-.522a2.2,2.2,0,0,1-1.88-2.237h-.326l.293-.544Z" transform="translate(16905.994 -10852.569)" fill="#fff"/>
    <path id="Path_1731" data-name="Path 1731" d="M475.848,109H472.9v1.379h3.317Z" transform="translate(16903.787 -10854.373)" fill="#fff"/>
    <rect id="Rectangle_446" data-name="Rectangle 446" width="0.981" height="1.379" transform="translate(17374.223 -10745.373)" fill="#fff"/>
    <rect id="Rectangle_447" data-name="Rectangle 447" width="0.982" height="1.379" transform="translate(17372.311 -10745.373)" fill="#fff"/>
    <rect id="Rectangle_448" data-name="Rectangle 448" width="1.095" height="1.538" transform="translate(17383.08 -10740.418)" fill="#fff"/>
    <rect id="Rectangle_449" data-name="Rectangle 449" width="1.095" height="1.538" transform="translate(17366.455 -10740.418)" fill="#fff"/>
    <rect id="Rectangle_450" data-name="Rectangle 450" width="1.095" height="1.538" transform="translate(17376.824 -10740.418)" fill="#fff"/>
    <rect id="Rectangle_451" data-name="Rectangle 451" width="1.095" height="1.538" transform="translate(17360.199 -10740.418)" fill="#fff"/>
    <rect id="Rectangle_452" data-name="Rectangle 452" width="1.095" height="1.538" transform="translate(17379.924 -10740.418)" fill="#fff"/>
    <rect id="Rectangle_453" data-name="Rectangle 453" width="1.095" height="1.538" transform="translate(17363.299 -10740.418)" fill="#fff"/>
    <rect id="Rectangle_454" data-name="Rectangle 454" width="1.096" height="1.538" transform="translate(17373.668 -10740.418)" fill="#fff"/>
    <rect id="Rectangle_455" data-name="Rectangle 455" width="1.095" height="1.538" transform="translate(17357.043 -10740.418)" fill="#fff"/>
    <rect id="Rectangle_456" data-name="Rectangle 456" width="1.095" height="1.538" transform="translate(17381.559 -10740.418)" fill="#fff"/>
    <rect id="Rectangle_457" data-name="Rectangle 457" width="1.095" height="1.538" transform="translate(17364.934 -10740.418)" fill="#fff"/>
    <rect id="Rectangle_458" data-name="Rectangle 458" width="1.096" height="1.538" transform="translate(17375.303 -10740.418)" fill="#fff"/>
    <rect id="Rectangle_459" data-name="Rectangle 459" width="1.095" height="1.538" transform="translate(17358.678 -10740.418)" fill="#fff"/>
    <rect id="Rectangle_460" data-name="Rectangle 460" width="1.095" height="1.538" transform="translate(17378.402 -10740.418)" fill="#fff"/>
    <rect id="Rectangle_461" data-name="Rectangle 461" width="1.095" height="1.538" transform="translate(17361.777 -10740.418)" fill="#fff"/>
    <rect id="Rectangle_462" data-name="Rectangle 462" width="1.096" height="1.538" transform="translate(17372.146 -10740.418)" fill="#fff"/>
    <rect id="Rectangle_463" data-name="Rectangle 463" width="1.096" height="1.538" transform="translate(17355.52 -10740.418)" fill="#fff"/>
  </g>
</svg>
