<svg id="instagram" xmlns="http://www.w3.org/2000/svg" width="21.685" height="21.686" viewBox="0 0 21.685 21.686">
  <g id="Group_3" data-name="Group 3">
    <g id="Group_2" data-name="Group 2">
      <path id="Path_18" data-name="Path 18" d="M14.909,0H6.777A6.777,6.777,0,0,0,0,6.777v8.132a6.777,6.777,0,0,0,6.777,6.777h8.132a6.777,6.777,0,0,0,6.777-6.777V6.777A6.777,6.777,0,0,0,14.909,0Zm4.744,14.909a4.749,4.749,0,0,1-4.744,4.744H6.777a4.749,4.749,0,0,1-4.744-4.744V6.777A4.749,4.749,0,0,1,6.777,2.033h8.132a4.749,4.749,0,0,1,4.744,4.744Z" fill="#ebebeb"/>
    </g>
  </g>
  <g id="Group_5" data-name="Group 5" transform="translate(5.421 5.421)">
    <g id="Group_4" data-name="Group 4">
      <path id="Path_19" data-name="Path 19" d="M133.421,128a5.421,5.421,0,1,0,5.421,5.421A5.422,5.422,0,0,0,133.421,128Zm0,8.81a3.388,3.388,0,1,1,3.388-3.388A3.393,3.393,0,0,1,133.421,136.81Z" transform="translate(-128 -128)" fill="#ebebeb"/>
    </g>
  </g>
  <g id="Group_7" data-name="Group 7" transform="translate(15.948 4.292)">
    <g id="Group_6" data-name="Group 6">
      <ellipse id="Ellipse_1" data-name="Ellipse 1" cx="0.722" cy="0.722" rx="0.722" ry="0.722" fill="#ebebeb"/>
    </g>
  </g>
</svg>
