<svg xmlns="http://www.w3.org/2000/svg" xmlns:xlink="http://www.w3.org/1999/xlink" width="144" height="111" viewBox="0 0 144 111">
  <defs>
    <clipPath id="clip-path">
      <rect id="Rectangle_647" data-name="Rectangle 647" width="144" height="111" transform="translate(959 1135)" fill="#fff" stroke="#707070" stroke-width="1"/>
    </clipPath>
  </defs>
  <g id="mot-operatorandlicense-icon" transform="translate(-959 -1135)" clip-path="url(#clip-path)">
    <g id="Group_2955" data-name="Group 2955" transform="translate(989 1139)">
      <g id="Group_2953" data-name="Group 2953">
        <g id="Group_2935" data-name="Group 2935">
          <path id="Path_6745" data-name="Path 6745" d="M129.889,25.4V73.328a11.74,11.74,0,0,1-5.327,9.189L52.242,124.27c-2.943,1.7-5.327.34-5.327-3.037V73.31a11.737,11.737,0,0,1,5.327-9.19l72.32-41.755C127.5,20.667,129.889,22.027,129.889,25.4Z" transform="translate(-46.915 -21.634)" fill="#6b829c"/>
          <path id="Path_6746" data-name="Path 6746" d="M130.639,25.831V73.755a11.739,11.739,0,0,1-5.328,9.189L52.99,124.7c-2.943,1.7-5.327.34-5.327-3.037V73.737a11.737,11.737,0,0,1,5.327-9.19l72.32-41.755C128.252,21.094,130.639,22.454,130.639,25.831Z" transform="translate(-46.639 -21.476)" fill="#cec7de"/>
          <path id="Path_6747" data-name="Path 6747" d="M73.756,91.453,49.718,105.331v-37.3L73.756,54.154Z" transform="translate(-45.879 -9.621)" fill="#a5b9e8"/>
          <path id="Path_6748" data-name="Path 6748" d="M103.243,71.626,97.2,75.115v-37.3l6.043-3.489Z" transform="translate(-28.339 -16.945)" fill="#a5b9e8"/>
          <path id="Path_6749" data-name="Path 6749" d="M130.639,57.729v2.85a11.739,11.739,0,0,1-5.328,9.189L52.99,111.521c-2.943,1.7-5.327.34-5.327-3.037v-2.848Z" transform="translate(-46.639 -8.3)" fill="#ece2eb"/>
          <path id="Path_6750" data-name="Path 6750" d="M130.639,25.831v7.728L47.663,81.465V73.737a11.737,11.737,0,0,1,5.327-9.19l72.32-41.755C128.252,21.094,130.639,22.454,130.639,25.831Z" transform="translate(-46.639 -21.476)" fill="#20b3af"/>
          <path id="Path_6751" data-name="Path 6751" d="M71.306,57.4v31.82l-20.178,11.65V69.048Z" transform="translate(-45.359 -8.422)" fill="#f3ecf2"/>
          <path id="Path_6752" data-name="Path 6752" d="M108.243,55.168c0,1.463-3.115,4.448-6.959,6.668s-6.961,2.832-6.961,1.369,3.117-4.449,6.961-6.668S108.243,53.706,108.243,55.168Z" transform="translate(-29.402 -9.54)" fill="#c7ea00"/>
          <path id="Path_6753" data-name="Path 6753" d="M69.537,59.376V87.387L52.144,97.429V69.418Z" transform="translate(-44.983 -7.692)" fill="#a5b9e8"/>
          <path id="Path_6754" data-name="Path 6754" d="M65.34,78.84s1.008-4.474,1.594-8.467c.3-2,.04-3.848-.931-4.815l1.065-.007-1.836-.5a2.621,2.621,0,0,0-.633-.173l-.014,0-.007,0a5.07,5.07,0,0,0-2.632.527l.54-.729-1.645,1.285-1.089.141L58.178,67.59l-.168-.585c-.174.142-2.307,4.463-2.307,4.463l.007-.008a10.191,10.191,0,0,0-.961,5.949c.351,1.979.85,3.954,1.2,5.226.093.34.174.629.24.855.1.346.159.544.159.544l-4.2,5.445v6l8.7-5.022,8.7-5.02v-6Z" transform="translate(-44.983 -5.735)" fill="#5e738a"/>
        </g>
        <g id="Group_2936" data-name="Group 2936" transform="translate(32.492 31.801)">
          <path id="Path_6755" data-name="Path 6755" d="M71.043,54.918l.946.89V54.37l.419-.241v2.238l-.4.231-.944-.889v1.434l-.422.244V55.149Z" transform="translate(-70.642 -41.43)" fill="#353252"/>
          <path id="Path_6756" data-name="Path 6756" d="M73.588,55.178l-.9.522-.153.523-.453.262.846-2.725.453-.263.834,1.757-.471.271Zm-.141-.323-.307-.693-.311,1.048Z" transform="translate(-70.111 -41.664)" fill="#353252"/>
          <path id="Path_6757" data-name="Path 6757" d="M74.275,53.106l.568,1.041.567-1.7.49-.283v2.238l-.4.229V53.127l-.516,1.579-.288.166-.519-.98V55.4l-.4.23V53.391Z" transform="translate(-69.482 -42.155)" fill="#353252"/>
          <path id="Path_6758" data-name="Path 6758" d="M77.126,51.362v.419l-1.046.6v.485l.939-.542v.419l-.939.542v.5l1.075-.622v.419l-1.515.875V52.221Z" transform="translate(-68.796 -42.453)" fill="#353252"/>
          <path id="Path_6759" data-name="Path 6759" d="M78.324,51.043a.419.419,0,0,0-.248.325c0,.411,1.039-.418,1.037.389a1.4,1.4,0,0,1-.763,1.115,1.042,1.042,0,0,1-.861.144l.177-.515a.81.81,0,0,0,.689-.063.489.489,0,0,0,.29-.382c0-.422-1.039.426-1.039-.367a1.378,1.378,0,0,1,.755-1.1A1.182,1.182,0,0,1,79.1,50.4l-.168.516A1.089,1.089,0,0,0,78.324,51.043Z" transform="translate(-68.113 -42.81)" fill="#353252"/>
          <path id="Path_6760" data-name="Path 6760" d="M79.757,51.7a.892.892,0,0,0,.435-.768v-1.3l.441-.255v1.3a1.714,1.714,0,0,1-.876,1.465c-.541.312-.886.144-.886-.448V50.4l.441-.255v1.3C79.312,51.767,79.5,51.856,79.757,51.7Z" transform="translate(-67.602 -43.185)" fill="#353252"/>
          <path id="Path_6761" data-name="Path 6761" d="M81.641,50.937l-.311-.46-.041.023-.408.236v.64l-.44.253V49.393l.848-.49c.509-.294.8-.181.8.315a1.388,1.388,0,0,1-.366.934l.416.5Zm-.76-.624.408-.234a.687.687,0,0,0,.381-.6c0-.249-.138-.293-.381-.153l-.408.236Z" transform="translate(-67.022 -43.421)" fill="#353252"/>
          <path id="Path_6762" data-name="Path 6762" d="M82.312,48.412l.946.89V47.865l.419-.242v2.238l-.4.233-.945-.89v1.434l-.42.244V48.643Z" transform="translate(-66.479 -43.834)" fill="#353252"/>
          <path id="Path_6763" data-name="Path 6763" d="M84.858,48.672l-.9.522-.153.523-.453.262.846-2.727.455-.262.834,1.756-.472.273Zm-.142-.325-.307-.693L84.1,48.7Z" transform="translate(-65.948 -44.068)" fill="#353252"/>
          <path id="Path_6764" data-name="Path 6764" d="M85.545,46.6l.568,1.039.567-1.7.489-.282V47.9l-.4.229V46.619l-.518,1.58-.288.166-.519-.982v1.509l-.4.23V46.885Z" transform="translate(-65.319 -44.558)" fill="#353252"/>
          <path id="Path_6765" data-name="Path 6765" d="M88.395,44.856v.419l-1.046.6v.485l.938-.542v.419l-.938.542v.5l1.075-.62v.418l-1.515.876V45.715Z" transform="translate(-64.633 -44.856)" fill="#353252"/>
        </g>
        <g id="Group_2937" data-name="Group 2937" transform="translate(32.551 54.774)">
          <path id="Path_6766" data-name="Path 6766" d="M71.515,67.236v2.24l-.44.255V67.919l-.39.225v-.429Z" transform="translate(-70.685 -59.562)" fill="#353252"/>
          <path id="Path_6767" data-name="Path 6767" d="M72.767,66.512v2.242l-.44.255V67.2l-.39.226v-.429Z" transform="translate(-70.222 -59.829)" fill="#353252"/>
          <path id="Path_6768" data-name="Path 6768" d="M73.5,67.54a.464.464,0,0,1-.214.381c-.123.071-.215.015-.215-.133a.457.457,0,0,1,.215-.377C73.412,67.339,73.5,67.391,73.5,67.54Z" transform="translate(-69.803 -59.509)" fill="#353252"/>
          <path id="Path_6769" data-name="Path 6769" d="M74.5,65.514v2.242l-.44.253V66.2l-.392.225v-.429Z" transform="translate(-69.584 -60.198)" fill="#353252"/>
          <path id="Path_6770" data-name="Path 6770" d="M75.764,65.45c0-.145-.1-.171-.267-.073a1.887,1.887,0,0,0-.544.594l-.173-.277a2.593,2.593,0,0,1,.781-.785c.389-.225.666-.156.666.194a2.346,2.346,0,0,1-.372.96l-.456.778.9-.518v.425l-1.465.846v-.349l.722-1.269A1.377,1.377,0,0,0,75.764,65.45Z" transform="translate(-69.172 -60.469)" fill="#353252"/>
          <path id="Path_6771" data-name="Path 6771" d="M76.484,65.82a.461.461,0,0,1-.216.379c-.122.071-.215.015-.215-.131a.461.461,0,0,1,.215-.378C76.394,65.618,76.484,65.669,76.484,65.82Z" transform="translate(-68.702 -60.145)" fill="#353252"/>
          <path id="Path_6772" data-name="Path 6772" d="M77.495,64.45c0-.144-.1-.17-.267-.073a1.9,1.9,0,0,0-.545.6L76.51,64.7a2.6,2.6,0,0,1,.781-.783c.39-.226.667-.157.667.194a2.339,2.339,0,0,1-.374.96l-.456.778.9-.519v.426l-1.468.846v-.349l.724-1.271A1.4,1.4,0,0,0,77.495,64.45Z" transform="translate(-68.533 -60.838)" fill="#353252"/>
          <path id="Path_6773" data-name="Path 6773" d="M79.287,63.891a1.705,1.705,0,0,1-.753,1.569c-.488.282-.755.033-.755-.7a1.711,1.711,0,0,1,.755-1.572C79.018,62.91,79.287,63.162,79.287,63.891Zm-1.08.623c0,.531.1.7.327.574s.327-.42.327-.952-.1-.7-.327-.575S78.206,63.982,78.206,64.515Z" transform="translate(-68.064 -61.098)" fill="#353252"/>
          <path id="Path_6774" data-name="Path 6774" d="M80.538,63.169a1.706,1.706,0,0,1-.752,1.569c-.488.282-.755.031-.755-.7a1.711,1.711,0,0,1,.755-1.572C80.271,62.187,80.538,62.439,80.538,63.169Zm-1.08.623c0,.531.1.7.329.574s.326-.42.326-.952-.1-.7-.326-.575S79.458,63.258,79.458,63.792Z" transform="translate(-67.601 -61.365)" fill="#353252"/>
          <path id="Path_6775" data-name="Path 6775" d="M81.792,62.444a1.7,1.7,0,0,1-.752,1.569c-.489.282-.756.033-.756-.7a1.709,1.709,0,0,1,.756-1.572C81.525,61.464,81.792,61.716,81.792,62.444Zm-1.08.624c0,.531.1.7.329.574s.326-.42.326-.952-.1-.7-.326-.575S80.711,62.535,80.711,63.069Z" transform="translate(-67.139 -61.632)" fill="#353252"/>
        </g>
        <path id="Path_6776" data-name="Path 6776" d="M76.936,74.4c0,1.327-1.454,3.241-3.248,4.278s-3.247.8-3.247-.527,1.453-3.243,3.247-4.278S76.936,73.071,76.936,74.4Z" transform="translate(-38.224 -2.575)" fill="#353252"/>
        <g id="Group_2939" data-name="Group 2939" transform="translate(32.492 49.773)">
          <g id="Group_2938" data-name="Group 2938">
            <path id="Path_6777" data-name="Path 6777" d="M71.134,61.26,71.7,62.3l.566-1.694.49-.283V62.56l-.4.229V61.279l-.518,1.58-.288.166-.519-.982v1.509l-.4.23V61.545Z" transform="translate(-70.642 -57.115)" fill="#353252"/>
            <path id="Path_6778" data-name="Path 6778" d="M73.846,61.37l-.9.522-.153.523-.455.262.846-2.725.456-.263.833,1.757L74,61.716Zm-.142-.323-.305-.693L73.088,61.4Z" transform="translate(-70.016 -57.349)" fill="#353252"/>
            <path id="Path_6779" data-name="Path 6779" d="M74.48,59.068v1.8l.837-.482v.441l-1.278.737V59.321Z" transform="translate(-69.387 -57.578)" fill="#353252"/>
            <path id="Path_6780" data-name="Path 6780" d="M76.645,57.98V58.4L75.6,59v.486l.938-.542v.418l-.938.542v.5l1.075-.622V60.2l-1.515.875V58.837Z" transform="translate(-68.973 -57.98)" fill="#353252"/>
          </g>
        </g>
        <g id="Group_2941" data-name="Group 2941" transform="translate(34.435 72.33)">
          <g id="Group_2940" data-name="Group 2940" transform="translate(0 0)">
            <path id="Path_6781" data-name="Path 6781" d="M73.63,76.2l-.937.541-.16.545-.472.273.881-2.833.471-.274.867,1.825-.489.283Zm-.148-.335-.318-.72-.322,1.089Z" transform="translate(-72.061 -74.452)" fill="#ece2eb"/>
          </g>
        </g>
        <path id="Path_6782" data-name="Path 6782" d="M83.317,70.715c0,1.327-1.454,3.241-3.248,4.277s-3.248.8-3.248-.527,1.454-3.241,3.248-4.277S83.317,69.388,83.317,70.715Z" transform="translate(-35.868 -3.936)" fill="#353252"/>
        <g id="Group_2943" data-name="Group 2943" transform="translate(43.404 67.237)">
          <g id="Group_2942" data-name="Group 2942">
            <path id="Path_6783" data-name="Path 6783" d="M80.267,71.055a.994.994,0,0,1-.351.713c.264-.1.422.037.422.344a1.362,1.362,0,0,1-.763,1.086l-.965.557V71.43l.933-.54C79.989,70.633,80.267,70.695,80.267,71.055Zm-.468.367c0-.162-.1-.193-.278-.09l-.452.262V72.1l.452-.262A.5.5,0,0,0,79.8,71.422Zm.07.9c0-.168-.136-.194-.348-.068l-.452.26v.553l.452-.262A.608.608,0,0,0,79.868,72.317Z" transform="translate(-78.61 -70.733)" fill="#ece2eb"/>
          </g>
        </g>
        <path id="Path_6784" data-name="Path 6784" d="M89.7,67.031c0,1.327-1.454,3.243-3.248,4.278s-3.248.8-3.248-.527,1.454-3.241,3.248-4.278S89.7,65.706,89.7,67.031Z" transform="translate(-33.511 -5.297)" fill="#353252"/>
        <g id="Group_2945" data-name="Group 2945" transform="translate(52.142 62.221)">
          <g id="Group_2944" data-name="Group 2944">
            <path id="Path_6785" data-name="Path 6785" d="M86.915,67.789a2.181,2.181,0,0,1-1.083,1.788l-.841.486V67.738l.859-.5C86.478,66.88,86.915,67.1,86.915,67.789Zm-.466.273c0-.429-.262-.574-.609-.372l-.393.227V69.36l.414-.24A1.276,1.276,0,0,0,86.449,68.061Z" transform="translate(-84.991 -67.07)" fill="#ece2eb"/>
          </g>
        </g>
        <g id="Group_2946" data-name="Group 2946" transform="translate(32.291 53.225)">
          <path id="Path_6786" data-name="Path 6786" d="M72.346,72.331l-1.3.749-.268.853L70.5,74.1l1.068-3.351.282-.163,1.064,2.12-.294.171Zm-.11-.226L71.7,71.011l-.534,1.716Z" transform="translate(-70.495 -56.775)" fill="#353252"/>
          <path id="Path_6787" data-name="Path 6787" d="M74.314,69.25v.242l-1.578,3.115,1.594-.92v.29L72.378,73.1v-.242l1.58-3.115-1.535.886v-.289Z" transform="translate(-69.799 -57.269)" fill="#353252"/>
          <path id="Path_6788" data-name="Path 6788" d="M75.064,68.983a1.742,1.742,0,0,0-.739,1.672,1.542,1.542,0,0,1,.723-.933c.472-.274.764-.11.764.422A1.613,1.613,0,0,1,75,71.515c-.585.337-.942.066-.942-.774a2.3,2.3,0,0,1,.993-2.019,1.413,1.413,0,0,1,.681-.2l-.108.305A1.018,1.018,0,0,0,75.064,68.983Zm-.678,2c0,.267.178.508.593.268a1.149,1.149,0,0,0,.579-.967c0-.372-.218-.477-.559-.279A1.228,1.228,0,0,0,74.386,70.982Z" transform="translate(-69.18 -57.537)" fill="#353252"/>
          <path id="Path_6789" data-name="Path 6789" d="M76.6,68.1a1.742,1.742,0,0,0-.741,1.673,1.545,1.545,0,0,1,.723-.934c.474-.273.764-.11.764.423a1.612,1.612,0,0,1-.815,1.369c-.586.338-.942.066-.942-.774a2.3,2.3,0,0,1,.993-2.019,1.428,1.428,0,0,1,.681-.2l-.108.305A1.014,1.014,0,0,0,76.6,68.1Zm-.679,2c0,.267.178.508.593.268a1.15,1.15,0,0,0,.579-.967c0-.371-.218-.477-.559-.279A1.229,1.229,0,0,0,75.922,70.1Z" transform="translate(-68.612 -57.865)" fill="#353252"/>
          <path id="Path_6790" data-name="Path 6790" d="M78.792,68.512a1.708,1.708,0,0,1-.919,1.382,1.314,1.314,0,0,1-.82.2l.119-.327a.942.942,0,0,0,.689-.14,1.194,1.194,0,0,0,.664-.954c0-.346-.249-.382-.672-.14l-.316.183v-.19l.793-1.357-1.16.67,0-.286,1.508-.871v.207l-.834,1.431.147-.078C78.472,67.993,78.792,68.071,78.792,68.512Z" transform="translate(-68.072 -58.216)" fill="#353252"/>
          <path id="Path_6791" data-name="Path 6791" d="M79.481,67.144v.222l-.8.461v-.222Z" transform="translate(-67.471 -58.047)" fill="#353252"/>
          <path id="Path_6792" data-name="Path 6792" d="M80.294,68.146a1.734,1.734,0,0,0,.731-1.669,1.522,1.522,0,0,1-.709.927c-.474.273-.763.107-.763-.425a1.607,1.607,0,0,1,.809-1.369c.582-.337.937-.064.937.781a2.3,2.3,0,0,1-.987,2.012,1.367,1.367,0,0,1-.674.193l.11-.3A.963.963,0,0,0,80.294,68.146Zm-.486-1.309c0,.37.215.478.552.283a1.215,1.215,0,0,0,.605-.976c0-.267-.174-.505-.581-.27A1.14,1.14,0,0,0,79.808,66.837Z" transform="translate(-67.149 -58.665)" fill="#353252"/>
          <path id="Path_6793" data-name="Path 6793" d="M82.859,64.286v.255l-1.064,3.1-.289.167,1.057-3.061-1.217.7v.4l-.244.141V65.3Z" transform="translate(-66.577 -59.102)" fill="#353252"/>
          <path id="Path_6794" data-name="Path 6794" d="M83.478,64.948c.527-.305.863-.163.863.307a1.7,1.7,0,0,1-.883,1.413,1.359,1.359,0,0,1-.844.19l.112-.319a1.035,1.035,0,0,0,.7-.138,1.161,1.161,0,0,0,.626-.963c0-.329-.241-.4-.619-.182a5.66,5.66,0,0,0-.649.451v-1.4l1.456-.839v.288l-1.2.694v.789A4.533,4.533,0,0,1,83.478,64.948Z" transform="translate(-66.018 -59.405)" fill="#353252"/>
          <path id="Path_6795" data-name="Path 6795" d="M85.923,63.785a2.057,2.057,0,0,1-.882,1.888c-.568.329-.883.019-.883-.87a2.051,2.051,0,0,1,.883-1.884C85.605,62.593,85.923,62.9,85.923,63.785Zm-1.494.863c0,.748.207,1.007.612.772a1.583,1.583,0,0,0,.608-1.478c0-.746-.211-1-.608-.766A1.56,1.56,0,0,0,84.429,64.647Z" transform="translate(-65.448 -59.654)" fill="#353252"/>
          <path id="Path_6796" data-name="Path 6796" d="M86.53,63.074V63.3l-.8.461v-.222Z" transform="translate(-64.867 -59.55)" fill="#353252"/>
          <path id="Path_6797" data-name="Path 6797" d="M87.595,61.409v2.739l-.273.156v-2.45l-.561.325V61.89Z" transform="translate(-64.486 -60.165)" fill="#353252"/>
          <path id="Path_6798" data-name="Path 6798" d="M89.434,61.089c0-.27-.189-.32-.5-.14a2.2,2.2,0,0,0-.675.727l-.121-.17a2.676,2.676,0,0,1,.831-.859c.452-.26.75-.171.75.24a2.853,2.853,0,0,1-.438,1.139l-.771,1.349,1.353-.782v.289l-1.7.982v-.253l.931-1.649A2.235,2.235,0,0,0,89.434,61.089Z" transform="translate(-63.979 -60.501)" fill="#353252"/>
        </g>
        <g id="Group_2947" data-name="Group 2947" transform="translate(6.398 85.109)">
          <path id="Path_6799" data-name="Path 6799" d="M53.438,93.868l-1.3.748-.267.853-.289.167,1.068-3.352.283-.163L54,94.242l-.3.17Zm-.11-.226-.541-1.1-.533,1.716Z" transform="translate(-51.587 -80.704)" fill="#353252"/>
          <path id="Path_6800" data-name="Path 6800" d="M55.17,92.77a1.706,1.706,0,0,1-.919,1.382,1.316,1.316,0,0,1-.82.2l.119-.327a.942.942,0,0,0,.687-.138,1.2,1.2,0,0,0,.666-.954c0-.348-.251-.383-.672-.14l-.316.184v-.192l.793-1.357-1.161.67,0-.286,1.508-.871v.208l-.834,1.43.147-.077C54.85,92.251,55.17,92.329,55.17,92.77Z" transform="translate(-50.906 -81.139)" fill="#353252"/>
          <path id="Path_6801" data-name="Path 6801" d="M56.942,89.9v.242l-1.578,3.115,1.594-.92,0,.29-1.95,1.126v-.242l1.58-3.115-1.535.886v-.289Z" transform="translate(-50.324 -81.525)" fill="#353252"/>
          <path id="Path_6802" data-name="Path 6802" d="M57.965,89.878c0-.27-.19-.32-.505-.14a2.2,2.2,0,0,0-.675.727l-.119-.17a2.659,2.659,0,0,1,.83-.859c.452-.26.753-.171.753.24a2.867,2.867,0,0,1-.441,1.139l-.771,1.349,1.353-.782v.289l-1.7.982V92.4l.933-1.649A2.25,2.25,0,0,0,57.965,89.878Z" transform="translate(-49.711 -81.75)" fill="#353252"/>
          <path id="Path_6803" data-name="Path 6803" d="M59.5,88.992c0-.27-.19-.322-.5-.14a2.193,2.193,0,0,0-.676.727l-.119-.171a2.667,2.667,0,0,1,.83-.857c.452-.26.752-.171.752.238a2.871,2.871,0,0,1-.438,1.141l-.774,1.349,1.354-.782v.289l-1.7.982v-.255l.931-1.647A2.258,2.258,0,0,0,59.5,88.992Z" transform="translate(-49.144 -82.077)" fill="#353252"/>
          <path id="Path_6804" data-name="Path 6804" d="M61.036,88.1c0-.27-.19-.32-.5-.14a2.192,2.192,0,0,0-.676.727l-.119-.17a2.659,2.659,0,0,1,.83-.859c.452-.26.752-.171.752.24a2.874,2.874,0,0,1-.438,1.139l-.774,1.349,1.354-.782V89.9l-1.7.982v-.255l.933-1.647A2.272,2.272,0,0,0,61.036,88.1Z" transform="translate(-48.577 -82.405)" fill="#353252"/>
          <path id="Path_6805" data-name="Path 6805" d="M61.586,87.232l.656.687.664-1.449.319-.185-.811,1.78.879.916-.326.188-.726-.734L61.524,90l-.32.185.875-1.912-.815-.857Z" transform="translate(-48.034 -82.86)" fill="#353252"/>
          <path id="Path_6806" data-name="Path 6806" d="M63.241,86.278l.657.686.663-1.447.319-.186-.809,1.78.878.916-.327.189L63.9,87.48l-.719,1.568-.319.185.874-1.912-.812-.859Z" transform="translate(-47.423 -83.213)" fill="#353252"/>
          <path id="Path_6807" data-name="Path 6807" d="M64.9,85.322l.657.686.661-1.447.322-.186-.811,1.78.876.916-.326.189-.723-.735-.719,1.568-.319.184.875-1.912-.813-.859Z" transform="translate(-46.811 -83.566)" fill="#353252"/>
          <path id="Path_6808" data-name="Path 6808" d="M67.233,83.784v2.739l-.271.157V84.23l-.561.325v-.289Z" transform="translate(-46.115 -83.784)" fill="#353252"/>
        </g>
        <g id="Group_2949" data-name="Group 2949" transform="translate(31.744 6.822)">
          <g id="Group_2948" data-name="Group 2948">
            <path id="Path_6809" data-name="Path 6809" d="M73.61,46.628a4.183,4.183,0,0,1-1.984,3.339l-1.53.883V46.462l1.547-.893C72.757,44.926,73.61,45.381,73.61,46.628Zm-.442.262c0-.991-.678-1.345-1.536-.849l-1.1.634v3.459l1.115-.644A3.254,3.254,0,0,0,73.168,46.89Z" transform="translate(-70.096 -19.722)" fill="#ece2eb"/>
            <path id="Path_6810" data-name="Path 6810" d="M75.744,47.577l-.8-.941c-.077.051-.159.1-.246.155l-1.016.586V48.77l-.437.253V44.634l1.453-.838c.956-.553,1.509-.333,1.509.6a2.623,2.623,0,0,1-.864,1.916l.9.976Zm-1.049-1.25a1.931,1.931,0,0,0,1.087-1.673c0-.671-.393-.794-1.087-.394l-1.016.587v2.068Z" transform="translate(-68.934 -20.38)" fill="#ece2eb"/>
            <path id="Path_6811" data-name="Path 6811" d="M76.561,42.479v4.388l-.438.253V42.731Z" transform="translate(-67.87 -20.756)" fill="#ece2eb"/>
            <path id="Path_6812" data-name="Path 6812" d="M77.359,42.507l1.316,3.063L80,40.983l.46-.266-1.564,5.29-.453.263-1.553-3.492Z" transform="translate(-67.587 -21.407)" fill="#ece2eb"/>
            <path id="Path_6813" data-name="Path 6813" d="M82.534,39.366v.464l-2.158,1.246v1.472L82.3,41.435v.457l-1.928,1.113v1.53l2.229-1.287v.464l-2.666,1.541V40.866Z" transform="translate(-66.46 -21.906)" fill="#ece2eb"/>
            <path id="Path_6814" data-name="Path 6814" d="M85.036,42.213l-.8-.941c-.077.051-.159.1-.247.153l-1.016.587V43.4l-.437.253V39.27l1.453-.839c.956-.552,1.509-.333,1.509.6a2.623,2.623,0,0,1-.864,1.916l.9.978Zm-1.049-1.25a1.935,1.935,0,0,0,1.087-1.675c0-.671-.393-.794-1.087-.393l-1.016.586v2.068Z" transform="translate(-65.501 -22.362)" fill="#ece2eb"/>
            <path id="Path_6815" data-name="Path 6815" d="M88.245,35.733v3.923l1.678-.968v.464l-2.116,1.222V35.986Z" transform="translate(-63.553 -23.248)" fill="#ece2eb"/>
            <path id="Path_6816" data-name="Path 6816" d="M90.306,34.543v4.388l-.437.253V34.8Z" transform="translate(-62.792 -23.688)" fill="#ece2eb"/>
            <path id="Path_6817" data-name="Path 6817" d="M92.77,33.887a3.368,3.368,0,0,0-1.558,2.642c0,.965.694,1.348,1.558.849A3.435,3.435,0,0,0,93.9,36.2l.267.177a4.294,4.294,0,0,1-1.421,1.486c-1.1.637-1.977.164-1.977-1.078a4.28,4.28,0,0,1,1.994-3.352,1.494,1.494,0,0,1,1.4-.167l-.262.514A1.148,1.148,0,0,0,92.77,33.887Z" transform="translate(-62.459 -24.2)" fill="#ece2eb"/>
            <path id="Path_6818" data-name="Path 6818" d="M96.419,31.35v.464L94.261,33.06v1.472l1.928-1.113v.457L94.261,34.99v1.53l2.229-1.287V35.7l-2.668,1.541V32.85Z" transform="translate(-61.331 -24.867)" fill="#ece2eb"/>
            <path id="Path_6819" data-name="Path 6819" d="M96.872,31.179l2.3,2.242V29.854l.433-.248v4.388l-.449.257-2.294-2.234v3.559l-.44.253V31.442Z" transform="translate(-60.373 -25.511)" fill="#ece2eb"/>
            <path id="Path_6820" data-name="Path 6820" d="M100.806,29.212a1.413,1.413,0,0,0-.815,1.072c0,1.141,2.153-.7,2.147.9a2.541,2.541,0,0,1-1.38,1.994,1.572,1.572,0,0,1-1.467.175l.2-.545a1.362,1.362,0,0,0,1.274-.122,1.551,1.551,0,0,0,.9-1.2c.007-1.176-2.146.687-2.146-.886a2.4,2.4,0,0,1,1.321-1.891,1.9,1.9,0,0,1,1.213-.294l-.186.553A1.685,1.685,0,0,0,100.806,29.212Z" transform="translate(-59.311 -25.958)" fill="#ece2eb"/>
            <path id="Path_6821" data-name="Path 6821" d="M104.618,26.616v.464l-2.158,1.246V29.8l1.928-1.113v.457l-1.928,1.113v1.53l2.229-1.287v.464L102.023,32.5V28.116Z" transform="translate(-58.302 -26.616)" fill="#ece2eb"/>
          </g>
        </g>
        <g id="Group_2950" data-name="Group 2950" transform="translate(32.573 38.45)">
          <path id="Path_6822" data-name="Path 6822" d="M70.924,57.793v2l.855-.494v.237l-1.078.623V57.922Z" transform="translate(-70.701 -46.727)" fill="#353252"/>
          <path id="Path_6823" data-name="Path 6823" d="M73.659,57.5a2.19,2.19,0,0,1-1.02,1.717c-.571.33-1.023.092-1.023-.538a2.181,2.181,0,0,1,1.023-1.715C73.207,56.634,73.659,56.869,73.659,57.5Zm-1.817,1.049c0,.5.362.686.8.435a1.733,1.733,0,0,0,.792-1.353c0-.494-.356-.682-.792-.43A1.729,1.729,0,0,0,71.842,58.547Z" transform="translate(-70.363 -47.088)" fill="#353252"/>
          <path id="Path_6824" data-name="Path 6824" d="M74.677,57.986l-.409-.479c-.038.025-.081.052-.125.078l-.518.3v.711l-.225.129V56.485l.742-.429c.486-.281.768-.17.768.307a1.34,1.34,0,0,1-.44.978l.459.5Zm-.534-.638a.984.984,0,0,0,.553-.855c0-.342-.2-.405-.553-.2l-.518.3v1.056Z" transform="translate(-69.704 -47.425)" fill="#353252"/>
          <path id="Path_6825" data-name="Path 6825" d="M76.192,54.923v.236l-1.1.634v.752l.982-.567v.234l-.982.567v.779l1.137-.656v.237l-1.36.786V55.687Z" transform="translate(-69.161 -47.787)" fill="#353252"/>
          <path id="Path_6826" data-name="Path 6826" d="M76.466,54.865l.712,1.212.712-2.034.273-.157v2.236l-.205.119,0-1.858-.711,2.034-.134.078L76.4,55.28v1.86l-.211.122V55.025Z" transform="translate(-68.673 -48.17)" fill="#353252"/>
          <path id="Path_6827" data-name="Path 6827" d="M78.891,53.193v2.236l-.223.13V53.322Z" transform="translate(-67.758 -48.426)" fill="#353252"/>
          <path id="Path_6828" data-name="Path 6828" d="M80.755,52.987a1.406,1.406,0,0,1-.761,1.216l-.509.294v.709l-.223.129V53.1l.733-.423C80.477,52.4,80.755,52.511,80.755,52.987Zm-.214.13c0-.342-.2-.4-.556-.2l-.5.289v1.056l.5-.29A.987.987,0,0,0,80.541,53.118Z" transform="translate(-67.539 -48.672)" fill="#353252"/>
          <path id="Path_6829" data-name="Path 6829" d="M81.241,52.209a.72.72,0,0,0-.415.545c0,.582,1.1-.355,1.1.459a1.294,1.294,0,0,1-.707,1.017.8.8,0,0,1-.746.089l.1-.279a.686.686,0,0,0,.649-.06.789.789,0,0,0,.457-.612c0-.6-1.1.351-1.1-.451a1.228,1.228,0,0,1,.675-.967.96.96,0,0,1,.619-.148l-.1.282A.852.852,0,0,0,81.241,52.209Z" transform="translate(-67.093 -48.943)" fill="#353252"/>
          <path id="Path_6830" data-name="Path 6830" d="M82.649,53.257a1.182,1.182,0,0,0,.594-1.041V50.9l.222-.129v1.316a1.6,1.6,0,0,1-.816,1.4c-.512.3-.82.129-.82-.456V51.718l.222-.129v1.316C82.051,53.347,82.278,53.471,82.649,53.257Z" transform="translate(-66.59 -49.32)" fill="#353252"/>
          <path id="Path_6831" data-name="Path 6831" d="M83.694,50.693l.713,1.212.712-2.035.273-.157V51.95l-.207.119,0-1.858-.708,2.034-.136.078-.707-1.216v1.861l-.212.122V50.851Z" transform="translate(-66.003 -49.712)" fill="#353252"/>
        </g>
        <g id="Group_2951" data-name="Group 2951" transform="translate(32.573 40.572)">
          <path id="Path_6832" data-name="Path 6832" d="M72.492,64.535a2.136,2.136,0,0,1-1.011,1.7l-.781.451V64.452L71.49,64C72.058,63.668,72.492,63.9,72.492,64.535Zm-.226.136c0-.507-.345-.687-.782-.435l-.56.323v1.765L71.493,66A1.663,1.663,0,0,0,72.266,64.671Z" transform="translate(-70.701 -46.611)" fill="#353252"/>
          <path id="Path_6833" data-name="Path 6833" d="M74.176,63.6a2.193,2.193,0,0,1-1.02,1.719c-.571.329-1.023.092-1.023-.538a2.186,2.186,0,0,1,1.023-1.716C73.724,62.737,74.176,62.972,74.176,63.6ZM72.359,64.65c0,.5.363.687.8.437a1.731,1.731,0,0,0,.792-1.353c0-.5-.355-.683-.792-.431A1.735,1.735,0,0,0,72.359,64.65Z" transform="translate(-70.172 -46.955)" fill="#353252"/>
          <path id="Path_6834" data-name="Path 6834" d="M74.143,62.337v2L75,63.845v.237l-1.079.622V62.466Z" transform="translate(-69.513 -47.17)" fill="#353252"/>
          <path id="Path_6835" data-name="Path 6835" d="M76.878,62.042a2.194,2.194,0,0,1-1.022,1.719c-.571.329-1.023.092-1.023-.538a2.186,2.186,0,0,1,1.023-1.716C76.424,61.178,76.878,61.413,76.878,62.042Zm-1.819,1.049c0,.5.363.687.8.437a1.735,1.735,0,0,0,.794-1.354c0-.494-.357-.682-.794-.43A1.735,1.735,0,0,0,75.059,63.091Z" transform="translate(-69.175 -47.531)" fill="#353252"/>
          <path id="Path_6836" data-name="Path 6836" d="M77.894,62.529l-.409-.478c-.038.025-.079.052-.125.078l-.518.3v.709l-.223.13V61.03l.741-.429c.488-.281.768-.17.768.307a1.343,1.343,0,0,1-.44.978l.46.5Zm-.534-.637a.988.988,0,0,0,.555-.855c0-.342-.2-.405-.555-.2l-.518.3v1.056Z" transform="translate(-68.515 -47.867)" fill="#353252"/>
          <path id="Path_6837" data-name="Path 6837" d="M79.317,59.722a.721.721,0,0,0-.416.546c0,.581,1.1-.356,1.1.457a1.294,1.294,0,0,1-.707,1.017.8.8,0,0,1-.746.089l.1-.278a.691.691,0,0,0,.648-.06.8.8,0,0,0,.457-.613c0-.6-1.1.352-1.1-.451a1.229,1.229,0,0,1,.677-.967.958.958,0,0,1,.618-.148l-.1.282A.85.85,0,0,0,79.317,59.722Z" transform="translate(-67.803 -48.289)" fill="#353252"/>
          <path id="Path_6838" data-name="Path 6838" d="M80.158,58.864V61.1l-.223.13V58.993Z" transform="translate(-67.29 -48.453)" fill="#353252"/>
          <path id="Path_6839" data-name="Path 6839" d="M81.832,58.1v.236l-.638.368v2l-.223.129v-2l-.637.367V58.96Z" transform="translate(-67.142 -48.736)" fill="#353252"/>
          <path id="Path_6840" data-name="Path 6840" d="M83.579,58.691l-1.061.614L82.3,60l-.237.136.875-2.742.23-.134L84.04,59l-.242.14Zm-.089-.185-.442-.894-.44,1.4Z" transform="translate(-66.504 -49.044)" fill="#353252"/>
          <path id="Path_6841" data-name="Path 6841" d="M84,56.917l.713,1.212.711-2.034.273-.159v2.238l-.205.119,0-1.858-.711,2.034-.134.078-.708-1.216v1.861l-.211.122V57.075Z" transform="translate(-65.889 -49.534)" fill="#353252"/>
          <path id="Path_6842" data-name="Path 6842" d="M86.921,55.131v.234l-1.1.635v.752l.983-.567v.234l-.983.567v.779l1.135-.656v.237l-1.36.786V55.9Z" transform="translate(-65.198 -49.832)" fill="#353252"/>
          <path id="Path_6843" data-name="Path 6843" d="M88.223,54.407v.234l-.64.368v2l-.223.13v-2l-.635.367v-.236Z" transform="translate(-64.781 -50.099)" fill="#353252"/>
          <path id="Path_6844" data-name="Path 6844" d="M88.1,55.85a.3.3,0,0,1-.133.24c-.078.045-.137.01-.137-.085a.3.3,0,0,1,.137-.241C88.038,55.72,88.1,55.757,88.1,55.85Z" transform="translate(-64.375 -49.605)" fill="#353252"/>
          <path id="Path_6845" data-name="Path 6845" d="M89.9,53.916c0-.22-.156-.262-.412-.114a1.8,1.8,0,0,0-.555.6l-.1-.14a2.188,2.188,0,0,1,.679-.7c.371-.214.618-.141.618.194a2.347,2.347,0,0,1-.362.934l-.633,1.1,1.111-.641v.237l-1.394.8v-.207l.764-1.349A1.859,1.859,0,0,0,89.9,53.916Z" transform="translate(-64.002 -50.458)" fill="#353252"/>
          <path id="Path_6846" data-name="Path 6846" d="M91.534,53.52a1.687,1.687,0,0,1-.722,1.546c-.466.268-.726.015-.726-.711a1.684,1.684,0,0,1,.726-1.545C91.274,52.544,91.534,52.8,91.534,53.52Zm-1.226.707c0,.609.171.822.5.63a1.292,1.292,0,0,0,.5-1.208c0-.611-.173-.815-.5-.627A1.278,1.278,0,0,0,90.309,54.227Z" transform="translate(-63.539 -50.727)" fill="#353252"/>
          <path id="Path_6847" data-name="Path 6847" d="M92.042,53.024c.431-.251.708-.134.708.251a1.39,1.39,0,0,1-.726,1.156,1.1,1.1,0,0,1-.69.156l.092-.26A.841.841,0,0,0,92,54.214a.953.953,0,0,0,.514-.789c0-.268-.2-.327-.507-.148a4.4,4.4,0,0,0-.534.367V52.5l1.193-.689v.237l-.983.568v.645A3.489,3.489,0,0,1,92.042,53.024Z" transform="translate(-63.079 -51.058)" fill="#353252"/>
          <path id="Path_6848" data-name="Path 6848" d="M94.039,52.074a1.682,1.682,0,0,1-.723,1.545c-.464.27-.724.016-.724-.709a1.685,1.685,0,0,1,.724-1.545C93.779,51.1,94.039,51.351,94.039,52.074Zm-1.224.707c0,.609.17.822.5.63a1.291,1.291,0,0,0,.5-1.208c0-.611-.173-.815-.5-.627A1.28,1.28,0,0,0,92.815,52.781Z" transform="translate(-62.614 -51.261)" fill="#353252"/>
        </g>
        <path id="Path_6849" data-name="Path 6849" d="M105,61.916l-7.433,4.292c-1.784,1.03-3.244-.074-3.244-2.451h0a7.8,7.8,0,0,1,3.244-6.2L105,53.267c1.783-1.03,3.243.074,3.243,2.453h0A7.8,7.8,0,0,1,105,61.916Z" transform="translate(-29.402 -10.091)" fill="#6ab000"/>
        <path id="Path_6850" data-name="Path 6850" d="M108.243,55.168c0,1.463-3.115,4.448-6.959,6.668s-6.961,2.832-6.961,1.369,3.117-4.449,6.961-6.668S108.243,53.706,108.243,55.168Z" transform="translate(-29.402 -9.54)" fill="#6ace00"/>
        <ellipse id="Ellipse_43" data-name="Ellipse 43" cx="5.544" cy="3.201" rx="5.544" ry="3.201" transform="translate(66.321 52.818) rotate(-59.69)" fill="#98ea00"/>
        <g id="Group_2952" data-name="Group 2952" transform="translate(7.161 38.286)">
          <path id="Path_6851" data-name="Path 6851" d="M65.193,49.592v8.14L52.144,65.265v-8.14Z" transform="translate(-52.144 -49.592)" fill="#0e6aa1"/>
        </g>
      </g>
      <g id="Group_2954" data-name="Group 2954" transform="translate(67.123 21.982)">
        <path id="Path_6852" data-name="Path 6852" d="M105.449,37.686v5.937l-9.518,5.5V43.181Z" transform="translate(-95.931 -37.686)" fill="#d19a19"/>
        <path id="Path_6853" data-name="Path 6853" d="M105.449,39.539V40.4l-9.518,5.5v-.863Z" transform="translate(-95.931 -37.002)" fill="#cec7de"/>
        <path id="Path_6854" data-name="Path 6854" d="M102.249,41.343A4.931,4.931,0,0,1,100.01,45.2c-1.237.715-2.239.142-2.239-1.276a4.935,4.935,0,0,1,2.239-3.862C101.247,39.353,102.249,39.924,102.249,41.343Z" transform="translate(-95.251 -36.92)" fill="#cec7de"/>
        <path id="Path_6855" data-name="Path 6855" d="M101.494,41.481a3.627,3.627,0,0,1-1.645,2.837c-.908.524-1.645.1-1.645-.938a3.627,3.627,0,0,1,1.645-2.837C100.758,40.018,101.494,40.439,101.494,41.481Z" transform="translate(-95.091 -36.714)" fill="#d19a19"/>
      </g>
    </g>
  </g>
</svg>
