<svg xmlns="http://www.w3.org/2000/svg" xmlns:xlink="http://www.w3.org/1999/xlink" width="144" height="111" viewBox="0 0 144 111">
  <defs>
    <clipPath id="clip-path">
      <rect id="Rectangle_646" data-name="Rectangle 646" width="144" height="111" transform="translate(605 1149)" fill="#fff" stroke="#707070" stroke-width="1"/>
    </clipPath>
    <linearGradient id="linear-gradient" x1="21.37" y1="0.5" x2="20.37" y2="0.5" gradientUnits="objectBoundingBox">
      <stop offset="0" stop-color="#0063ad"/>
      <stop offset="1" stop-color="#2573ba"/>
    </linearGradient>
    <linearGradient id="linear-gradient-2" x1="-23.555" y1="-37.861" x2="-22.47" y2="-37.861" gradientUnits="objectBoundingBox">
      <stop offset="0.161" stop-color="#3d3d3d"/>
      <stop offset="0.163" stop-color="#5e5e5e"/>
      <stop offset="0.559" stop-color="#5e5e5e"/>
      <stop offset="0.562" stop-color="#7a7a7a"/>
      <stop offset="0.873" stop-color="#7a7a7a"/>
      <stop offset="0.874" stop-color="#7a7a7a"/>
    </linearGradient>
    <linearGradient id="linear-gradient-3" x1="-23.644" y1="-37.813" x2="-22.559" y2="-37.813" xlink:href="#linear-gradient-2"/>
    <linearGradient id="linear-gradient-4" x1="0.301" y1="1.087" x2="0.73" y2="0.086" gradientUnits="objectBoundingBox">
      <stop offset="0" stop-color="#334054"/>
      <stop offset="0.663" stop-color="#758491"/>
      <stop offset="1" stop-color="#93a3ad"/>
    </linearGradient>
  </defs>
  <g id="mot-safetyandsecurity-icon" transform="translate(-605 -1149)" clip-path="url(#clip-path)">
    <g id="Group_4306" data-name="Group 4306" transform="translate(623 1152)">
      <path id="Path_10305" data-name="Path 10305" d="M255.549,367.886c-.272-.365-2.59-2.68-3.027-3.074-3.317-2.991-4.079-2.439-8.085-4.555l9.267-25.393-2.873-1.77-13.887,14.119-7.764,5.194c-5.429-2.69-11.568-5.7-16.875-8.284L213.6,332.9l-1.351-.832-4.263,4.292-3.753,2.51,7.783,5.106c-7.233-3.527-12.847-6.241-12.847-6.241s-1.426-.824-1.666.954c-.225,1.668.375,1.228,2.033,2.694l-4.636,2.277-5.417,1.67,2.2.667,12.149-.162A52.675,52.675,0,0,0,211.317,352c1.582,1.027,4.715,2.948,8.387,5.15l-12.514,6.145-20.47,6.094,4.68,1.419,42.6-5.283c.477.271.942.535,1.389.787,7.724,4.348,11.44,5.936,15.083,6.813s9.015,2.84,7.96-1.01C258.427,372.114,257.374,370.336,255.549,367.886Z" transform="translate(-151.683 -269.778)" fill="#b1bec2" style="mix-blend-mode: multiply;isolation: isolate"/>
      <g id="Group_2959" data-name="Group 2959">
        <g id="Group_2957" data-name="Group 2957" transform="translate(0 0)">
          <g id="Group_2956" data-name="Group 2956">
            <path id="Path_6856" data-name="Path 6856" d="M344.386,139.959l31.447-33.768,31.448-2.544s5.054,42.63-31.448,87.847C339.332,188.425,344.386,139.959,344.386,139.959Z" transform="translate(-344.149 -103.646)" fill="#193b6a"/>
            <path id="Path_6857" data-name="Path 6857" d="M365,103.646l7.076,4.085-31.447,2.544-7.076-4.085Z" transform="translate(-301.868 -103.646)" fill="url(#linear-gradient)"/>
            <path id="Path_6858" data-name="Path 6858" d="M333.422,146.289l31.447-33.768,12.931-1.307,18.516-1.238s5.054,42.631-31.447,87.847C328.368,194.755,333.422,146.289,333.422,146.289Z" transform="translate(-326.109 -105.891)" fill="#20b3af" opacity="0.68"/>
            <path id="Path_6859" data-name="Path 6859" d="M335.1,146.007l31.447-33.768,31.447-2.544-.889-.513-31.866,2.578L333.79,145.527s-4.219,40.515,22.963,49.8C331.015,185.21,335.1,146.007,335.1,146.007Z" transform="translate(-327.784 -105.609)" fill="#fff"/>
          </g>
          <path id="Path_6860" data-name="Path 6860" d="M337.355,149.115l28.274-30.36,11.625-1.175,16.648-1.113s4.544,38.329-28.273,78.982C332.81,192.69,337.355,149.115,337.355,149.115Z" transform="translate(-326.223 -108.194)" fill="#20b3af"/>
        </g>
        <g id="Group_2958" data-name="Group 2958" transform="translate(55.402 16.642)">
          <rect id="Rectangle_636" data-name="Rectangle 636" width="1.572" height="1.572" transform="translate(6.24 3.127) rotate(135)" fill="#fff"/>
          <rect id="Rectangle_637" data-name="Rectangle 637" width="1.572" height="1.572" transform="translate(2.224 3.113) rotate(134.998)" fill="#fff"/>
          <rect id="Rectangle_638" data-name="Rectangle 638" width="1.572" height="1.572" transform="translate(4.225 1.112) rotate(135)" fill="#fff"/>
          <rect id="Rectangle_639" data-name="Rectangle 639" width="1.572" height="1.572" transform="translate(4.239 5.128) rotate(135)" fill="#fff"/>
        </g>
      </g>
      <g id="Group_3004" data-name="Group 3004" transform="translate(33.371 46.041)">
        <g id="Group_3003" data-name="Group 3003" transform="translate(0 0)">
          <g id="Group_2971" data-name="Group 2971" transform="translate(15.995 19.883)">
            <g id="Group_2962" data-name="Group 2962" transform="translate(10.329 23.665)">
              <g id="Group_2960" data-name="Group 2960" transform="translate(0.981 4.11)">
                <path id="Path_6862" data-name="Path 6862" d="M236.754,391.04c-.434-.249-.721.072-.721.505s.47.891.9,1.14.6.027.6-.406A1.633,1.633,0,0,0,236.754,391.04Z" transform="translate(-235.498 -390.952)" fill="#010007" fill-rule="evenodd"/>
                <path id="Path_6863" data-name="Path 6863" d="M235.422,391.415l.525-.313-.053.338Z" transform="translate(-235.214 -391.021)" fill="#010007" fill-rule="evenodd"/>
                <path id="Path_6864" data-name="Path 6864" d="M237.635,394.285l.494-.3-.43-.387-.041.489Z" transform="translate(-236.241 -392.178)" fill="#010007" fill-rule="evenodd"/>
                <path id="Path_6865" data-name="Path 6865" d="M235.821,391.728c-.433-.249-.787-.1-.787.334a1.632,1.632,0,0,0,.787,1.24c.433.249.787.1.787-.334A1.634,1.634,0,0,0,235.821,391.728Z" transform="translate(-235.034 -391.256)" fill="#2e2d30" fill-rule="evenodd"/>
                <path id="Path_6866" data-name="Path 6866" d="M235.887,391.88c-.391-.226-.711-.09-.711.3a1.475,1.475,0,0,0,.711,1.119c.391.225.711.09.711-.3A1.473,1.473,0,0,0,235.887,391.88Z" transform="translate(-235.1 -391.332)" fill="#1b1b1f" fill-rule="evenodd"/>
                <path id="Path_6867" data-name="Path 6867" d="M236.049,392.257c-.288-.166-.522-.066-.522.221a1.084,1.084,0,0,0,.522.823c.288.166.523.066.523-.222A1.083,1.083,0,0,0,236.049,392.257Z" transform="translate(-235.263 -391.52)" fill="#3b3b3b" fill-rule="evenodd"/>
                <path id="Path_6868" data-name="Path 6868" d="M236.143,392.336c-.254-.146-.461-.058-.461.2a.957.957,0,0,0,.461.727c.253.146.461.058.461-.2A.958.958,0,0,0,236.143,392.336Z" transform="translate(-235.335 -391.562)" fill="#cecece" fill-rule="evenodd"/>
                <path id="Path_6869" data-name="Path 6869" d="M236.585,393.02a.82.82,0,0,0-.386-.55c-.006,0-.009-.006-.014-.006-.211-.115-.38-.038-.38.173a.825.825,0,0,0,.395.622c.219.124.395.049.395-.167A.3.3,0,0,0,236.585,393.02Z" transform="translate(-235.391 -391.629)" fill="#7c7774" fill-rule="evenodd"/>
                <path id="Path_6870" data-name="Path 6870" d="M236.416,392.516c-.006,0-.009-.006-.014-.006-.078,0-.13.055-.13.155a.564.564,0,0,0,.277.432c.118.069.219.052.253-.032A.82.82,0,0,0,236.416,392.516Z" transform="translate(-235.609 -391.675)" fill="#cecece" fill-rule="evenodd"/>
              </g>
              <path id="Path_6871" data-name="Path 6871" d="M235.82,383.286v5.292c0,.066.1.118.212.117s.211-.055.21-.121v-5.291Z" transform="translate(-234.418 -383.283)" fill="url(#linear-gradient-2)"/>
              <g id="Group_2961" data-name="Group 2961" transform="translate(0 4.705)">
                <path id="Path_6872" data-name="Path 6872" d="M234.922,392.15c-.433-.25-.721.072-.721.505s.47.891.9,1.14.6.027.6-.406A1.631,1.631,0,0,0,234.922,392.15Z" transform="translate(-233.666 -392.063)" fill="#010007" fill-rule="evenodd"/>
                <path id="Path_6873" data-name="Path 6873" d="M233.591,392.525l.525-.313-.053.338Z" transform="translate(-233.383 -392.132)" fill="#010007" fill-rule="evenodd"/>
                <path id="Path_6874" data-name="Path 6874" d="M235.8,395.4l.494-.3-.43-.387-.041.489Z" transform="translate(-234.41 -393.289)" fill="#010007" fill-rule="evenodd"/>
                <path id="Path_6875" data-name="Path 6875" d="M233.989,392.839c-.433-.249-.786-.1-.786.334a1.633,1.633,0,0,0,.786,1.24c.434.249.787.1.787-.334A1.633,1.633,0,0,0,233.989,392.839Z" transform="translate(-233.203 -392.367)" fill="#2e2d30" fill-rule="evenodd"/>
                <path id="Path_6876" data-name="Path 6876" d="M234.055,392.992c-.391-.226-.71-.09-.71.3a1.475,1.475,0,0,0,.71,1.12c.391.225.711.089.711-.3A1.474,1.474,0,0,0,234.055,392.992Z" transform="translate(-233.269 -392.443)" fill="#1b1b1f" fill-rule="evenodd"/>
                <path id="Path_6877" data-name="Path 6877" d="M234.218,393.367c-.287-.166-.522-.066-.522.221a1.084,1.084,0,0,0,.522.823c.288.166.522.066.522-.222A1.082,1.082,0,0,0,234.218,393.367Z" transform="translate(-233.432 -392.631)" fill="#3b3b3b" fill-rule="evenodd"/>
                <path id="Path_6878" data-name="Path 6878" d="M234.312,393.447c-.254-.146-.461-.058-.461.2a.955.955,0,0,0,.461.726c.254.146.461.058.461-.2A.956.956,0,0,0,234.312,393.447Z" transform="translate(-233.504 -392.672)" fill="#cecece" fill-rule="evenodd"/>
                <path id="Path_6879" data-name="Path 6879" d="M234.754,394.131a.822.822,0,0,0-.386-.55.026.026,0,0,0-.014-.006c-.21-.115-.38-.037-.38.173a.824.824,0,0,0,.394.623c.219.124.395.049.395-.167A.3.3,0,0,0,234.754,394.131Z" transform="translate(-233.56 -392.74)" fill="#7c7774" fill-rule="evenodd"/>
                <path id="Path_6880" data-name="Path 6880" d="M234.585,393.627a.026.026,0,0,0-.014-.006c-.078,0-.129.055-.129.155a.565.565,0,0,0,.277.432c.118.069.219.051.253-.032A.822.822,0,0,0,234.585,393.627Z" transform="translate(-233.778 -392.786)" fill="#cecece" fill-rule="evenodd"/>
              </g>
            </g>
            <g id="Group_2964" data-name="Group 2964" transform="translate(37.077 8.523)">
              <path id="Path_6881" data-name="Path 6881" d="M290.97,357.627l-2.557,4.417-1.227-.681a.375.375,0,0,1-.04-.024l-.7-.388-1.29-.72-.024-.016-.032-.016c-.76-.42-1.678-1.227-1.695-1.781v-.151a3.962,3.962,0,0,1,1.544-2.842,2.43,2.43,0,0,1,.229-.151,1.365,1.365,0,0,1,1.314-.135v-.008l.19.111c.008,0,.008.008.016.008l2.961,1.646Z" transform="translate(-283.249 -355.028)" fill="#a4cbeb"/>
              <path id="Path_6882" data-name="Path 6882" d="M289.523,357.039a1.911,1.911,0,0,0-.665.206,2.29,2.29,0,0,0-.594.578,5.944,5.944,0,0,0-.775,1.512,5.643,5.643,0,0,0-.245.736,6.032,6.032,0,0,1-.159.752c-.016.063-.008.633-.032.681a.372.372,0,0,1-.04-.024c-.126-.063-.562-.285-.673-.317-.04-.016-.048-.039-.032-.071.016-.095.174-.237.071-.293-.309-.174-.618-.348-.934-.522s-.617-.34-.927-.514a3.636,3.636,0,0,1-1.147-1.156,1.527,1.527,0,0,1-.1-.2,1.175,1.175,0,0,1-.135-.76,3.133,3.133,0,0,1,.475-1,3.7,3.7,0,0,1,.681-.768,2.447,2.447,0,0,1,.522-.317,2.941,2.941,0,0,1,1.734-.182c.008,0,.008.008.016.008Z" transform="translate(-283.116 -355.168)" fill="#7290db"/>
              <path id="Path_6883" data-name="Path 6883" d="M293.4,358.825l-1.985-1.1,0,0a1.351,1.351,0,0,0-1.309.141,3.569,3.569,0,0,0-1.436,3.1,2.1,2.1,0,0,0,1.358,1.82v0l.027.016a.132.132,0,0,0,.024.013l.771.429Z" transform="translate(-285.693 -356.228)" fill="#ffd800" style="mix-blend-mode: color;isolation: isolate"/>
              <path id="Path_6884" data-name="Path 6884" d="M295.358,360.91a3.852,3.852,0,0,1-1.774,3.14c-1.017.584-1.869.124-1.9-1.028a3.856,3.856,0,0,1,1.775-3.14C294.472,359.3,295.325,359.759,295.358,360.91Z" transform="translate(-287.09 -357.163)" fill="#fbfbfb"/>
              <path id="Path_6885" data-name="Path 6885" d="M295.349,361.029a3.7,3.7,0,0,1-1.707,3.019c-.976.561-1.8.12-1.83-.988a3.709,3.709,0,0,1,1.706-3.019C294.5,359.48,295.315,359.924,295.349,361.029Z" transform="translate(-287.152 -357.242)" fill="#f7f7f7"/>
              <g id="Group_2963" data-name="Group 2963" transform="translate(5.056 3.083)">
                <path id="Path_6886" data-name="Path 6886" d="M295.3,361.737a2.878,2.878,0,0,1-1.325,2.342c-.758.436-1.393.092-1.421-.766a2.884,2.884,0,0,1,1.326-2.344C294.635,360.534,295.272,360.877,295.3,361.737Z" transform="translate(-292.551 -360.78)" fill="#def7ff"/>
                <path id="Path_6887" data-name="Path 6887" d="M295.286,361.893a2.679,2.679,0,0,1-1.235,2.184c-.706.406-1.3.086-1.324-.714a2.682,2.682,0,0,1,1.235-2.184C294.668,360.773,295.262,361.091,295.286,361.893Z" transform="translate(-292.632 -360.883)" fill="#071c26"/>
                <path id="Path_6888" data-name="Path 6888" d="M293.946,361.349a2.687,2.687,0,0,0-1.219,2.174,1.313,1.313,0,0,0,.045.31l.967.538a1.41,1.41,0,0,0,.312-.134,2.691,2.691,0,0,0,1.235-2.143Z" transform="translate(-292.632 -361.044)" fill="#56757e"/>
                <path id="Path_6889" data-name="Path 6889" d="M293.284,362.562a2.8,2.8,0,0,0-.493,1.118l1.605.892a2.818,2.818,0,0,0,.714-1Z" transform="translate(-292.662 -361.607)" fill="#e2ff9b"/>
                <path id="Path_6890" data-name="Path 6890" d="M293.284,362.562a2.8,2.8,0,0,0-.493,1.118l1.605.892a2.818,2.818,0,0,0,.714-1Z" transform="translate(-292.662 -361.607)" fill="#8da9b1"/>
                <path id="Path_6891" data-name="Path 6891" d="M294.961,362.024a2.135,2.135,0,0,1-.981,1.737c-.563.322-1.033.068-1.054-.569a2.132,2.132,0,0,1,.982-1.736C294.47,361.134,294.942,361.389,294.961,362.024Z" transform="translate(-292.725 -361.03)" fill="#56757e"/>
                <path id="Path_6892" data-name="Path 6892" d="M294.874,362.192a1.824,1.824,0,0,1-.842,1.488c-.482.278-.886.06-.9-.486a1.828,1.828,0,0,1,.842-1.49C294.454,361.428,294.858,361.646,294.874,362.192Z" transform="translate(-292.819 -361.154)" fill="#071c26"/>
                <path id="Path_6893" data-name="Path 6893" d="M295.076,363.687a.434.434,0,0,1-.2.354c-.115.066-.212.014-.215-.116a.439.439,0,0,1,.2-.354C294.976,363.505,295.073,363.557,295.076,363.687Z" transform="translate(-293.53 -362.062)" fill="#56757e"/>
              </g>
            </g>
            <g id="Group_2966" data-name="Group 2966" transform="translate(42.135)">
              <path id="Path_6894" data-name="Path 6894" d="M297.57,346.144l2.554-4.421-4.482-2.492,0,0a1.354,1.354,0,0,0-1.311.14,3.852,3.852,0,0,0-1.774,3.14c.016.553.937,1.358,1.7,1.778l0,0,.028.016a.172.172,0,0,0,.024.013Z" transform="translate(-292.554 -339.124)" fill="#a4cbeb"/>
              <path id="Path_6895" data-name="Path 6895" d="M294.54,342.325a2.768,2.768,0,0,1,.614-.81,2.923,2.923,0,0,1,.912-.656,3.3,3.3,0,0,1,.9-.173c.228-.028.423-.218.661-.155.122.032.794.3.705.458-.021.039-.28.1-.335.134a1.769,1.769,0,0,0-.385.35,4.217,4.217,0,0,0-.9,1.812,4.972,4.972,0,0,0-.174,1.148,4.006,4.006,0,0,0,.017,1.347,2.244,2.244,0,0,0-.561-.33c-.163-.068-.641-.292-.816-.334-.362-.089-.19-.3-.432-.6A2.29,2.29,0,0,1,294.54,342.325Z" transform="translate(-293.388 -339.771)" fill="#7290db"/>
              <path id="Path_6896" data-name="Path 6896" d="M302.8,342.983l-1.985-1.1,0,0a1.351,1.351,0,0,0-1.309.14,3.571,3.571,0,0,0-1.436,3.1,2.1,2.1,0,0,0,1.358,1.82v0l.028.016a.18.18,0,0,0,.024.013l.77.429Z" transform="translate(-295.113 -340.353)" fill="#fff" style="mix-blend-mode: color;isolation: isolate"/>
              <path id="Path_6897" data-name="Path 6897" d="M304.515,345.006a3.858,3.858,0,0,1-1.775,3.14c-1.017.583-1.868.123-1.9-1.028a3.857,3.857,0,0,1,1.775-3.14C303.628,343.4,304.48,343.854,304.515,345.006Z" transform="translate(-296.397 -341.259)" fill="#fbfbfb"/>
              <path id="Path_6898" data-name="Path 6898" d="M304.505,345.124a3.709,3.709,0,0,1-1.707,3.019c-.976.561-1.8.118-1.83-.988a3.7,3.7,0,0,1,1.707-3.019C303.652,343.575,304.472,344.017,304.505,345.124Z" transform="translate(-296.459 -341.337)" fill="#f7f7f7"/>
              <g id="Group_2965" data-name="Group 2965" transform="translate(4.905 3.083)">
                <path id="Path_6899" data-name="Path 6899" d="M304.454,345.832a2.878,2.878,0,0,1-1.325,2.344c-.758.435-1.395.092-1.421-.766a2.878,2.878,0,0,1,1.325-2.344C303.792,344.631,304.427,344.974,304.454,345.832Z" transform="translate(-301.708 -344.877)" fill="#def7ff"/>
                <path id="Path_6900" data-name="Path 6900" d="M304.442,345.987a2.682,2.682,0,0,1-1.235,2.185c-.706.406-1.3.086-1.324-.714a2.68,2.68,0,0,1,1.235-2.185C303.824,344.867,304.417,345.187,304.442,345.987Z" transform="translate(-301.789 -344.979)" fill="#071c26"/>
                <path id="Path_6901" data-name="Path 6901" d="M303.1,345.446a2.68,2.68,0,0,0-1.219,2.174,1.4,1.4,0,0,0,.043.31l.968.536a1.45,1.45,0,0,0,.312-.132,2.692,2.692,0,0,0,1.235-2.143Z" transform="translate(-301.789 -345.141)" fill="#56757e"/>
                <path id="Path_6902" data-name="Path 6902" d="M302.438,346.656a2.83,2.83,0,0,0-.491,1.12l1.6.892a2.838,2.838,0,0,0,.716-1Z" transform="translate(-301.819 -345.703)" fill="#e2ff9b"/>
                <path id="Path_6903" data-name="Path 6903" d="M302.438,346.656a2.83,2.83,0,0,0-.491,1.12l1.6.892a2.838,2.838,0,0,0,.716-1Z" transform="translate(-301.819 -345.703)" fill="#8da9b1"/>
                <path id="Path_6904" data-name="Path 6904" d="M304.117,346.121a2.128,2.128,0,0,1-.983,1.736c-.561.323-1.033.07-1.052-.568a2.134,2.134,0,0,1,.983-1.737C303.626,345.23,304.1,345.484,304.117,346.121Z" transform="translate(-301.881 -345.126)" fill="#56757e"/>
                <path id="Path_6905" data-name="Path 6905" d="M304.03,346.287a1.829,1.829,0,0,1-.842,1.49c-.482.277-.887.059-.9-.488a1.832,1.832,0,0,1,.842-1.489C303.608,345.525,304.012,345.743,304.03,346.287Z" transform="translate(-301.975 -345.25)" fill="#071c26"/>
                <path id="Path_6906" data-name="Path 6906" d="M304.232,347.782a.437.437,0,0,1-.2.356c-.115.064-.212.013-.215-.116a.434.434,0,0,1,.2-.356A.131.131,0,0,1,304.232,347.782Z" transform="translate(-302.686 -346.158)" fill="#f7f7f7"/>
              </g>
            </g>
            <g id="Group_2968" data-name="Group 2968" transform="translate(0 24.312)">
              <path id="Path_6907" data-name="Path 6907" d="M218.96,391.51l2.554-4.42-4.482-2.492,0,0a1.352,1.352,0,0,0-1.31.141,3.855,3.855,0,0,0-1.776,3.14c.018.553.939,1.357,1.7,1.778v0l.027.016a.179.179,0,0,0,.024.013Z" transform="translate(-213.935 -384.49)" fill="#327dba"/>
              <path id="Path_6908" data-name="Path 6908" d="M221.03,387.453l-.06-.034a1.656,1.656,0,0,0-1.35-.087c-.611.213-1.734.633-2.368.821a5.364,5.364,0,0,1-3.234-.188c-.606-.856,2.019-3.287,2.019-3.287a2.145,2.145,0,0,0-.325.152,3.653,3.653,0,0,0-1.317,1.421,3.5,3.5,0,0,0-.459,1.72c.006.212.552.742,1.254,1.2l3.391,1.886a2.208,2.208,0,0,0,.495-.212,3.216,3.216,0,0,0,.54-.4l1.342-2.323A3.179,3.179,0,0,0,221.03,387.453Z" transform="translate(-213.928 -384.577)" fill="#3aa3ba"/>
              <path id="Path_6909" data-name="Path 6909" d="M223.972,388.292l-1.985-1.1,0,0a1.352,1.352,0,0,0-1.309.141,3.569,3.569,0,0,0-1.435,3.1,2.1,2.1,0,0,0,1.358,1.82v0l.027.017a.178.178,0,0,0,.024.013l.771.429Z" transform="translate(-216.393 -385.693)" fill="#bfbfbf"/>
              <path id="Path_6910" data-name="Path 6910" d="M225.905,390.373a3.853,3.853,0,0,1-1.776,3.14c-1.015.584-1.868.123-1.9-1.028a3.855,3.855,0,0,1,1.776-3.14C225.018,388.761,225.87,389.22,225.905,390.373Z" transform="translate(-217.778 -386.626)" fill="#fbfbfb"/>
              <path id="Path_6911" data-name="Path 6911" d="M225.9,390.491a3.711,3.711,0,0,1-1.707,3.019c-.978.561-1.8.118-1.831-.987a3.706,3.706,0,0,1,1.706-3.019C225.042,388.943,225.862,389.385,225.9,390.491Z" transform="translate(-217.84 -386.704)" fill="#f7f7f7"/>
              <g id="Group_2967" data-name="Group 2967" transform="translate(4.915 3.083)">
                <path id="Path_6912" data-name="Path 6912" d="M225.845,391.2a2.872,2.872,0,0,1-1.324,2.343c-.758.435-1.395.092-1.421-.766a2.879,2.879,0,0,1,1.324-2.343C225.183,390,225.819,390.34,225.845,391.2Z" transform="translate(-223.099 -390.243)" fill="#def7ff"/>
                <path id="Path_6913" data-name="Path 6913" d="M225.832,391.354a2.684,2.684,0,0,1-1.235,2.185c-.706.406-1.3.086-1.326-.714a2.682,2.682,0,0,1,1.237-2.185C225.215,390.233,225.806,390.554,225.832,391.354Z" transform="translate(-223.179 -390.345)" fill="#071c26"/>
                <path id="Path_6914" data-name="Path 6914" d="M224.491,390.812a2.685,2.685,0,0,0-1.219,2.174,1.537,1.537,0,0,0,.046.31l.968.536a1.438,1.438,0,0,0,.312-.132,2.687,2.687,0,0,0,1.233-2.143Z" transform="translate(-223.179 -390.507)" fill="#56757e"/>
                <path id="Path_6915" data-name="Path 6915" d="M223.83,392.022a2.807,2.807,0,0,0-.491,1.12l1.6.892a2.841,2.841,0,0,0,.716-1Z" transform="translate(-223.211 -391.069)" fill="#e2ff9b"/>
                <path id="Path_6916" data-name="Path 6916" d="M223.83,392.022a2.807,2.807,0,0,0-.491,1.12l1.6.892a2.841,2.841,0,0,0,.716-1Z" transform="translate(-223.211 -391.069)" fill="#8da9b1"/>
                <path id="Path_6917" data-name="Path 6917" d="M225.509,391.487a2.129,2.129,0,0,1-.983,1.736c-.561.323-1.033.069-1.052-.568a2.132,2.132,0,0,1,.981-1.736C225.018,390.6,225.489,390.851,225.509,391.487Z" transform="translate(-223.273 -390.492)" fill="#56757e"/>
                <path id="Path_6918" data-name="Path 6918" d="M225.422,391.654a1.831,1.831,0,0,1-.842,1.49c-.483.276-.887.058-.9-.488a1.825,1.825,0,0,1,.842-1.489C225,390.891,225.4,391.109,225.422,391.654Z" transform="translate(-223.367 -390.616)" fill="#071c26"/>
                <path id="Path_6919" data-name="Path 6919" d="M225.623,393.148a.438.438,0,0,1-.2.355c-.115.065-.212.013-.216-.116a.441.441,0,0,1,.2-.356C225.523,392.966,225.618,393.019,225.623,393.148Z" transform="translate(-224.077 -391.524)" fill="#f7f7f7"/>
              </g>
            </g>
            <g id="Group_2970" data-name="Group 2970" transform="translate(14.945 21.48)">
              <path id="Path_6920" data-name="Path 6920" d="M246.834,386.224l2.554-4.42-4.484-2.491,0,0a1.359,1.359,0,0,0-1.309.141,3.853,3.853,0,0,0-1.776,3.141c.018.551.939,1.358,1.7,1.778v0l.027.016a.1.1,0,0,1,.022.013Z" transform="translate(-241.816 -379.205)" fill="#327dba"/>
              <path id="Path_6921" data-name="Path 6921" d="M248.911,382.168l-.062-.034a1.639,1.639,0,0,0-1.348-.087c-.611.213-1.734.632-2.369.819a5.3,5.3,0,0,1-3.213-.187c-.606-.855,2-3.288,2-3.288a2.18,2.18,0,0,0-.325.152,3.666,3.666,0,0,0-1.317,1.421,3.481,3.481,0,0,0-.459,1.721c.006.212.551.741,1.254,1.2l3.391,1.886a2.192,2.192,0,0,0,.495-.212,3.075,3.075,0,0,0,.538-.4l1.341-2.323A3.136,3.136,0,0,0,248.911,382.168Z" transform="translate(-241.816 -379.291)" fill="#3aa3ba"/>
              <path id="Path_6922" data-name="Path 6922" d="M251.866,383.039l-1.985-1.1,0,0a1.35,1.35,0,0,0-1.309.14,3.571,3.571,0,0,0-1.436,3.1,2.1,2.1,0,0,0,1.358,1.82v0l.028.016a.168.168,0,0,0,.024.013l.77.429Z" transform="translate(-244.283 -380.422)" fill="#bfbfbf"/>
              <path id="Path_6923" data-name="Path 6923" d="M253.779,385.086a3.855,3.855,0,0,1-1.776,3.14c-1.017.584-1.869.124-1.9-1.028a3.854,3.854,0,0,1,1.776-3.14C252.89,383.474,253.744,383.935,253.779,385.086Z" transform="translate(-245.659 -381.34)" fill="#fbfbfb"/>
              <path id="Path_6924" data-name="Path 6924" d="M253.769,385.2a3.706,3.706,0,0,1-1.707,3.019c-.977.561-1.8.12-1.831-.987a3.71,3.71,0,0,1,1.707-3.019C252.916,383.656,253.735,384.1,253.769,385.2Z" transform="translate(-245.721 -381.418)" fill="#f7f7f7"/>
              <g id="Group_2969" data-name="Group 2969" transform="translate(4.907 3.082)">
                <path id="Path_6925" data-name="Path 6925" d="M253.718,385.913a2.875,2.875,0,0,1-1.325,2.342c-.758.437-1.393.092-1.419-.766a2.878,2.878,0,0,1,1.324-2.344C253.055,384.71,253.692,385.053,253.718,385.913Z" transform="translate(-250.972 -384.956)" fill="#def7ff"/>
                <path id="Path_6926" data-name="Path 6926" d="M253.7,386.069a2.675,2.675,0,0,1-1.235,2.183c-.706.406-1.3.086-1.324-.714a2.683,2.683,0,0,1,1.235-2.184C253.086,384.949,253.68,385.268,253.7,386.069Z" transform="translate(-251.052 -385.059)" fill="#071c26"/>
                <path id="Path_6927" data-name="Path 6927" d="M252.364,385.526a2.688,2.688,0,0,0-1.219,2.174,1.286,1.286,0,0,0,.046.31l.966.538a1.386,1.386,0,0,0,.312-.134,2.692,2.692,0,0,0,1.235-2.143Z" transform="translate(-251.052 -385.221)" fill="#56757e"/>
                <path id="Path_6928" data-name="Path 6928" d="M251.7,386.738a2.8,2.8,0,0,0-.493,1.118l1.605.892a2.842,2.842,0,0,0,.716-1Z" transform="translate(-251.082 -385.783)" fill="#e2ff9b"/>
                <path id="Path_6929" data-name="Path 6929" d="M251.7,386.738a2.8,2.8,0,0,0-.493,1.118l1.605.892a2.842,2.842,0,0,0,.716-1Z" transform="translate(-251.082 -385.783)" fill="#8da9b1"/>
                <path id="Path_6930" data-name="Path 6930" d="M253.381,386.2a2.135,2.135,0,0,1-.981,1.737c-.563.322-1.033.068-1.052-.569a2.127,2.127,0,0,1,.981-1.736C252.891,385.311,253.361,385.566,253.381,386.2Z" transform="translate(-251.146 -385.206)" fill="#56757e"/>
                <path id="Path_6931" data-name="Path 6931" d="M253.294,386.368a1.824,1.824,0,0,1-.842,1.488c-.482.278-.885.06-.9-.486a1.823,1.823,0,0,1,.842-1.49C252.874,385.6,253.278,385.822,253.294,386.368Z" transform="translate(-251.24 -385.33)" fill="#071c26"/>
                <path id="Path_6932" data-name="Path 6932" d="M253.495,387.863a.434.434,0,0,1-.2.355c-.114.066-.21.014-.215-.116a.435.435,0,0,1,.2-.354C253.395,387.681,253.491,387.733,253.495,387.863Z" transform="translate(-251.95 -386.238)" fill="#f7f7f7"/>
              </g>
            </g>
          </g>
          <g id="Group_2978" data-name="Group 2978" transform="translate(59.914 48.692)">
            <g id="Group_2972" data-name="Group 2972" transform="translate(0.981 4.11)">
              <path id="Path_6933" data-name="Path 6933" d="M299.434,400.639c-.434-.25-.721.072-.721.505s.471.891.9,1.14.6.027.6-.406A1.631,1.631,0,0,0,299.434,400.639Z" transform="translate(-298.178 -400.552)" fill="#010007" fill-rule="evenodd"/>
              <path id="Path_6934" data-name="Path 6934" d="M298.1,401.014l.525-.313-.053.338Z" transform="translate(-297.894 -400.621)" fill="#010007" fill-rule="evenodd"/>
              <path id="Path_6935" data-name="Path 6935" d="M300.315,403.884l.494-.3-.43-.387-.041.489Z" transform="translate(-298.921 -401.777)" fill="#010007" fill-rule="evenodd"/>
              <path id="Path_6936" data-name="Path 6936" d="M298.5,401.327c-.434-.25-.787-.1-.787.334a1.631,1.631,0,0,0,.787,1.239c.433.25.787.1.787-.333A1.632,1.632,0,0,0,298.5,401.327Z" transform="translate(-297.714 -400.856)" fill="#2e2d30" fill-rule="evenodd"/>
              <path id="Path_6937" data-name="Path 6937" d="M298.567,401.48c-.391-.225-.711-.09-.711.3a1.475,1.475,0,0,0,.711,1.119c.391.225.71.09.71-.3A1.474,1.474,0,0,0,298.567,401.48Z" transform="translate(-297.78 -400.932)" fill="#1b1b1f" fill-rule="evenodd"/>
              <path id="Path_6938" data-name="Path 6938" d="M298.73,401.856c-.288-.166-.522-.066-.522.222a1.084,1.084,0,0,0,.522.823c.288.166.522.066.522-.221A1.083,1.083,0,0,0,298.73,401.856Z" transform="translate(-297.943 -401.12)" fill="#3b3b3b" fill-rule="evenodd"/>
              <path id="Path_6939" data-name="Path 6939" d="M298.823,401.935c-.254-.146-.461-.058-.461.2a.957.957,0,0,0,.461.727c.254.146.461.058.461-.2A.958.958,0,0,0,298.823,401.935Z" transform="translate(-298.015 -401.161)" fill="#cecece" fill-rule="evenodd"/>
              <path id="Path_6940" data-name="Path 6940" d="M299.265,402.619a.821.821,0,0,0-.386-.55c-.006,0-.009-.006-.014-.006-.211-.115-.38-.037-.38.173a.823.823,0,0,0,.395.622c.219.124.394.049.394-.167A.3.3,0,0,0,299.265,402.619Z" transform="translate(-298.071 -401.228)" fill="#7c7774" fill-rule="evenodd"/>
              <path id="Path_6941" data-name="Path 6941" d="M299.1,402.115c-.006,0-.009-.006-.014-.006-.078,0-.13.055-.13.156a.563.563,0,0,0,.277.432c.118.069.219.052.254-.032A.822.822,0,0,0,299.1,402.115Z" transform="translate(-298.289 -401.274)" fill="#cecece" fill-rule="evenodd"/>
            </g>
            <g id="Group_2974" data-name="Group 2974" transform="translate(0.589 3.433)">
              <g id="Group_2973" data-name="Group 2973">
                <path id="Path_6942" data-name="Path 6942" d="M296.982,400.764l.461-.7.067.076-.461.7Z" transform="translate(-296.982 -399.65)" fill="#bfbfbf"/>
                <path id="Path_6943" data-name="Path 6943" d="M298.559,399.289l-.718.417.067.076.711-.418Z" transform="translate(-297.381 -399.289)" fill="#cdcdcd"/>
              </g>
              <path id="Path_6944" data-name="Path 6944" d="M297.825,400.12l-.717.422.461-.7.717-.422Z" transform="translate(-297.041 -399.35)" fill="#e6e6e6"/>
            </g>
            <path id="Path_6945" data-name="Path 6945" d="M298.5,392.885v5.291c0,.066.1.118.212.118s.211-.055.21-.121v-5.292Z" transform="translate(-297.098 -392.882)" fill="url(#linear-gradient-3)"/>
            <g id="Group_2975" data-name="Group 2975" transform="translate(0 4.705)">
              <path id="Path_6946" data-name="Path 6946" d="M297.6,401.75c-.433-.249-.721.072-.721.505s.471.891.9,1.14.6.027.6-.406A1.632,1.632,0,0,0,297.6,401.75Z" transform="translate(-296.346 -401.662)" fill="#010007" fill-rule="evenodd"/>
              <path id="Path_6947" data-name="Path 6947" d="M296.271,402.125l.525-.313-.053.338Z" transform="translate(-296.063 -401.732)" fill="#010007" fill-rule="evenodd"/>
              <path id="Path_6948" data-name="Path 6948" d="M298.484,404.995l.494-.3-.43-.387-.041.489Z" transform="translate(-297.09 -402.888)" fill="#010007" fill-rule="evenodd"/>
              <path id="Path_6949" data-name="Path 6949" d="M296.67,402.438c-.434-.25-.787-.1-.787.334a1.631,1.631,0,0,0,.787,1.239c.433.25.786.1.786-.334A1.632,1.632,0,0,0,296.67,402.438Z" transform="translate(-295.883 -401.966)" fill="#2e2d30" fill-rule="evenodd"/>
              <path id="Path_6950" data-name="Path 6950" d="M296.736,402.591c-.392-.225-.711-.09-.711.3a1.473,1.473,0,0,0,.711,1.12c.391.225.71.09.71-.3A1.474,1.474,0,0,0,296.736,402.591Z" transform="translate(-295.949 -402.043)" fill="#1b1b1f" fill-rule="evenodd"/>
              <path id="Path_6951" data-name="Path 6951" d="M296.9,402.967c-.287-.166-.522-.066-.522.221a1.084,1.084,0,0,0,.522.823c.288.166.523.066.523-.221A1.084,1.084,0,0,0,296.9,402.967Z" transform="translate(-296.112 -402.231)" fill="#3b3b3b" fill-rule="evenodd"/>
              <path id="Path_6952" data-name="Path 6952" d="M296.992,403.046c-.254-.146-.461-.058-.461.2a.957.957,0,0,0,.461.727c.254.146.461.058.461-.2A.957.957,0,0,0,296.992,403.046Z" transform="translate(-296.184 -402.272)" fill="#cecece" fill-rule="evenodd"/>
              <path id="Path_6953" data-name="Path 6953" d="M297.434,403.73a.822.822,0,0,0-.386-.55.03.03,0,0,0-.014-.006c-.21-.115-.38-.037-.38.173a.824.824,0,0,0,.394.622c.219.124.395.049.395-.167A.3.3,0,0,0,297.434,403.73Z" transform="translate(-296.24 -402.339)" fill="#7c7774" fill-rule="evenodd"/>
              <path id="Path_6954" data-name="Path 6954" d="M297.265,403.226c-.005,0-.009-.006-.015-.006-.078,0-.129.055-.129.156a.564.564,0,0,0,.277.432c.118.069.219.052.253-.032A.822.822,0,0,0,297.265,403.226Z" transform="translate(-296.458 -402.385)" fill="#cecece" fill-rule="evenodd"/>
            </g>
            <g id="Group_2977" data-name="Group 2977" transform="translate(1.573 3.787)">
              <g id="Group_2976" data-name="Group 2976" transform="translate(0 0.003)">
                <path id="Path_6955" data-name="Path 6955" d="M299.8,402.188l-.978-1.457.076,0,.978,1.457Z" transform="translate(-298.818 -400.315)" fill="#bfbfbf"/>
                <path id="Path_6956" data-name="Path 6956" d="M299.536,399.954l-.718.417.076,0,.711-.418Z" transform="translate(-298.818 -399.954)" fill="#cdcdcd"/>
              </g>
              <path id="Path_6957" data-name="Path 6957" d="M300.656,401.406l-.717.422-.978-1.457.717-.422Z" transform="translate(-298.884 -399.949)" fill="#e6e6e6"/>
            </g>
          </g>
          <path id="Path_6958" data-name="Path 6958" d="M226.224,332.035l1.3-11.492v-.29l-5.222,4.021-4.178,2.448Z" transform="translate(-199.882 -310.483)" fill="#fafafa"/>
          <path id="Path_6959" data-name="Path 6959" d="M226.224,330.835l1.3-11.3-1.355-.835L221.891,323l-3.766,2.519Z" transform="translate(-199.882 -309.76)" fill="#fff"/>
          <path id="Path_6960" data-name="Path 6960" d="M219.083,328.912l1.368.478,2.927-1.958-1.042-.7Z" transform="translate(-200.326 -313.489)" fill="#f8f8f8"/>
          <path id="Path_6961" data-name="Path 6961" d="M279.749,352.206l9.693-26.961v-.616l-14.532,14.224-8.645,5.5Z" transform="translate(-222.224 -312.513)" fill="#e3e3e3"/>
          <path id="Path_6962" data-name="Path 6962" d="M280.442,349.652l9.693-26.562-2.883-1.776-12.525,14.833L267.76,342.2Z" transform="translate(-222.917 -310.975)" fill="#fff"/>
          <path id="Path_6963" data-name="Path 6963" d="M298.294,323.742l.771.475-9.693,26.562L287,349.222Z" transform="translate(-231.847 -312.102)" fill="#eee"/>
          <path id="Path_6964" data-name="Path 6964" d="M270.358,367.727a1.486,1.486,0,0,1-.035.177.554.554,0,0,1-.035.112.191.191,0,0,1-.012.031.74.74,0,0,1-.042.1s0,.008,0,.011c-.016.031-.031.065-.05.1s-.039.065-.062.1a1.7,1.7,0,0,1-.3.355.2.2,0,0,0-.031.027,2.556,2.556,0,0,1-.355.258c-.065.039-.135.077-.208.116s-.135.062-.2.088a1.828,1.828,0,0,1-.223.081,1.28,1.28,0,0,1-.2.062,4.708,4.708,0,0,1-1,.177c-.066.008-.135.011-.2.015a9.3,9.3,0,0,1-2.41-.216l-.1-.023c-.093-.019-.193-.042-.289-.065-2.2-.528-4.377-1.743-7.451-3.579-2.025-1.207-4.447-2.688-7.529-4.424-7.752-4.362-17.514-9.781-21.3-12.242-.764-.494-1.651-1.157-2.611-1.924-3.8-3.035-8.67-7.675-10.946-9.712-2.85-2.546-6.368-5.35-6.1-7.359v-.008a2.242,2.242,0,0,1,.115-.467.876.876,0,0,1,.679-.655,1.267,1.267,0,0,1,.667.077,1.708,1.708,0,0,1,.212.1s41.507,22.173,46.884,25.3a31.44,31.44,0,0,1,10.437,8.944,34.129,34.129,0,0,1,2.295,3.05C270.551,367.28,270.393,367.43,270.358,367.727Z" transform="translate(-195.484 -314.469)" fill="#fff"/>
          <path id="Path_6965" data-name="Path 6965" d="M268.644,368.085s.019-1.055-2.112-3.014c-.336-.309-.947.067-1.385-.328-3.7-3.339-5.588-5.473-10.962-8.6s-46.883-25.3-46.883-25.3-1.431-.827-1.672.957c-.272,2.009,3.578,4.483,6.1,7.36a58.738,58.738,0,0,0,10.7,9.514c3.784,2.458,16.4,10,24.152,14.362s11.48,5.957,15.136,6.837S268.754,369.33,268.644,368.085Z" transform="translate(-194.075 -315.31)" fill="#eee"/>
          <path id="Path_6966" data-name="Path 6966" d="M207.312,330.847s-1.431-.826-1.672.957c4.785,3.238,11.056,7.15,14.735,10.971,3.13,3.25,19.645,11.128,27.4,15.491s11.48,5.957,15.136,6.837a16.271,16.271,0,0,0,3.1.453c-.256-.258-1.265-.921-.851-.812,1.779.465-2.36-4.145-2.36-4.145,1.647.888-.474,1.539-1.03,1.039a41.532,41.532,0,0,0-7.572-5.491C248.822,353.022,207.312,330.847,207.312,330.847Z" transform="translate(-194.087 -315.311)" fill="#f5f5f5"/>
          <path id="Path_6967" data-name="Path 6967" d="M221.663,339.621c6.289,3.9,19.021,11.125,26.771,15.488,5.606,3.155,10.094,5.6,13.561,6.53a41.531,41.531,0,0,0-7.571-5.491c-5.374-3.124-46.884-25.3-46.884-25.3s-.918-.528-1.407.18C210.915,333.6,217.25,336.888,221.663,339.621Z" transform="translate(-194.316 -315.312)" fill="#fff"/>
          <path id="Path_6968" data-name="Path 6968" d="M263.572,368.917c-3.656-.88-7.385-2.474-15.136-6.837s-24.216-12.318-28-14.776-3.76-4.167-10.7-9.514c-1.364-1.051-2.656-2.5-3.962-3.616.557,1.867,3.807,4.088,6.027,6.623a58.74,58.74,0,0,0,10.7,9.514c3.784,2.458,16.4,10,24.152,14.362s11.48,5.957,15.136,6.837,7.261-.285,7.152-1.529c0,0,.179-1.243-1.111-.624A14.47,14.47,0,0,1,263.572,368.917Z" transform="translate(-194.148 -316.943)" fill="#e3e3e3"/>
          <path id="Path_6969" data-name="Path 6969" d="M221.537,345.7l-2.034.725a2.893,2.893,0,0,1-1.407.136h0a2.888,2.888,0,0,1-1.106-.411l-.745-.468Z" transform="translate(-199.009 -322.284)" fill="#bfbfbf"/>
          <path id="Path_6970" data-name="Path 6970" d="M269.5,371.527a1.142,1.142,0,0,1-.224.594,1.454,1.454,0,0,1-.162.189.2.2,0,0,0-.031.027,1.971,1.971,0,0,1-.355.258c-.065.039-.135.077-.208.116s-.135.062-.2.088a1.823,1.823,0,0,1-.223.081,1.607,1.607,0,0,1-.208.062,5.757,5.757,0,0,1-.987.177c-.066.008-.135.011-.2.015a13.7,13.7,0,0,1-4.273-.5c-3.413-.879-6.919-2.287-13.727-6.051-.455-.251-.922-.513-1.408-.787-7.752-4.362-20.368-11.906-24.151-14.363a58.635,58.635,0,0,1-10.7-9.515c-.108-.123-.22-.247-.332-.366-.177-.193-.359-.382-.544-.571-.039-.034-.073-.073-.108-.108a.447.447,0,0,1-.042-.042c-.031-.031-.062-.062-.1-.093-.07-.073-.139-.143-.212-.212l-.39-.378-.386-.363c-.208-.2-.416-.393-.625-.582-.274-.255-.544-.505-.8-.752-.069-.065-.131-.127-.2-.189-.158-.15-.312-.3-.459-.447l-.22-.22c-.147-.15-.286-.3-.417-.448-.062-.065-.12-.134-.177-.2-.073-.085-.146-.169-.212-.255-.027-.031-.054-.065-.077-.1l.02.019c1.28,1.323,3.055,2.773,4.428,4.343a61.437,61.437,0,0,0,11.065,9.488c3.783,2.457,17.618,10.028,25.37,14.39,3.51,1.975,6.194,3.382,8.423,4.412a34.957,34.957,0,0,0,6.711,2.426,14.421,14.421,0,0,0,4.319.432,5.135,5.135,0,0,0,1.184-.2,2.842,2.842,0,0,0,.3-.112c.235-.116.37-.181.444-.22l.046-.019Z" transform="translate(-194.781 -318.069)" fill="#bfbfbf"/>
          <path id="Path_6971" data-name="Path 6971" d="M279.849,387.755l-1.659,1.152-2.082-1.17Z" transform="translate(-226.791 -341.802)" fill="#bfbfbf"/>
          <path id="Path_6972" data-name="Path 6972" d="M233.493,381.451,188.779,386.6l-4.7-1.424v-.616l21.953-5.452,27.458,1.33Z" transform="translate(-184.082 -337.796)" fill="#bfbfbf"/>
          <path id="Path_6973" data-name="Path 6973" d="M233.493,375.56l-44.714,5.546-4.7-1.424,21.953-5.452,13.931-5.63Z" transform="translate(-184.082 -332.92)" fill="#fff"/>
          <path id="Path_6974" data-name="Path 6974" d="M208.805,343.889l-17.784.05-2.208-.67v-.29l5.436-1.2,14.556,1.631Z" transform="translate(-186.278 -320.473)" fill="#bfbfbf"/>
          <path id="Path_6975" data-name="Path 6975" d="M208.805,340.421l-17.784.238-2.208-.67,5.436-1.676,6.06-2.976Z" transform="translate(-186.278 -317.483)" fill="#fff"/>
          <path id="Path_6976" data-name="Path 6976" d="M270.471,367.729a1.467,1.467,0,0,1-.035.177.557.557,0,0,1-.035.112.19.19,0,0,1-.012.031.734.734,0,0,1-.042.1s0,.007,0,.011c-.016.031-.031.065-.05.1s-.039.065-.062.1a1.678,1.678,0,0,1-.15.193c0-.008.008-.019.011-.027a1.45,1.45,0,0,0,.089-.332c.007-.054.019-.1.031-.151a.392.392,0,0,1,.008-.065.97.97,0,0,0-.073-.49,4.348,4.348,0,0,0-.413-.76c-.027-.042-.054-.089-.085-.135-.363-.551-.945-1.334-1.871-2.484l-.3-.367a31.469,31.469,0,0,0-10.44-8.944c-5.373-3.124-46.884-25.3-46.884-25.3s-.76-.436-1.265.019a.913.913,0,0,1,.679-.655,1.312,1.312,0,0,1,.667.077,1.705,1.705,0,0,1,.212.1s41.507,22.173,46.884,25.3a31.44,31.44,0,0,1,10.437,8.944,34.125,34.125,0,0,1,2.295,3.05C270.663,367.281,270.505,367.432,270.471,367.729Z" transform="translate(-195.596 -314.471)" fill="#fafafa"/>
          <path id="Path_6977" data-name="Path 6977" d="M313.784,392.181l-.732-.891-1.4.7-1.157-.181-.968-.273-.894-.41s-.524.265-.572.39a1.88,1.88,0,0,0,0,.532l1.194.787,2.087.628,2.071.167.955-.722Z" transform="translate(-241.61 -343.376)" fill="#d3cabb"/>
          <path id="Path_6978" data-name="Path 6978" d="M317.391,391.433l.347.424-.351-.424Z" transform="translate(-245.949 -343.517)" fill="#9e9382"/>
          <path id="Path_6979" data-name="Path 6979" d="M314.371,393.417l-.957.725-2.071-.17-1.79-.536-.239-.073-.058-.016-1.2-.787s-.011-.1-.016-.223l.825.548.5.15.243.07,1.346.405,2.071.166.957-.721-.583-.729.386.467Z" transform="translate(-241.614 -343.885)" fill="#9e9382"/>
          <path id="Path_6980" data-name="Path 6980" d="M206.513,305.68a2.677,2.677,0,0,0-1.324-1.364c-1.1-.614-3.977-2.295-3.977-2.295l-.517.277,4.713,14.561s.354.547,4.663,2.863c3.3,1.776,6.6,3.728,7.492,4.05.272.1.517-.277.517-.277s-.1-.363-.824-.911a18.153,18.153,0,0,1-3.991-4.809C211.941,315.427,206.513,305.68,206.513,305.68Z" transform="translate(-191.792 -302.021)" fill="#fafafa"/>
          <path id="Path_6981" data-name="Path 6981" d="M217.564,324.01a83.976,83.976,0,0,1-8.011-3.772c-1.211-.652-2.114-1.161-2.777-1.562a8.1,8.1,0,0,1-1.886-1.3l-4.2-14.837,1.628.949c.845.49,1.809,1.049,2.349,1.346A2.674,2.674,0,0,1,206,306.2s5.426,9.746,6.75,12.1a18.23,18.23,0,0,0,3.992,4.809C217.468,323.647,217.564,324.01,217.564,324.01Z" transform="translate(-191.792 -302.26)" fill="#f8f8f8"/>
          <path id="Path_6982" data-name="Path 6982" d="M204.136,313.25l4.292-1.205,5.453,9.872-5.711,1.049-2.688-5.126Z" transform="translate(-193.389 -306.673)" fill="#3172b0"/>
          <path id="Path_6983" data-name="Path 6983" d="M206.776,318.676a8.1,8.1,0,0,1-1.886-1.3l-4.2-14.837,1.628.949Z" transform="translate(-191.792 -302.26)" fill="#f8f8f8"/>
          <path id="Path_6984" data-name="Path 6984" d="M198.957,338.626l1.368.478,5-2.392-1.042-.7Z" transform="translate(-190.986 -317.796)" fill="#f8f8f8"/>
          <path id="Path_6985" data-name="Path 6985" d="M225.046,376.357l1.368.477,7.373-2.951-1.042-.7Z" transform="translate(-203.094 -335.048)" fill="#e6e6e6"/>
          <path id="Path_6986" data-name="Path 6986" d="M270.877,353.947l1.368.478,4.971-4.732-1.042-.7Z" transform="translate(-224.364 -323.821)" fill="#e6e6e6"/>
          <path id="Path_6987" data-name="Path 6987" d="M212.146,311.765l.456-.324,5.456,9.777-.459.419Z" transform="translate(-197.106 -306.393)" fill="#4cb1c7"/>
          <path id="Path_6988" data-name="Path 6988" d="M232.906,378.143l-17.883,2.691-24.57,4.312,1.283.389,44.714-5.546Z" transform="translate(-187.039 -337.349)" fill="#eee"/>
          <path id="Path_6989" data-name="Path 6989" d="M192.846,387.133v.616L237.56,382.6v-1.016Z" transform="translate(-188.149 -338.948)" fill="#e3e3e3"/>
          <g id="Group_2997" data-name="Group 2997" transform="translate(22.94 24.296)">
            <g id="Group_2980" data-name="Group 2980">
              <g id="Group_2979" data-name="Group 2979">
                <path id="Path_6990" data-name="Path 6990" d="M228.27,347.955l-.236.662-.042.118-.114.319-.05.142a.225.225,0,0,1-.283.114l-.54-.3a.211.211,0,0,1-.107-.252l.006-.017.223-.629h0l.221-.622a.223.223,0,0,1,.282-.111l.039.02.027.017.475.262a.265.265,0,0,1,.1.108A.25.25,0,0,1,228.27,347.955Z" transform="translate(-226.888 -347.359)" fill="#7a6457"/>
              </g>
              <path id="Path_6991" data-name="Path 6991" d="M227.309,348.877a.21.21,0,0,1-.107-.252l.006-.017.223-.629.212-.6-.013-.007a.223.223,0,0,0-.282.111l-.221.622-.224.629-.006.017a.211.211,0,0,0,.107.252l.54.3a.225.225,0,0,0,.283-.114l.009-.025Z" transform="translate(-226.888 -347.359)" fill="#9e9382"/>
            </g>
            <g id="Group_2981" data-name="Group 2981" transform="translate(2.321 1.277)">
              <path id="Path_6992" data-name="Path 6992" d="M232.6,350.338l-.236.663-.042.118-.114.319-.05.141a.224.224,0,0,1-.283.114l-.541-.3a.211.211,0,0,1-.107-.252l.006-.017.224-.629h0l.221-.622a.223.223,0,0,1,.282-.111l.039.02.027.017.475.262a.245.245,0,0,1,.1.108A.237.237,0,0,1,232.6,350.338Z" transform="translate(-231.219 -349.742)" fill="#7a6457"/>
              <path id="Path_6993" data-name="Path 6993" d="M231.64,351.259a.21.21,0,0,1-.107-.252l.006-.017.224-.629.212-.595-.013-.006a.223.223,0,0,0-.282.111l-.221.622-.224.629-.006.017a.211.211,0,0,0,.107.252l.541.3a.224.224,0,0,0,.283-.114l.009-.025Z" transform="translate(-231.219 -349.742)" fill="#9e9382"/>
            </g>
            <g id="Group_2982" data-name="Group 2982" transform="translate(4.642 2.554)">
              <path id="Path_6994" data-name="Path 6994" d="M236.931,352.721l-.236.663-.042.118-.114.319-.05.141a.225.225,0,0,1-.283.114l-.541-.3a.211.211,0,0,1-.107-.252l.006-.017.224-.629h0l.221-.622a.223.223,0,0,1,.282-.111l.038.02.028.017.475.263a.248.248,0,0,1,.1.108A.234.234,0,0,1,236.931,352.721Z" transform="translate(-235.55 -352.124)" fill="#7a6457"/>
              <path id="Path_6995" data-name="Path 6995" d="M235.971,353.642a.211.211,0,0,1-.107-.252l.006-.017.224-.629.211-.595-.012-.007a.223.223,0,0,0-.282.111l-.221.622-.224.629-.006.017a.211.211,0,0,0,.107.252l.541.3a.225.225,0,0,0,.283-.114l.009-.025Z" transform="translate(-235.55 -352.124)" fill="#9e9382"/>
            </g>
            <g id="Group_2983" data-name="Group 2983" transform="translate(6.962 3.831)">
              <path id="Path_6996" data-name="Path 6996" d="M241.262,355.1l-.236.663-.042.118-.114.319-.05.141a.225.225,0,0,1-.283.114l-.54-.3a.211.211,0,0,1-.107-.252l.006-.017.223-.629h0l.221-.623a.224.224,0,0,1,.282-.111l.039.02.027.017.476.263a.249.249,0,0,1,.1.108A.237.237,0,0,1,241.262,355.1Z" transform="translate(-239.88 -354.507)" fill="#7a6457"/>
              <path id="Path_6997" data-name="Path 6997" d="M240.3,356.025a.211.211,0,0,1-.107-.252l.006-.017.223-.629.212-.595-.013-.007a.224.224,0,0,0-.282.111l-.221.623-.223.629-.006.017a.211.211,0,0,0,.107.252l.54.3a.225.225,0,0,0,.283-.114l.009-.025Z" transform="translate(-239.88 -354.507)" fill="#9e9382"/>
            </g>
            <g id="Group_2984" data-name="Group 2984" transform="translate(9.283 5.108)">
              <path id="Path_6998" data-name="Path 6998" d="M245.593,357.486l-.236.663-.042.117-.114.32-.05.141a.225.225,0,0,1-.283.115l-.541-.3a.211.211,0,0,1-.107-.252l.006-.017.224-.629h0l.221-.623a.224.224,0,0,1,.282-.111l.039.02.027.017.475.263a.242.242,0,0,1,.1.108A.237.237,0,0,1,245.593,357.486Z" transform="translate(-244.211 -356.89)" fill="#7a6457"/>
              <path id="Path_6999" data-name="Path 6999" d="M244.632,358.408a.211.211,0,0,1-.107-.252l.006-.017.223-.629.212-.595-.013-.007a.224.224,0,0,0-.282.111l-.221.623-.224.629-.006.017a.211.211,0,0,0,.107.252l.541.3a.225.225,0,0,0,.283-.115l.009-.025Z" transform="translate(-244.211 -356.89)" fill="#9e9382"/>
            </g>
            <g id="Group_2985" data-name="Group 2985" transform="translate(11.604 6.385)">
              <path id="Path_7000" data-name="Path 7000" d="M249.924,359.87l-.236.662-.042.118-.114.319-.05.142a.224.224,0,0,1-.283.115l-.541-.3a.211.211,0,0,1-.107-.252l.006-.017.224-.629h0L249,359.4a.224.224,0,0,1,.282-.111l.039.02.027.017.475.263a.244.244,0,0,1,.1.107A.239.239,0,0,1,249.924,359.87Z" transform="translate(-248.542 -359.273)" fill="#7a6457"/>
              <path id="Path_7001" data-name="Path 7001" d="M248.963,360.791a.211.211,0,0,1-.107-.252l.006-.017.224-.629.212-.6-.013-.006a.224.224,0,0,0-.282.111l-.221.622-.224.629-.006.017a.211.211,0,0,0,.107.252l.541.3a.224.224,0,0,0,.283-.115l.009-.025Z" transform="translate(-248.542 -359.273)" fill="#9e9382"/>
            </g>
            <g id="Group_2986" data-name="Group 2986" transform="translate(13.925 7.662)">
              <path id="Path_7002" data-name="Path 7002" d="M254.254,362.252l-.236.663-.042.118-.114.319-.05.141a.224.224,0,0,1-.283.114l-.541-.3a.21.21,0,0,1-.107-.252l.006-.017.223-.629h0l.221-.622a.224.224,0,0,1,.282-.111l.039.02.028.017.475.262a.254.254,0,0,1,.1.108A.237.237,0,0,1,254.254,362.252Z" transform="translate(-252.873 -361.656)" fill="#7a6457"/>
              <path id="Path_7003" data-name="Path 7003" d="M253.294,363.174a.211.211,0,0,1-.107-.252l.006-.017.224-.629.211-.6-.013-.006a.224.224,0,0,0-.282.111l-.221.622-.223.629-.006.017a.21.21,0,0,0,.107.252l.541.3a.224.224,0,0,0,.283-.114l.009-.025Z" transform="translate(-252.873 -361.656)" fill="#9e9382"/>
            </g>
            <g id="Group_2987" data-name="Group 2987" transform="translate(16.246 8.939)">
              <path id="Path_7004" data-name="Path 7004" d="M258.585,364.635l-.236.663-.042.118-.114.319-.05.141a.225.225,0,0,1-.284.114l-.54-.3a.211.211,0,0,1-.107-.252l.006-.017.223-.629h0l.221-.622a.223.223,0,0,1,.282-.111l.039.02.027.017.476.262a.251.251,0,0,1,.1.108A.24.24,0,0,1,258.585,364.635Z" transform="translate(-257.203 -364.039)" fill="#7a6457"/>
              <path id="Path_7005" data-name="Path 7005" d="M257.624,365.556a.21.21,0,0,1-.107-.252l.006-.017.223-.629.212-.595-.013-.006a.223.223,0,0,0-.282.111l-.221.622-.224.629-.006.017a.211.211,0,0,0,.107.252l.54.3a.225.225,0,0,0,.284-.114l.009-.025Z" transform="translate(-257.203 -364.039)" fill="#9e9382"/>
            </g>
            <g id="Group_2988" data-name="Group 2988" transform="translate(18.566 10.216)">
              <path id="Path_7006" data-name="Path 7006" d="M262.915,367.018l-.236.663-.042.118-.114.319-.05.141a.225.225,0,0,1-.283.114l-.541-.3a.211.211,0,0,1-.107-.252l.006-.017.224-.629h0l.221-.623a.224.224,0,0,1,.282-.111l.039.02.027.017.475.263a.245.245,0,0,1,.1.108A.237.237,0,0,1,262.915,367.018Z" transform="translate(-261.534 -366.421)" fill="#7a6457"/>
              <path id="Path_7007" data-name="Path 7007" d="M261.955,367.939a.211.211,0,0,1-.107-.252l.006-.017.224-.629.212-.595-.013-.007a.224.224,0,0,0-.282.111l-.221.623-.224.629-.006.017a.21.21,0,0,0,.107.252l.54.3a.225.225,0,0,0,.283-.114l.009-.025Z" transform="translate(-261.534 -366.421)" fill="#9e9382"/>
            </g>
            <g id="Group_2989" data-name="Group 2989" transform="translate(20.887 11.493)">
              <path id="Path_7008" data-name="Path 7008" d="M267.246,369.4l-.235.663-.042.117-.114.32-.05.141a.225.225,0,0,1-.283.115l-.541-.3a.211.211,0,0,1-.107-.252l.006-.017.224-.629h0l.221-.623a.224.224,0,0,1,.282-.111l.039.02.027.017.475.263a.245.245,0,0,1,.1.108A.234.234,0,0,1,267.246,369.4Z" transform="translate(-265.865 -368.804)" fill="#7a6457"/>
              <path id="Path_7009" data-name="Path 7009" d="M266.286,370.322a.211.211,0,0,1-.107-.252l.006-.017.224-.629.212-.595-.013-.007a.224.224,0,0,0-.282.111l-.221.623-.224.629-.006.017a.211.211,0,0,0,.107.252l.541.3a.225.225,0,0,0,.283-.115l.009-.025Z" transform="translate(-265.865 -368.804)" fill="#9e9382"/>
            </g>
            <g id="Group_2990" data-name="Group 2990" transform="translate(23.208 12.77)">
              <path id="Path_7010" data-name="Path 7010" d="M271.577,371.784l-.236.662-.042.118-.114.32-.05.141a.225.225,0,0,1-.283.115l-.541-.3a.212.212,0,0,1-.107-.252l.006-.017.224-.629h0l.222-.623a.223.223,0,0,1,.282-.111l.039.02.028.017.475.263a.249.249,0,0,1,.1.108A.24.24,0,0,1,271.577,371.784Z" transform="translate(-270.195 -371.187)" fill="#7a6457"/>
              <path id="Path_7011" data-name="Path 7011" d="M270.616,372.7a.211.211,0,0,1-.107-.252l.006-.017.223-.629.212-.595-.013-.007a.223.223,0,0,0-.282.111l-.222.623-.224.629-.006.017a.211.211,0,0,0,.107.252l.541.3a.225.225,0,0,0,.283-.115l.009-.025Z" transform="translate(-270.195 -371.187)" fill="#9e9382"/>
            </g>
            <g id="Group_2991" data-name="Group 2991" transform="translate(25.529 14.047)">
              <path id="Path_7012" data-name="Path 7012" d="M275.908,374.167l-.236.662-.042.118-.114.319-.05.142a.226.226,0,0,1-.284.115l-.54-.3a.211.211,0,0,1-.107-.252l.006-.017.224-.629h0l.221-.622a.224.224,0,0,1,.282-.111l.039.02.027.017.476.262a.254.254,0,0,1,.1.108A.241.241,0,0,1,275.908,374.167Z" transform="translate(-274.526 -373.57)" fill="#7a6457"/>
              <path id="Path_7013" data-name="Path 7013" d="M274.947,375.088a.212.212,0,0,1-.107-.252l.006-.017.223-.629.212-.6-.013-.006a.224.224,0,0,0-.282.111l-.221.622-.224.629-.006.017a.211.211,0,0,0,.107.252l.54.3a.226.226,0,0,0,.284-.115l.009-.025Z" transform="translate(-274.526 -373.57)" fill="#9e9382"/>
            </g>
            <g id="Group_2992" data-name="Group 2992" transform="translate(27.85 15.323)">
              <path id="Path_7014" data-name="Path 7014" d="M280.239,376.549l-.236.663-.042.118-.114.319-.05.141a.225.225,0,0,1-.283.114l-.541-.3a.21.21,0,0,1-.107-.252l.006-.017.224-.629h0l.221-.622a.224.224,0,0,1,.282-.111l.039.02.027.017.475.262a.248.248,0,0,1,.1.108A.237.237,0,0,1,280.239,376.549Z" transform="translate(-278.857 -375.953)" fill="#7a6457"/>
              <path id="Path_7015" data-name="Path 7015" d="M279.278,377.471a.212.212,0,0,1-.107-.252l.006-.017.224-.629.212-.595-.013-.006a.223.223,0,0,0-.282.111l-.221.622-.224.629-.006.017a.21.21,0,0,0,.107.252l.541.3a.225.225,0,0,0,.283-.114l.009-.025Z" transform="translate(-278.857 -375.953)" fill="#9e9382"/>
            </g>
            <g id="Group_2993" data-name="Group 2993" transform="translate(30.171 16.6)">
              <path id="Path_7016" data-name="Path 7016" d="M284.569,378.932l-.236.663-.042.118-.114.319-.05.142a.225.225,0,0,1-.283.114l-.541-.3a.211.211,0,0,1-.107-.252l.006-.017.224-.629h0l.222-.622a.224.224,0,0,1,.282-.111l.038.02.028.017.475.263a.251.251,0,0,1,.1.108A.234.234,0,0,1,284.569,378.932Z" transform="translate(-283.188 -378.335)" fill="#7a6457"/>
              <path id="Path_7017" data-name="Path 7017" d="M283.609,379.853a.21.21,0,0,1-.107-.252l.006-.017.224-.629.212-.595-.013-.007a.223.223,0,0,0-.282.111l-.222.622-.224.629-.006.017a.211.211,0,0,0,.107.252l.541.3a.225.225,0,0,0,.283-.114l.009-.025Z" transform="translate(-283.188 -378.335)" fill="#9e9382"/>
            </g>
            <g id="Group_2994" data-name="Group 2994" transform="translate(32.492 17.877)">
              <path id="Path_7018" data-name="Path 7018" d="M288.9,381.315l-.236.663-.042.117-.114.32-.05.142a.225.225,0,0,1-.283.114l-.54-.3a.211.211,0,0,1-.107-.252l.006-.017.223-.629h0l.221-.623a.224.224,0,0,1,.282-.111l.039.02.028.017.475.263a.251.251,0,0,1,.1.108A.24.24,0,0,1,288.9,381.315Z" transform="translate(-287.518 -380.718)" fill="#7a6457"/>
              <path id="Path_7019" data-name="Path 7019" d="M287.939,382.236a.211.211,0,0,1-.107-.252l.006-.017.223-.629.212-.595-.013-.007a.224.224,0,0,0-.282.111l-.221.623-.223.629-.006.017a.211.211,0,0,0,.107.252l.54.3a.225.225,0,0,0,.283-.114l.009-.025Z" transform="translate(-287.518 -380.718)" fill="#9e9382"/>
            </g>
            <g id="Group_2996" data-name="Group 2996" transform="translate(34.812 19.154)">
              <g id="Group_2995" data-name="Group 2995">
                <path id="Path_7020" data-name="Path 7020" d="M293.231,383.7l-.236.663-.042.117-.114.32-.05.141a.225.225,0,0,1-.283.115l-.54-.3a.211.211,0,0,1-.107-.252l.006-.017.224-.629h0l.221-.623a.224.224,0,0,1,.282-.111l.039.02.027.017.475.263a.255.255,0,0,1,.1.108A.246.246,0,0,1,293.231,383.7Z" transform="translate(-291.849 -383.101)" fill="#7a6457"/>
              </g>
              <path id="Path_7021" data-name="Path 7021" d="M292.27,384.619a.211.211,0,0,1-.107-.252l.006-.017.223-.629.212-.595-.013-.007a.224.224,0,0,0-.282.111l-.221.623-.224.629-.006.017a.211.211,0,0,0,.107.252l.54.3a.225.225,0,0,0,.283-.115l.009-.025Z" transform="translate(-291.849 -383.101)" fill="#9e9382"/>
            </g>
          </g>
          <g id="Group_2998" data-name="Group 2998" transform="translate(67.701 48.163)">
            <path id="Path_7022" data-name="Path 7022" d="M310.88,391.963l-.17.987-.058.332-.239-.073.054-.328.162-.987Z" transform="translate(-310.413 -391.894)" fill="#f8f8f8"/>
          </g>
          <g id="Group_2999" data-name="Group 2999" transform="translate(70.041 48.505)">
            <path id="Path_7023" data-name="Path 7023" d="M316.27,394.283l-1.49-1.639.21-.112,1.55,1.751Z" transform="translate(-314.78 -392.533)" fill="#f8f8f8"/>
          </g>
          <g id="Group_3000" data-name="Group 3000" transform="translate(69.554 48.541)">
            <path id="Path_7024" data-name="Path 7024" d="M314.048,394.148l-.176-1.549.2.031.2,1.535Z" transform="translate(-313.872 -392.599)" fill="#f8f8f8"/>
          </g>
          <path id="Path_7025" data-name="Path 7025" d="M316.748,391.59l-.627.319,1.3.9.229-.132Z" transform="translate(-245.362 -343.59)" fill="#fff"/>
          <g id="Group_3001" data-name="Group 3001" transform="translate(26.628 25.978)" style="mix-blend-mode: multiply;isolation: isolate">
            <path id="Path_7026" data-name="Path 7026" d="M235.839,355.687a.291.291,0,0,1-.15-.04l-1.668-.991a.457.457,0,0,1-.226-.352,4.939,4.939,0,0,1,.338-2.418,7.586,7.586,0,0,1,.495-.892c.312-.439.5-.656,1-.364l1.018.594c.293.171.5.309.561.527a.773.773,0,0,1-.147.581l-.012.019a5.7,5.7,0,0,0-.91,3.055.274.274,0,0,1-.143.24A.308.308,0,0,1,235.839,355.687Zm-.6-5.076c-.18,0-.3.155-.513.45a7.452,7.452,0,0,0-.484.874,4.831,4.831,0,0,0-.327,2.357.344.344,0,0,0,.17.264l1.668.99a.184.184,0,0,0,.185,0,.16.16,0,0,0,.085-.139,6.4,6.4,0,0,1,.177-1.391,6.193,6.193,0,0,1,.75-1.723l.011-.019a.674.674,0,0,0,.135-.494c-.045-.175-.238-.3-.506-.456l-1.018-.594A.7.7,0,0,0,235.236,350.611Z" transform="translate(-233.77 -350.497)" fill="#e5e5e5"/>
          </g>
          <g id="Group_3002" data-name="Group 3002" transform="translate(54.361 41.364)" style="mix-blend-mode: multiply;isolation: isolate">
            <path id="Path_7027" data-name="Path 7027" d="M287.591,384.4a.288.288,0,0,1-.149-.04l-1.668-.991a.459.459,0,0,1-.226-.352,4.952,4.952,0,0,1,.338-2.418,7.758,7.758,0,0,1,.495-.892c.312-.44.5-.655,1-.364l1.018.594c.293.171.5.309.561.527a.775.775,0,0,1-.147.581l-.011.018a6.1,6.1,0,0,0-.737,1.69,6.266,6.266,0,0,0-.175,1.365.273.273,0,0,1-.142.24A.31.31,0,0,1,287.591,384.4Zm-.6-5.077c-.18,0-.3.155-.513.451a7.443,7.443,0,0,0-.484.874,4.831,4.831,0,0,0-.327,2.357.344.344,0,0,0,.17.264l1.668.99a.185.185,0,0,0,.186,0,.161.161,0,0,0,.084-.139,6.378,6.378,0,0,1,.178-1.392A6.183,6.183,0,0,1,288.7,381l.011-.019a.67.67,0,0,0,.135-.493c-.045-.175-.238-.3-.506-.457l-1.018-.593A.69.69,0,0,0,286.987,379.321Z" transform="translate(-285.522 -379.208)" fill="#e5e5e5"/>
          </g>
          <path id="Path_7028" data-name="Path 7028" d="M321.9,400.188a1.468,1.468,0,0,1-.035.177.555.555,0,0,1-.035.112.2.2,0,0,1-.012.031.735.735,0,0,1-.042.1s0,.008,0,.011c-.016.031-.031.065-.05.1s-.039.065-.062.1a1.706,1.706,0,0,1-.3.355.2.2,0,0,0-.031.027,1.973,1.973,0,0,1-.355.258c-.065.039-.135.077-.208.116s-.135.062-.2.088a1.83,1.83,0,0,1-.223.081,1.285,1.285,0,0,1-.2.062h-.012a.449.449,0,0,1-.347-.3.542.542,0,0,1-.047-.162,1.26,1.26,0,0,1-.019-.367,2.049,2.049,0,0,1,.143-.621,2.372,2.372,0,0,1,.845-1.006c.131-.112.255-.208.375-.293.081-.058.162-.112.239-.162a1.75,1.75,0,0,1,.177-.1C322.1,399.741,321.939,399.891,321.9,400.188Z" transform="translate(-247.03 -346.931)" fill="#3aa3ba"/>
        </g>
        <path id="Path_7029" data-name="Path 7029" d="M251.3,314.136l-.772-.475-2.111-1.3-12.526,14.833-6.555,5.7c-6.248-3.367-13.166-7.079-18.824-10.11l1.211-10.7v-.289l-1.355-.835-4.279,4.306-1.414.946-5.1-9.135-.777-1.394a2.677,2.677,0,0,0-1.324-1.364c-1.1-.614-3.977-2.295-3.977-2.295l-.516.276h0l4.2,14.837a.859.859,0,0,0,.136.132,2.738,2.738,0,0,0-.054.269l-.018-.009c-.02-.01-.044-.021-.072-.032l-.017-.007h0c-.033-.013-.071-.027-.112-.041a1.539,1.539,0,0,0-.254-.062h0l-.046-.006a1.135,1.135,0,0,0-.177-.008.9.9,0,0,0-.231.043l-.006,0a.76.76,0,0,0-.223.115h0a.89.89,0,0,0-.211.223l-.011.014a1.3,1.3,0,0,0-.062.119c-.013.027-.028.049-.041.078a2.143,2.143,0,0,0-.114.413c-.009.047-.02.089-.027.14h0a1.755,1.755,0,0,0,.073.739l0,0,0,.012c.018.059.046.121.069.181s.049.132.081.2.068.13.1.2.071.129.111.193.088.136.134.2.09.129.139.195c.031.041.058.081.09.123l0,0c.023.031.05.066.077.1l.007.009-4.468,2.193-5.436,1.677v.289l2.208.67,12.521-.035c.131.141.261.281.386.424.533.608,1.142,1.266,1.8,1.948s1.4,1.413,2.167,2.133a50.715,50.715,0,0,0,6.732,5.433c.473.307,1.084.694,1.806,1.144.542.338,1.146.711,1.8,1.113q.656.4,1.376.84l.242.147-3.869,1.563-.058-.039-7.7,3.173-21.953,5.452v.616l4.7,1.424,11.311-1.3c0,.029-.006.059,0,.088.018.552.939,1.357,1.7,1.778v0l.027.016.024.013,3.267,1.818h0a1.342,1.342,0,0,0,1.325-.132,3.853,3.853,0,0,0,1.776-3.14,1.3,1.3,0,0,0-.552-1.14l0-.007h0l-.247-.137,4.4-.506v1.773l-.214.128h.006a.359.359,0,0,0-.177.21.369.369,0,0,0-.286.077v-.005l-.525.314h.005a.426.426,0,0,0-.213.412,1.633,1.633,0,0,0,.786,1.24.582.582,0,0,0,.608.056v.006l.494-.3-.006-.006a.367.367,0,0,0,.139-.248.449.449,0,0,0,.356-.044v.006l.494-.3-.006-.006a.541.541,0,0,0,.161-.47,1.634,1.634,0,0,0-.787-1.24.49.49,0,0,0-.413-.065v-1.578l3.383-.39a5.435,5.435,0,0,0,1.108.822v0l.027.016a.1.1,0,0,1,.022.013l2.2,1.224c.083.052.168.1.256.151v0l.028.016a.184.184,0,0,0,.024.013l.77.429.005-.009a1.355,1.355,0,0,0,1.309-.141,3.855,3.855,0,0,0,1.776-3.14,1.922,1.922,0,0,0-.033-.258l7.048-.811c1.122.653,2.221,1.29,3.276,1.9H233.4l2.031,1.141,1.158.655c.486.274.953.536,1.408.787l.46.252c2.81,1.547,5.045,2.69,6.945,3.552v.016l-.354.205-.46.7.068.077.349-.528-.349.528.717-.422.03-.044v.218l-.214.128h.006a.36.36,0,0,0-.177.21.372.372,0,0,0-.286.077v0l-.525.313h.005a.424.424,0,0,0-.213.412,1.63,1.63,0,0,0,.787,1.239.58.58,0,0,0,.608.056v.006l.494-.3-.006-.006a.368.368,0,0,0,.139-.247.451.451,0,0,0,.356-.044v.006l.495-.3-.006-.006c.11-.072.16-.239.16-.469v0l.321-.189-.725-1.08a32.161,32.161,0,0,0,4.954,1.671l.152.041a13.7,13.7,0,0,0,4.273.5c.07,0,.139-.008.2-.015a4.7,4.7,0,0,0,1-.177,1.263,1.263,0,0,0,.2-.062,1.823,1.823,0,0,0,.223-.081c.07-.027.139-.058.2-.088s.143-.077.208-.116a2.55,2.55,0,0,0,.355-.258.232.232,0,0,1,.031-.027,1.676,1.676,0,0,0,.3-.355c.024-.035.043-.065.062-.1s.034-.065.05-.1c0,0,0-.008,0-.011a.806.806,0,0,0,.043-.1.268.268,0,0,0,.011-.031.557.557,0,0,0,.035-.112,1.471,1.471,0,0,0,.035-.177c.034-.3.192-.447-.405-1.4a33.4,33.4,0,0,0-2.238-2.981l-.057-.071-.178-.218c-.158-.194-.315-.384-.467-.569l-.086-.105h0a30.7,30.7,0,0,0-9.7-8.052c-.673-.391-1.91-1.079-3.56-1.985l.855-2.378a1.907,1.907,0,0,0,.533-.206,3.852,3.852,0,0,0,1.774-3.14,1.3,1.3,0,0,0-.551-1.14l0-.008-.121-.067,1.621-4.51.852.474h0a1.343,1.343,0,0,0,1.326-.131,3.858,3.858,0,0,0,1.775-3.14,1.355,1.355,0,0,0-.458-1.068l.028-.049-1.764-.981,3.164-8.8Zm-5.243,40.5-.237.138v-.241Z" transform="translate(-184.082 -302.021)" fill="url(#linear-gradient-4)" style="mix-blend-mode: soft-light;isolation: isolate"/>
      </g>
    </g>
  </g>
</svg>
