<svg xmlns="http://www.w3.org/2000/svg" xmlns:xlink="http://www.w3.org/1999/xlink" width="144" height="111" viewBox="0 0 144 111">
  <defs>
    <clipPath id="clip-path">
      <rect id="Rectangle_653" data-name="Rectangle 653" width="144" height="111" transform="translate(959 1827)" fill="#fff" stroke="#707070" stroke-width="1"/>
    </clipPath>
    <linearGradient id="linear-gradient" x1="0.5" x2="0.5" y2="1" gradientUnits="objectBoundingBox">
      <stop offset="0" stop-color="#193b6a"/>
      <stop offset="1" stop-color="#20b3af"/>
    </linearGradient>
    <linearGradient id="linear-gradient-2" x1="0.622" y1="0.165" x2="-0.847" y2="4.807" gradientUnits="objectBoundingBox">
      <stop offset="0" stop-color="#afb6e5"/>
      <stop offset="0.145" stop-color="#b5bce8"/>
      <stop offset="0.349" stop-color="#c7cdf0"/>
      <stop offset="0.581" stop-color="#e5e9ff"/>
      <stop offset="0.955" stop-color="#f4f4fb"/>
      <stop offset="1" stop-color="#f7f6fb"/>
    </linearGradient>
    <radialGradient id="radial-gradient" cx="0.394" cy="0.502" r="0.532" gradientTransform="matrix(-0.859, 0, 0, 1, 0.748, 0)" gradientUnits="objectBoundingBox">
      <stop offset="0" stop-color="#fff"/>
      <stop offset="1"/>
    </radialGradient>
    <linearGradient id="linear-gradient-3" x1="-3.204" y1="1.497" x2="1.326" y2="0.283" gradientUnits="objectBoundingBox">
      <stop offset="0" stop-color="#ffc954"/>
      <stop offset="1" stop-color="#d45d22"/>
    </linearGradient>
    <linearGradient id="linear-gradient-4" x1="2.012" y1="-2.589" x2="0.17" y2="1.184" xlink:href="#linear-gradient-3"/>
    <linearGradient id="linear-gradient-5" x1="0.134" y1="0.171" x2="0.686" y2="0.656" xlink:href="#linear-gradient-3"/>
    <linearGradient id="linear-gradient-6" x1="0.19" y1="0.395" x2="1.96" y2="1.068" gradientUnits="objectBoundingBox">
      <stop offset="0" stop-color="#ffe585"/>
      <stop offset="1" stop-color="#ff9e6e"/>
    </linearGradient>
    <radialGradient id="radial-gradient-2" cx="0.919" cy="0.401" r="0.385" gradientTransform="matrix(-2.314, 0, 0, 1, 3.597, 0)" gradientUnits="objectBoundingBox">
      <stop offset="0" stop-color="#ffe585"/>
      <stop offset="0.015" stop-color="#f6dd80"/>
      <stop offset="0.132" stop-color="#bdaa63"/>
      <stop offset="0.252" stop-color="#8b7c48"/>
      <stop offset="0.373" stop-color="#605632"/>
      <stop offset="0.494" stop-color="#3d3720"/>
      <stop offset="0.617" stop-color="#221f12"/>
      <stop offset="0.741" stop-color="#0f0d07"/>
      <stop offset="0.867" stop-color="#030301"/>
      <stop offset="1"/>
    </radialGradient>
    <linearGradient id="linear-gradient-7" x1="-3.204" y1="1.497" x2="1.326" y2="0.283" xlink:href="#linear-gradient-3"/>
    <linearGradient id="linear-gradient-8" x1="2.012" y1="-2.589" x2="0.169" y2="1.184" xlink:href="#linear-gradient-3"/>
    <radialGradient id="radial-gradient-3" cx="0.945" cy="0.363" r="0.385" gradientTransform="matrix(-2.314, 0, 0, 1, 3.714, 0)" xlink:href="#radial-gradient-2"/>
    <linearGradient id="linear-gradient-11" x1="-3.204" y1="1.497" x2="1.326" y2="0.283" xlink:href="#linear-gradient-3"/>
    <radialGradient id="radial-gradient-4" cx="0.932" cy="0.363" r="0.385" gradientTransform="matrix(-2.314, 0, 0, 1, 3.655, 0)" xlink:href="#radial-gradient-2"/>
    <radialGradient id="radial-gradient-5" cx="0.544" cy="0.618" r="0.736" gradientTransform="translate(164.123) scale(0.548 1)" xlink:href="#radial-gradient"/>
    <radialGradient id="radial-gradient-6" cx="0.668" cy="0.097" r="0.54" gradientTransform="matrix(-1.036, 0, 0, 1, 1.365, 0)" xlink:href="#radial-gradient-2"/>
    <linearGradient id="linear-gradient-16" x1="-2.374" y1="1.503" x2="1.183" y2="0.275" xlink:href="#linear-gradient-3"/>
    <linearGradient id="linear-gradient-17" x1="1.941" y1="-2.242" x2="0.165" y2="1.104" xlink:href="#linear-gradient-3"/>
    <linearGradient id="linear-gradient-18" x1="0.109" y1="0.138" x2="0.699" y2="0.673" xlink:href="#linear-gradient-3"/>
  </defs>
  <g id="mot-feedbackandcomplaint-icon" transform="translate(-959 -1827)" clip-path="url(#clip-path)">
    <g id="Group_2208" data-name="Group 2208" transform="translate(974 1836)">
      <g id="Group_2206" data-name="Group 2206" transform="translate(0 0)">
        <g id="Group_2171" data-name="Group 2171" transform="translate(0 0)">
          <g id="Group_2158" data-name="Group 2158" transform="translate(0 0)">
            <path id="Path_4758" data-name="Path 4758" d="M395.311,133.127,479.375,84.4c2.6-1.5,4.989-1.67,6.873-.744l.06-.065,6.012,3.53-.022.074c-1.937-1.153-4.47-1.078-7.253.528L400.98,136.45c-6.076,3.508-11,12.918-11,21.02v7.985c0,3.937,1.17,6.829,3.064,8.37l-3.353-2.208c-2.818-1.615-5.38-4.127-5.38-9.486v-7.986C384.31,146.045,389.235,136.634,395.311,133.127Z" transform="translate(-384.31 -83.083)" fill="#20b3af"/>
            <path id="Path_4759" data-name="Path 4759" d="M394.9,133.641l84-48.689c2.6-1.5,4.985-1.669,6.867-.743l.06-.065,6.007,3.527-.022.074c-1.936-1.152-4.467-1.078-7.247.528l-84,48.689c-6.071,3.505-10.992,12.908-10.992,21v7.978c0,3.934,1.169,6.823,3.061,8.363l-3.35-2.206c-2.816-1.614-5.375-4.124-5.375-9.478v-7.979C383.909,146.549,388.83,137.146,394.9,133.641Z" transform="translate(-383.641 -83.391)" fill="#20b3af"/>
            <path id="Path_4760" data-name="Path 4760" d="M394.491,134.156l83.927-48.649c2.6-1.5,4.981-1.667,6.861-.742l.06-.065,6,3.524-.022.074c-1.934-1.151-4.463-1.077-7.241.527L400.15,137.474c-6.066,3.5-10.983,12.9-10.983,20.985v7.972c0,3.931,1.168,6.817,3.058,8.356l-3.347-2.2c-2.813-1.613-5.371-4.12-5.371-9.47v-7.973C383.508,147.053,388.425,137.658,394.491,134.156Z" transform="translate(-382.973 -83.699)" fill="#20b3af"/>
            <path id="Path_4761" data-name="Path 4761" d="M394.082,134.671,477.94,86.061c2.6-1.5,4.977-1.665,6.856-.741l.06-.065,6,3.521-.022.074c-1.933-1.15-4.46-1.076-7.235.527l-83.858,48.609c-6.061,3.5-10.974,12.887-10.974,20.968v7.965c0,3.928,1.167,6.812,3.056,8.349l-3.344-2.2c-2.811-1.611-5.367-4.117-5.367-9.463v-7.966C383.108,147.557,388.021,138.17,394.082,134.671Z" transform="translate(-382.306 -84.006)" fill="#20b3af"/>
            <path id="Path_4762" data-name="Path 4762" d="M393.672,135.185l83.789-48.57c2.593-1.5,4.973-1.664,6.85-.741l.06-.065,5.992,3.518-.022.074c-1.931-1.149-4.456-1.075-7.229.526l-83.79,48.57c-6.056,3.5-10.964,12.876-10.964,20.951v7.959c0,3.925,1.166,6.807,3.053,8.343l-3.341-2.2c-2.809-1.61-5.362-4.114-5.362-9.455v-7.959C382.707,148.061,387.616,138.681,393.672,135.185Z" transform="translate(-381.638 -84.314)" fill="#20b3af"/>
            <path id="Path_4763" data-name="Path 4763" d="M393.262,135.7l83.72-48.529c2.591-1.5,4.969-1.663,6.845-.74l.06-.065,5.987,3.516-.022.074c-1.929-1.148-4.453-1.074-7.224.526l-83.721,48.529c-6.051,3.494-10.956,12.866-10.956,20.934V167.9c0,3.921,1.165,6.8,3.051,8.336l-3.339-2.2c-2.807-1.609-5.358-4.11-5.358-9.447v-7.953C382.306,148.565,387.211,139.193,393.262,135.7Z" transform="translate(-380.97 -84.622)" fill="#20b3af"/>
            <path id="Path_4764" data-name="Path 4764" d="M392.852,136.214,476.5,87.724c2.589-1.495,4.965-1.661,6.839-.739l.059-.065,5.983,3.512-.022.074c-1.928-1.148-4.449-1.073-7.218.525l-83.651,48.49c-6.046,3.491-10.947,12.855-10.947,20.916v7.946c0,3.918,1.164,6.8,3.049,8.329l-3.336-2.2c-2.8-1.607-5.353-4.107-5.353-9.44V157.13C381.9,149.069,386.806,139.7,392.852,136.214Z" transform="translate(-380.301 -84.93)" fill="#20b3af"/>
          </g>
          <path id="Path_4765" data-name="Path 4765" d="M386.958,140.572l84.065-48.729c6.076-3.508,11,.215,11,8.316v7.986c0,8.1-4.925,17.511-11,21.019l-17.643,10.79-4.958,28.107-9.452-19.82-52.013,29.652c-6.076,3.508-11-.215-11-8.316v-7.985C375.957,153.49,380.882,144.08,386.958,140.572Z" transform="translate(-370.288 -87.204)" fill="url(#linear-gradient)"/>
          <path id="Path_4766" data-name="Path 4766" d="M451.293,221.91l3.426-1.979,9.452,19.82-5.519-3.234Z" transform="translate(-386.036 -158.894)" fill="url(#linear-gradient-2)"/>
          <path id="Path_4767" data-name="Path 4767" d="M395.659,139.42l84.065-48.729c3.018-1.742,5.75-1.7,7.738-.221a7.92,7.92,0,0,0-6.742.558l-84.065,48.729c-6.076,3.508-11,12.918-11,21.02v7.985c0,4.078,1.591,7.426,3.605,8.921-2.782-1.055-4.6-4.344-4.6-9.258V160.44C384.658,152.338,389.583,142.928,395.659,139.42Z" transform="translate(-379.606 -86.567)" fill="url(#radial-gradient)" style="mix-blend-mode: color-dodge;isolation: isolate"/>
          <g id="Group_2161" data-name="Group 2161" transform="translate(14.597 18.153)">
            <path id="Path_4768" data-name="Path 4768" d="M407.027,125.007l-1.392,5.4a1.889,1.889,0,0,1-.777,1.1l-4.238,2.545c-.8.479-1.126,1.831-.491,2.017l3.377.988c.28.082.4.432.3.877l-1.227,5.363c-.231,1.009.631,1.23,1.285.33l3.478-4.786a1.08,1.08,0,0,1,.961-.554l3.479.769c.655.145,1.516-1.071,1.285-1.813l-1.227-3.946a1.542,1.542,0,0,1,.3-1.219l3.377-4.888c.636-.919.306-1.892-.491-1.45l-4.237,2.347c-.352.195-.662.116-.777-.2l-1.392-3.79C408.353,123.378,407.288,123.992,407.027,125.007Z" transform="translate(-329.34 -123.782)" fill="#afb6e5"/>
            <path id="Path_4769" data-name="Path 4769" d="M446.519,147.808l-1.392,5.4a1.887,1.887,0,0,1-.777,1.1l-4.237,2.545c-.8.479-1.126,1.831-.491,2.017l3.377.988c.281.082.4.432.3.877l-1.227,5.363c-.231,1.009.631,1.23,1.285.329l3.479-4.786a1.08,1.08,0,0,1,.96-.554l3.479.769c.654.145,1.516-1.071,1.285-1.813l-1.227-3.946a1.544,1.544,0,0,1,.3-1.22L455,149.983c.635-.919.306-1.892-.491-1.45l-4.237,2.347c-.351.195-.661.115-.777-.2l-1.392-3.79C447.845,146.178,446.78,146.793,446.519,147.808Z" transform="translate(-386.446 -136.413)" fill="#afb6e5"/>
            <path id="Path_4770" data-name="Path 4770" d="M486.01,170.608l-1.392,5.4a1.889,1.889,0,0,1-.777,1.1l-4.238,2.545c-.8.479-1.126,1.831-.491,2.016l3.377.988c.28.082.4.432.3.877l-1.227,5.363c-.231,1.009.631,1.23,1.285.33l3.479-4.786a1.081,1.081,0,0,1,.961-.555l3.479.769c.655.145,1.516-1.071,1.285-1.813l-1.227-3.946a1.542,1.542,0,0,1,.3-1.219l3.377-4.888c.636-.92.306-1.892-.491-1.45l-4.237,2.347c-.352.195-.662.116-.777-.2l-1.392-3.79C487.336,168.979,486.271,169.593,486.01,170.608Z" transform="translate(-443.551 -149.044)" fill="#afb6e5"/>
            <path id="Path_4771" data-name="Path 4771" d="M525.5,193.408l-1.392,5.4a1.888,1.888,0,0,1-.777,1.1l-4.237,2.545c-.8.479-1.126,1.831-.491,2.017l3.377.988c.281.082.4.432.3.877l-1.227,5.363c-.231,1.009.631,1.23,1.285.33l3.479-4.786a1.081,1.081,0,0,1,.96-.554l3.479.769c.654.145,1.516-1.071,1.285-1.814l-1.227-3.946a1.543,1.543,0,0,1,.3-1.22l3.377-4.888c.635-.919.306-1.892-.491-1.45l-4.237,2.347c-.352.194-.661.115-.777-.2l-1.392-3.79C526.828,191.779,525.763,192.393,525.5,193.408Z" transform="translate(-500.657 -161.675)" fill="#afb6e5"/>
            <path id="Path_4772" data-name="Path 4772" d="M564.993,216.209l-1.392,5.4a1.889,1.889,0,0,1-.777,1.1l-4.238,2.545c-.8.479-1.126,1.831-.491,2.017l3.377.988c.28.082.4.432.3.877l-1.227,5.363c-.231,1.009.631,1.23,1.285.329l3.479-4.786a1.081,1.081,0,0,1,.961-.555l3.478.769c.655.145,1.516-1.071,1.285-1.813l-1.227-3.946a1.542,1.542,0,0,1,.3-1.219l3.377-4.888c.636-.92.306-1.892-.491-1.45l-4.237,2.347c-.352.195-.662.116-.777-.2l-1.392-3.79C566.319,214.579,565.254,215.194,564.993,216.209Z" transform="translate(-557.762 -174.306)" fill="#afb6e5"/>
            <g id="Group_2159" data-name="Group 2159" transform="translate(17.631 30.513)">
              <path id="Path_4773" data-name="Path 4773" d="M532.885,195.735l-1.289-3.511a.435.435,0,0,1,.589.274L533.473,196A.442.442,0,0,1,532.885,195.735Z" transform="translate(-523.383 -192.195)" fill="#ced3f4"/>
              <path id="Path_4774" data-name="Path 4774" d="M549.784,219.6a.491.491,0,0,1,.314.443l-3-.877a.478.478,0,0,1-.317-.444Z" transform="translate(-546.782 -206.891)" fill="#ced3f4"/>
              <path id="Path_4775" data-name="Path 4775" d="M518.9,213.756l3.479-4.786a1.08,1.08,0,0,1,.96-.554l3.479.769c.654.145,1.516-1.071,1.285-1.813l-1.227-3.946a1.541,1.541,0,0,1,.3-1.22l3.377-4.888a1.72,1.72,0,0,0,.333-.958c.7-.268.958.645.359,1.511l-3.377,4.888a1.543,1.543,0,0,0-.3,1.22l1.227,3.946c.231.743-.631,1.958-1.285,1.814l-3.479-.769a1.08,1.08,0,0,0-.96.554l-3.479,4.786c-.585.806-1.33.708-1.317-.042A1.378,1.378,0,0,0,518.9,213.756Z" transform="translate(-515.539 -194.476)" fill="#ced3f4"/>
            </g>
            <g id="Group_2160" data-name="Group 2160" transform="translate(0.018 40.683)">
              <path id="Path_4776" data-name="Path 4776" d="M572.377,218.535l-1.289-3.511a.435.435,0,0,1,.589.274l1.287,3.507A.443.443,0,0,1,572.377,218.535Z" transform="translate(-562.875 -214.995)" fill="#ced3f4"/>
              <path id="Path_4777" data-name="Path 4777" d="M558.388,236.556l3.479-4.786a1.08,1.08,0,0,1,.96-.554l3.479.769c.654.145,1.516-1.071,1.285-1.813l-1.227-3.946a1.54,1.54,0,0,1,.3-1.219l3.377-4.888a1.723,1.723,0,0,0,.333-.958c.7-.268.958.645.359,1.512l-3.377,4.888a1.541,1.541,0,0,0-.3,1.219l1.227,3.946c.231.742-.63,1.958-1.285,1.813l-3.479-.769a1.081,1.081,0,0,0-.961.555l-3.479,4.786c-.585.806-1.33.709-1.317-.042A1.382,1.382,0,0,0,558.388,236.556Z" transform="translate(-555.031 -217.276)" fill="#ced3f4"/>
              <path id="Path_4778" data-name="Path 4778" d="M589.276,242.4a.49.49,0,0,1,.314.443l-3-.878a.477.477,0,0,1-.317-.444Z" transform="translate(-586.274 -229.691)" fill="#ced3f4"/>
            </g>
          </g>
          <path id="Path_4779" data-name="Path 4779" d="M407.027,125.007l-1.392,5.4a1.889,1.889,0,0,1-.777,1.1l-4.238,2.545c-.8.479-1.126,1.831-.491,2.017l3.377.988c.28.082.4.432.3.877l-1.227,5.363c-.231,1.009.631,1.23,1.285.33l3.478-4.786a1.08,1.08,0,0,1,.961-.554l3.479.769c.655.145,1.516-1.071,1.285-1.813l-1.227-3.946a1.542,1.542,0,0,1,.3-1.219l3.377-4.888c.636-.919.306-1.892-.491-1.45l-4.237,2.347c-.352.195-.662.116-.777-.2l-1.392-3.79C408.353,123.378,407.288,123.992,407.027,125.007Z" transform="translate(-314.743 -105.63)" fill="#afb6e5"/>
          <path id="Path_4780" data-name="Path 4780" d="M446.519,147.808l-1.392,5.4a1.887,1.887,0,0,1-.777,1.1l-4.237,2.545c-.8.479-1.126,1.831-.491,2.017l3.377.988c.281.082.4.432.3.877l-1.227,5.363c-.231,1.009.631,1.23,1.285.329l3.479-4.786a1.08,1.08,0,0,1,.96-.554l3.479.769c.654.145,1.516-1.071,1.285-1.813l-1.227-3.946a1.544,1.544,0,0,1,.3-1.22L455,149.983c.635-.919.306-1.892-.491-1.45l-4.237,2.347c-.351.195-.661.115-.777-.2l-1.392-3.79C447.845,146.178,446.78,146.793,446.519,147.808Z" transform="translate(-371.849 -118.261)" fill="#afb6e5"/>
          <path id="Path_4781" data-name="Path 4781" d="M486.01,170.608l-1.392,5.4a1.889,1.889,0,0,1-.777,1.1l-4.238,2.545c-.8.479-1.126,1.831-.491,2.016l3.377.988c.28.082.4.432.3.877l-1.227,5.363c-.231,1.009.631,1.23,1.285.33l3.479-4.786a1.081,1.081,0,0,1,.961-.555l3.479.769c.655.145,1.516-1.071,1.285-1.813l-1.227-3.946a1.542,1.542,0,0,1,.3-1.219l3.377-4.888c.636-.92.306-1.892-.491-1.45l-4.237,2.347c-.352.195-.662.116-.777-.2l-1.392-3.79C487.336,168.979,486.271,169.593,486.01,170.608Z" transform="translate(-428.954 -130.892)" fill="#afb6e5"/>
          <g id="Group_2164" data-name="Group 2164" transform="translate(50.096 38.547)">
            <g id="Group_2162" data-name="Group 2162">
              <path id="Path_4782" data-name="Path 4782" d="M505.027,200.164a2.543,2.543,0,0,0-.076-.732l.392.152c.279.082.4.43.3.873l-1.221,5.337a.792.792,0,0,0,.132.781l-.458-.207c-.252-.081-.4-.381-.285-.867Z" transform="translate(-501.04 -186.085)" fill="url(#linear-gradient-3)"/>
              <path id="Path_4783" data-name="Path 4783" d="M482.5,174.019l-4.217,2.336c-.35.194-.658.115-.773-.2l.376-.213,4-2.218a.524.524,0,0,1,.644,0l.551.236,0,.006A.568.568,0,0,0,482.5,174.019Z" transform="translate(-466.739 -171.785)" fill="url(#linear-gradient-4)"/>
              <path id="Path_4784" data-name="Path 4784" d="M494.378,179.723l4.217-2.533a1.878,1.878,0,0,0,.773-1.091l1.385-5.371c.228-.884,1.068-1.463,1.449-1.119l.544.233-.008.009c-.406-.22-1.16.339-1.374,1.169l-1.384,5.371a1.879,1.879,0,0,1-.773,1.091l-4.217,2.533c-.734.441-1.067,1.624-.613,1.945h0l-.548-.26C493.284,181.446,493.614,180.183,494.378,179.723Z" transform="translate(-493.559 -169.508)" fill="url(#linear-gradient-5)"/>
            </g>
            <path id="Path_4785" data-name="Path 4785" d="M484.175,171.385l-1.384,5.371a1.879,1.879,0,0,1-.773,1.091L477.8,180.38c-.793.476-1.12,1.822-.488,2.007l3.361.983c.279.082.4.43.3.873l-1.221,5.337c-.23,1,.628,1.224,1.279.328l3.462-4.763a1.075,1.075,0,0,1,.956-.552l3.462.766c.651.144,1.509-1.066,1.279-1.8l-1.221-3.927a1.535,1.535,0,0,1,.3-1.214l3.361-4.864c.632-.915.3-1.883-.488-1.443l-4.217,2.336c-.35.194-.658.115-.773-.2l-1.384-3.772C485.5,169.762,484.436,170.374,484.175,171.385Z" transform="translate(-476.37 -169.872)" fill="url(#linear-gradient-6)"/>
            <path id="Path_4786" data-name="Path 4786" d="M501.89,170.472c-.26-.71-1.321-.1-1.581.913l-1.384,5.371a1.879,1.879,0,0,1-.773,1.091l-4.217,2.533c-.793.476-1.12,1.822-.488,2.007l3.361.983c.279.082.4.43.3.873l-1.221,5.337c-.23,1,.628,1.224,1.279.328l3.462-4.763Z" transform="translate(-492.504 -169.872)" fill="url(#radial-gradient-2)" style="mix-blend-mode: screen;isolation: isolate"/>
            <g id="Group_2163" data-name="Group 2163" transform="translate(0.596 0.296)">
              <path id="Path_4787" data-name="Path 4787" d="M482.223,174.482l-4.217,2.336a.52.52,0,0,1-.678-.039.6.6,0,0,0,.549-.061l4.217-2.336c.305-.169.541-.128.68.036A.583.583,0,0,0,482.223,174.482Z" transform="translate(-466.944 -172.444)" fill="#fff"/>
              <path id="Path_4788" data-name="Path 4788" d="M504.772,200.805a.859.859,0,0,0-.1-.744c.231.114.324.438.231.844l-1.222,5.338a.83.83,0,0,0,.1.746c-.217-.105-.333-.4-.23-.846Z" transform="translate(-500.784 -186.73)" fill="#fff"/>
              <path id="Path_4789" data-name="Path 4789" d="M494.191,180.384l4.217-2.533a1.879,1.879,0,0,0,.773-1.091l1.384-5.371c.235-.91,1.117-1.494,1.48-1.082-.411-.188-1.141.366-1.351,1.181l-1.385,5.371a1.875,1.875,0,0,1-.773,1.091l-4.217,2.533c-.687.413-1.024,1.477-.69,1.875C493.1,182.09,493.432,180.84,494.191,180.384Z" transform="translate(-493.372 -170.172)" fill="#fff"/>
            </g>
          </g>
          <g id="Group_2167" data-name="Group 2167" transform="translate(67.639 28.437)">
            <g id="Group_2165" data-name="Group 2165">
              <path id="Path_4790" data-name="Path 4790" d="M465.694,177.5a2.554,2.554,0,0,0-.076-.731l.391.152c.279.082.4.43.3.873l-1.221,5.337a.793.793,0,0,0,.132.781l-.458-.207c-.252-.081-.4-.381-.285-.867Z" transform="translate(-461.707 -163.419)" fill="url(#linear-gradient-7)"/>
              <path id="Path_4791" data-name="Path 4791" d="M443.166,151.352l-4.217,2.336c-.35.194-.659.115-.773-.2l.376-.213,4-2.218a.523.523,0,0,1,.644,0l.551.236-.005.005A.567.567,0,0,0,443.166,151.352Z" transform="translate(-427.405 -149.118)" fill="url(#linear-gradient-8)"/>
              <path id="Path_4792" data-name="Path 4792" d="M455.045,157.056l4.217-2.533a1.878,1.878,0,0,0,.773-1.091l1.385-5.371c.228-.884,1.068-1.463,1.449-1.119l.544.233-.008.009c-.406-.22-1.159.339-1.373,1.17l-1.385,5.371a1.878,1.878,0,0,1-.773,1.091l-4.217,2.533c-.734.441-1.067,1.624-.612,1.945h0l-.548-.26C453.951,158.78,454.281,157.516,455.045,157.056Z" transform="translate(-454.226 -146.842)" fill="url(#linear-gradient-5)"/>
            </g>
            <path id="Path_4793" data-name="Path 4793" d="M444.842,148.718l-1.385,5.371a1.878,1.878,0,0,1-.773,1.091l-4.217,2.533c-.793.477-1.12,1.822-.488,2.007l3.361.983c.279.082.4.43.3.873l-1.221,5.337c-.23,1,.628,1.224,1.279.328l3.462-4.763a1.076,1.076,0,0,1,.956-.552l3.462.766c.651.144,1.508-1.066,1.279-1.8l-1.222-3.927a1.533,1.533,0,0,1,.3-1.214l3.361-4.865c.632-.915.305-1.883-.488-1.443l-4.217,2.336c-.35.194-.659.115-.773-.2l-1.385-3.772C446.162,147.1,445.1,147.708,444.842,148.718Z" transform="translate(-437.037 -147.206)" fill="url(#linear-gradient-6)"/>
            <path id="Path_4794" data-name="Path 4794" d="M462.557,147.805c-.26-.709-1.32-.1-1.581.913l-1.385,5.371a1.878,1.878,0,0,1-.773,1.091l-4.217,2.533c-.793.477-1.12,1.822-.488,2.007l3.361.983c.279.082.4.43.3.873l-1.221,5.337c-.23,1,.628,1.224,1.279.328l3.462-4.763Z" transform="translate(-453.171 -147.206)" fill="url(#radial-gradient-3)" style="mix-blend-mode: screen;isolation: isolate"/>
            <g id="Group_2166" data-name="Group 2166" transform="translate(0.596 0.296)">
              <path id="Path_4795" data-name="Path 4795" d="M442.89,151.815l-4.217,2.336a.52.52,0,0,1-.678-.038.6.6,0,0,0,.55-.062l4.217-2.336c.306-.169.541-.129.68.036A.584.584,0,0,0,442.89,151.815Z" transform="translate(-427.611 -149.777)" fill="#fff"/>
              <path id="Path_4796" data-name="Path 4796" d="M465.439,178.138a.859.859,0,0,0-.1-.744c.231.114.324.438.231.844l-1.221,5.338a.831.831,0,0,0,.1.746c-.217-.105-.333-.4-.23-.846Z" transform="translate(-461.451 -164.063)" fill="#fff"/>
              <path id="Path_4797" data-name="Path 4797" d="M454.858,157.717l4.217-2.533a1.877,1.877,0,0,0,.773-1.091l1.385-5.371c.235-.911,1.117-1.494,1.48-1.082-.411-.189-1.141.366-1.351,1.181l-1.385,5.371a1.879,1.879,0,0,1-.773,1.091l-4.217,2.533c-.687.413-1.024,1.477-.69,1.875C453.768,159.423,454.1,158.174,454.858,157.717Z" transform="translate(-454.038 -147.506)" fill="#fff"/>
            </g>
          </g>
          <g id="Group_2170" data-name="Group 2170" transform="translate(85.331 18.291)">
            <g id="Group_2168" data-name="Group 2168">
              <path id="Path_4798" data-name="Path 4798" d="M426.027,154.747a2.539,2.539,0,0,0-.076-.731l.392.152c.279.082.4.43.3.873l-1.221,5.337a.792.792,0,0,0,.132.781l-.458-.207c-.252-.081-.4-.381-.285-.867Z" transform="translate(-422.04 -140.669)" fill="url(#linear-gradient-11)"/>
              <path id="Path_4799" data-name="Path 4799" d="M403.5,128.6l-4.217,2.336c-.35.194-.658.115-.773-.2l.376-.213,4-2.218a.523.523,0,0,1,.644,0l.551.236,0,.005A.567.567,0,0,0,403.5,128.6Z" transform="translate(-387.739 -126.368)" fill="url(#linear-gradient-8)"/>
              <path id="Path_4800" data-name="Path 4800" d="M415.378,134.306l4.217-2.533a1.88,1.88,0,0,0,.773-1.091l1.385-5.371c.228-.884,1.068-1.463,1.449-1.119l.544.233-.008.009c-.406-.22-1.16.339-1.374,1.17l-1.384,5.371a1.879,1.879,0,0,1-.773,1.091l-4.217,2.533c-.734.441-1.067,1.624-.613,1.945h0l-.548-.26C414.284,136.03,414.613,134.766,415.378,134.306Z" transform="translate(-414.559 -124.092)" fill="url(#linear-gradient-5)"/>
            </g>
            <path id="Path_4801" data-name="Path 4801" d="M405.175,125.968l-1.384,5.371a1.879,1.879,0,0,1-.773,1.091l-4.217,2.533c-.793.477-1.12,1.822-.488,2.007l3.361.983c.279.082.4.43.3.873l-1.221,5.338c-.23,1,.628,1.224,1.279.328l3.462-4.763a1.076,1.076,0,0,1,.956-.552l3.462.766c.651.144,1.509-1.066,1.279-1.8l-1.221-3.927a1.534,1.534,0,0,1,.3-1.214l3.361-4.865c.632-.915.3-1.883-.488-1.443l-4.217,2.336c-.35.194-.658.115-.773-.2l-1.384-3.772C406.5,124.346,405.436,124.958,405.175,125.968Z" transform="translate(-397.37 -124.456)" fill="url(#linear-gradient-6)"/>
            <path id="Path_4802" data-name="Path 4802" d="M422.89,125.055c-.26-.709-1.321-.1-1.581.913l-1.384,5.371a1.879,1.879,0,0,1-.773,1.091l-4.217,2.533c-.793.477-1.12,1.822-.488,2.007l3.361.983c.279.082.4.43.3.873l-1.221,5.338c-.23,1,.628,1.224,1.279.328l3.462-4.763Z" transform="translate(-413.504 -124.456)" fill="url(#radial-gradient-4)" style="mix-blend-mode: screen;isolation: isolate"/>
            <g id="Group_2169" data-name="Group 2169" transform="translate(0.596 0.296)">
              <path id="Path_4803" data-name="Path 4803" d="M403.223,129.065l-4.217,2.336a.52.52,0,0,1-.678-.038.6.6,0,0,0,.549-.062l4.217-2.336c.305-.169.541-.129.68.036A.584.584,0,0,0,403.223,129.065Z" transform="translate(-387.944 -127.027)" fill="#fff"/>
              <path id="Path_4804" data-name="Path 4804" d="M425.772,155.388a.859.859,0,0,0-.1-.744c.231.114.324.438.231.844l-1.222,5.338a.831.831,0,0,0,.1.746c-.217-.105-.333-.4-.23-.846Z" transform="translate(-421.784 -141.313)" fill="#fff"/>
              <path id="Path_4805" data-name="Path 4805" d="M415.191,134.967l4.217-2.533a1.879,1.879,0,0,0,.773-1.091l1.384-5.371c.235-.911,1.117-1.494,1.48-1.082-.411-.189-1.141.366-1.351,1.181l-1.385,5.371a1.876,1.876,0,0,1-.773,1.091l-4.217,2.533c-.687.413-1.024,1.477-.69,1.875C414.1,136.673,414.432,135.424,415.191,134.967Z" transform="translate(-414.372 -124.756)" fill="#fff"/>
            </g>
          </g>
        </g>
        <g id="Group_2176" data-name="Group 2176" transform="translate(106.979 74.412)">
          <path id="Path_4834" data-name="Path 4834" d="M490.554,229.92c-.024.207-.2,1.034-1.483,1.425-1.473.449-3.394.574-4.328,1.275-.351.264-.636.494-.855.678l-.443.576a14.278,14.278,0,0,1,1.4-1.167c.934-.7,2.855-.826,4.328-1.275s1.487-1.474,1.487-1.474Z" transform="translate(-483.445 -229.92)" opacity="0.5" fill="url(#radial-gradient-5)" style="mix-blend-mode: color-dodge;isolation: isolate"/>
        </g>
      </g>
      <g id="Group_2207" data-name="Group 2207" transform="translate(34.79 51.967)">
        <path id="Path_4807" data-name="Path 4807" d="M507.175,216.8l-1.384,5.371a1.879,1.879,0,0,1-.773,1.091L500.8,225.8c-.793.476-1.12,1.822-.488,2.007l3.361.983c.279.082.4.43.3.872L502.747,235c-.23,1,.628,1.223,1.279.328l3.462-4.763a1.075,1.075,0,0,1,.956-.552l3.462.765c.651.144,1.509-1.066,1.279-1.8l-1.221-3.928a1.535,1.535,0,0,1,.3-1.214l3.361-4.865c.632-.915.3-1.882-.488-1.443l-4.217,2.336c-.35.194-.658.115-.773-.2l-1.384-3.772C508.5,215.179,507.436,215.791,507.175,216.8Z" transform="translate(-498.783 -214.926)" fill="url(#linear-gradient-6)"/>
        <path id="Path_4808" data-name="Path 4808" d="M511.911,230.358a1.879,1.879,0,0,1-.773,1.091l-4.217,2.533c-.793.476-1.12,1.822-.488,2.007l3.361.983c.279.082.4.43.3.872l-1.221,5.338c-.23,1,.628,1.223,1.279.328l3.462-4.763a1.075,1.075,0,0,1,.956-.552l3.462.765c.651.144,1.509-1.066,1.279-1.8Z" transform="translate(-504.903 -223.112)" fill="url(#radial-gradient-6)" style="mix-blend-mode: screen;isolation: isolate"/>
        <g id="Group_2172" data-name="Group 2172" transform="translate(1.183 0.659)">
          <path id="Path_4809" data-name="Path 4809" d="M505.223,219.9l-4.217,2.336a.52.52,0,0,1-.678-.038.6.6,0,0,0,.549-.062l4.217-2.336c.305-.169.541-.128.68.036A.584.584,0,0,0,505.223,219.9Z" transform="translate(-489.944 -217.861)" fill="#fff"/>
          <path id="Path_4810" data-name="Path 4810" d="M527.772,246.221a.859.859,0,0,0-.1-.744c.231.115.324.438.231.844l-1.222,5.337a.831.831,0,0,0,.1.746c-.217-.105-.333-.4-.23-.846Z" transform="translate(-523.784 -232.147)" fill="#fff"/>
          <path id="Path_4811" data-name="Path 4811" d="M517.191,225.8l4.217-2.533a1.879,1.879,0,0,0,.773-1.091l1.384-5.371c.235-.91,1.117-1.494,1.48-1.082-.411-.189-1.141.366-1.351,1.181l-1.385,5.371a1.878,1.878,0,0,1-.773,1.091L517.32,225.9c-.687.413-1.024,1.477-.69,1.875C516.1,227.507,516.432,226.257,517.191,225.8Z" transform="translate(-516.372 -215.589)" fill="#fff"/>
        </g>
        <g id="Group_2173" data-name="Group 2173" transform="translate(0 0)">
          <path id="Path_4812" data-name="Path 4812" d="M528.027,245.085a1.156,1.156,0,0,0,.018-.475l.884.259c.279.082.4.43.3.872L528,251.079a.791.791,0,0,0,.132.781l-1.045-.57c-.252-.081-.4-.381-.285-.867Z" transform="translate(-524.04 -231.007)" fill="url(#linear-gradient-16)"/>
          <path id="Path_4813" data-name="Path 4813" d="M505.711,218.985l-4.217,2.336c-.35.194-.658.115-.773-.2l-.211-.576,4-2.218a.524.524,0,0,1,.645,0l1.138.6,0,.006A.567.567,0,0,0,505.711,218.985Z" transform="translate(-489.363 -216.388)" fill="url(#linear-gradient-17)"/>
          <path id="Path_4814" data-name="Path 4814" d="M517.378,224.326l4.217-2.533a1.877,1.877,0,0,0,.773-1.091l1.385-5.371c.228-.884,1.068-1.463,1.449-1.119l1.131.6-.008.009c-.406-.22-1.16.339-1.374,1.169l-1.384,5.371a1.879,1.879,0,0,1-.773,1.091l-4.217,2.533c-.734.441-1.067,1.624-.613,1.945h0l-1.135-.623C516.284,226.05,516.613,224.786,517.378,224.326Z" transform="translate(-516.559 -214.111)" fill="url(#linear-gradient-18)"/>
        </g>
      </g>
    </g>
  </g>
</svg>
