<svg xmlns="http://www.w3.org/2000/svg" xmlns:xlink="http://www.w3.org/1999/xlink" width="144" height="111" viewBox="0 0 144 111">
  <defs>
    <clipPath id="clip-path">
      <rect id="Rectangle_651" data-name="Rectangle 651" width="144" height="111" transform="translate(262 1828)" fill="#fff" stroke="#707070" stroke-width="1"/>
    </clipPath>
    <clipPath id="clip-path-2">
      <path id="Path_3254" data-name="Path 3254" d="M310.385,28.7q-1.649-.96-3.3-1.918a1.9,1.9,0,0,0-1.909.186l3.3,1.919A1.9,1.9,0,0,1,310.385,28.7Z" transform="translate(-305.175 -26.6)" fill="#85a9ff"/>
    </clipPath>
    <linearGradient id="linear-gradient" x1="0.5" x2="0.5" y2="1" gradientUnits="objectBoundingBox">
      <stop offset="0" stop-color="#193b6a"/>
      <stop offset="1" stop-color="#20b3af"/>
    </linearGradient>
    <clipPath id="clip-path-3">
      <path id="Path_3323" data-name="Path 3323" d="M315.078,63.23l2.626,1.526a2.379,2.379,0,0,0-.239-.119.989.989,0,0,0-.927.074l-2.625-1.527a.983.983,0,0,1,.927-.07A2.13,2.13,0,0,1,315.078,63.23Z" transform="translate(-313.914 -63.028)" fill="none"/>
    </clipPath>
  </defs>
  <g id="mot-reportsandstats" transform="translate(-262 -1828)" clip-path="url(#clip-path)">
    <g id="Group_840" data-name="Group 840" transform="translate(276 1829)">
      <g id="Group_747" data-name="Group 747" transform="translate(0 41.64)" opacity="0.1">
        <path id="Path_3234" data-name="Path 3234" d="M272.547,113.581l28.888,17.985,87-50.23L358.511,63.948Z" transform="translate(-272.547 -63.948)" fill="#193b6a"/>
      </g>
      <g id="Group_771" data-name="Group 771" transform="translate(15.366 0)">
        <g id="Group_752" data-name="Group 752" transform="translate(14.594 56.911)">
          <g id="Group_751" data-name="Group 751" transform="translate(0)" style="isolation: isolate">
            <g id="Group_748" data-name="Group 748" transform="translate(0 16.46)">
              <path id="Path_3235" data-name="Path 3235" d="M337.815,92.408l.005,2.34,13.154,7.643,0-2.339Z" transform="translate(-337.815 -92.408)" fill="#4881ff"/>
            </g>
            <g id="Group_749" data-name="Group 749" transform="translate(13.155 7.642)">
              <path id="Path_3236" data-name="Path 3236" d="M312.244,100.961l0,2.339,28.51-16.46-.005-2.34Z" transform="translate(-312.244 -84.499)" fill="#0f4bb7"/>
            </g>
            <g id="Group_750" data-name="Group 750">
              <path id="Path_3237" data-name="Path 3237" d="M312.249,94.1l13.155,7.643,28.509-16.462-13.154-7.642Z" transform="translate(-312.249 -77.645)" fill="#6a96ef"/>
            </g>
          </g>
        </g>
        <g id="Group_755" data-name="Group 755" transform="translate(58.935)">
          <path id="Path_3238" data-name="Path 3238" d="M310.385,28.7q-1.649-.96-3.3-1.918a1.9,1.9,0,0,0-1.909.186l3.3,1.919A1.9,1.9,0,0,1,310.385,28.7Z" transform="translate(-305.175 -26.6)" fill="#85a9ff"/>
          <g id="Group_754" data-name="Group 754" transform="translate(0)" clip-path="url(#clip-path-2)">
            <g id="Group_753" data-name="Group 753" transform="translate(0 0.001)" style="isolation: isolate">
              <path id="Path_3239" data-name="Path 3239" d="M308.691,28.69l-3.3-1.918a1.348,1.348,0,0,0-.215-.1l3.3,1.92a1.3,1.3,0,0,1,.215.1Z" transform="translate(-303.481 -26.593)" fill="#85a9ff"/>
              <path id="Path_3240" data-name="Path 3240" d="M308.857,28.6l-3.3-1.92a1.364,1.364,0,0,0-.187-.05l3.3,1.919a1.342,1.342,0,0,1,.188.051Z" transform="translate(-303.862 -26.598)" fill="#85a9ff"/>
              <path id="Path_3241" data-name="Path 3241" d="M308.992,28.547l-3.3-1.919a1.178,1.178,0,0,0-.155-.022l3.3,1.918a1.5,1.5,0,0,1,.151.023Z" transform="translate(-304.186 -26.6)" fill="#85a9ff"/>
              <path id="Path_3242" data-name="Path 3242" d="M309.115,28.524l-3.3-1.918c-.046,0-.091-.006-.138-.006l3.3,1.919c.05,0,.1,0,.144,0Z" transform="translate(-304.459 -26.601)" fill="#85a9ff"/>
              <path id="Path_3243" data-name="Path 3243" d="M309.226,28.52l-3.3-1.919c-.04,0-.085,0-.126,0l3.3,1.918c.04,0,.08,0,.122,0Z" transform="translate(-304.714 -26.601)" fill="#85a9ff"/>
              <path id="Path_3244" data-name="Path 3244" d="M309.329,28.522l-3.3-1.918c-.039,0-.076.006-.116.011l3.3,1.92c.041-.006.083-.011.122-.013Z" transform="translate(-304.939 -26.6)" fill="#85a9ff"/>
              <path id="Path_3245" data-name="Path 3245" d="M309.437,28.534l-3.3-1.92a1.175,1.175,0,0,0-.12.02l3.3,1.918c.039-.006.079-.013.116-.018Z" transform="translate(-305.168 -26.599)" fill="#85a9ff"/>
              <path id="Path_3246" data-name="Path 3246" d="M309.535,28.55l-3.3-1.918a.867.867,0,0,0-.109.025l3.3,1.918.113-.025Z" transform="translate(-305.382 -26.597)" fill="#85a9ff"/>
              <path id="Path_3247" data-name="Path 3247" d="M309.634,28.572l-3.3-1.918-.111.03,3.3,1.918c.041-.009.075-.02.11-.03Z" transform="translate(-305.594 -26.595)" fill="#85a9ff"/>
              <path id="Path_3248" data-name="Path 3248" d="M309.73,28.6l-3.3-1.918c-.038.011-.072.021-.107.033l3.3,1.921.1-.037Z" transform="translate(-305.8 -26.592)" fill="#85a9ff"/>
              <path id="Path_3249" data-name="Path 3249" d="M309.829,28.632l-3.3-1.921-.109.042,3.3,1.919c.037-.013.071-.028.109-.04Z" transform="translate(-306.002 -26.588)" fill="#85a9ff"/>
              <path id="Path_3250" data-name="Path 3250" d="M309.922,28.668l-3.3-1.919c-.037.014-.071.029-.1.046l3.3,1.919.108-.046Z" transform="translate(-306.205 -26.584)" fill="#85a9ff"/>
              <path id="Path_3251" data-name="Path 3251" d="M310.022,28.709l-3.3-1.919-.11.05,3.3,1.92c.038-.018.074-.036.109-.051Z" transform="translate(-306.413 -26.579)" fill="#85a9ff"/>
              <path id="Path_3252" data-name="Path 3252" d="M310.121,28.755l-3.3-1.92-.11.058,3.3,1.92c.038-.021.075-.04.11-.058Z" transform="translate(-306.621 -26.574)" fill="#85a9ff"/>
              <path id="Path_3253" data-name="Path 3253" d="M310.2,28.807l-3.3-1.92-.088.047,3.3,1.919c.032-.014.058-.031.087-.046Z" transform="translate(-306.808 -26.568)" fill="#85a9ff"/>
            </g>
          </g>
        </g>
        <path id="Path_3255" data-name="Path 3255" d="M362.242,94.47l.013,4.622a3.041,3.041,0,0,0,.054.572.093.093,0,0,1,0,.023,2.226,2.226,0,0,0,.151.469l0,.008a1.766,1.766,0,0,0,.207.317c.022.028.046.059.069.085a1.341,1.341,0,0,0,.3.244l-3.3-1.919a1.313,1.313,0,0,1-.291-.242.848.848,0,0,1-.078-.1.812.812,0,0,1-.094-.117,1.119,1.119,0,0,1-.1-.183l0-.006,0-.012c-.02-.043-.038-.088-.057-.135a.83.83,0,0,1-.046-.14c-.016-.045-.026-.09-.04-.137a.241.241,0,0,0-.009-.056l0-.019c0-.017-.006-.036-.011-.055-.007-.042-.014-.086-.02-.129s-.008-.084-.011-.126-.008-.085-.009-.127,0-.084,0-.128v-.008l-.013-4.624Z" transform="translate(-358.837 -19.02)" fill="#4881ff"/>
        <path id="Path_3256" data-name="Path 3256" d="M348.14,95.115,337.481,94.4l8.291-4.786Z" transform="translate(-320.014 -19.358)" fill="#4881ff"/>
        <g id="Group_760" data-name="Group 760" transform="translate(25.425 46.083)">
          <g id="Group_759" data-name="Group 759" transform="translate(0)" style="isolation: isolate">
            <g id="Group_756" data-name="Group 756" transform="translate(0 8.955)">
              <path id="Path_3257" data-name="Path 3257" d="M340.348,77.532l-2.7-1.567-1.619,19.151,2.7,1.567Z" transform="translate(-336.033 -75.965)" fill="#85a9ff"/>
            </g>
            <g id="Group_757" data-name="Group 757" transform="translate(1.619)">
              <path id="Path_3258" data-name="Path 3258" d="M340.328,69.5l-2.7-1.568L322.12,76.888l2.7,1.567Z" transform="translate(-322.12 -67.933)" fill="#85a9ff"/>
            </g>
            <g id="Group_758" data-name="Group 758" transform="translate(2.7 1.568)">
              <path id="Path_3259" data-name="Path 3259" d="M322.694,78.294l-1.615,19.151,18.287-10.56-1.161-17.545Z" transform="translate(-321.079 -69.339)" fill="#aecfff"/>
            </g>
          </g>
        </g>
        <g id="Group_761" data-name="Group 761" transform="translate(0.103 37.951)">
          <path id="Path_3260" data-name="Path 3260" d="M369.307,62.559l-3.3-1.919-61.622,35.58,3.3,1.918Z" transform="translate(-304.383 -60.639)" fill="#dcc9a0"/>
        </g>
        <g id="Group_762" data-name="Group 762" transform="translate(59.214 3.324)">
          <path id="Path_3261" data-name="Path 3261" d="M309.854,31.5l-3.3-1.918.1,33.253,3.3,1.919Z" transform="translate(-306.55 -29.581)" fill="#584245"/>
        </g>
        <g id="Group_763" data-name="Group 763" transform="translate(2.957 36.577)">
          <path id="Path_3262" data-name="Path 3262" d="M366.2,61.325l-3.3-1.919L306.55,91.941l3.3,1.917Z" transform="translate(-306.55 -59.406)" fill="#62494d"/>
        </g>
        <g id="Group_764" data-name="Group 764" transform="translate(3.405 39.871)">
          <path id="Path_3263" data-name="Path 3263" d="M304.373,97.939l.013,4.622c0,1.692,1.2,2.387,2.686,1.532L363.34,71.606a5.882,5.882,0,0,0,2.667-4.621L366,62.361Z" transform="translate(-304.373 -62.361)" fill="#91bdf2"/>
        </g>
        <g id="Group_765" data-name="Group 765" transform="translate(6.166 5.242)">
          <path id="Path_3264" data-name="Path 3264" d="M306.55,63.838l.094,33.251L363,64.555,362.9,31.3Z" transform="translate(-306.55 -31.301)" fill="url(#linear-gradient)"/>
        </g>
        <g id="Group_766" data-name="Group 766" transform="translate(2.865 35.858)">
          <path id="Path_3265" data-name="Path 3265" d="M360.4,60.682l-3.3-1.92.093,33.253,3.3,1.917Z" transform="translate(-357.094 -58.762)" fill="#82b3b8"/>
        </g>
        <g id="Group_767" data-name="Group 767" transform="translate(2.865 3.324)">
          <path id="Path_3266" data-name="Path 3266" d="M366.288,31.5l-3.3-1.918L306.634,62.115l3.3,1.92Z" transform="translate(-306.634 -29.581)" fill="#92c8ce"/>
        </g>
        <g id="Group_768" data-name="Group 768" transform="translate(0 37.476)">
          <path id="Path_3267" data-name="Path 3267" d="M362.954,62.133l-3.3-1.921.1,36.055,3.3,1.918Z" transform="translate(-359.654 -60.213)" fill="#4881ff"/>
        </g>
        <g id="Group_769" data-name="Group 769" transform="translate(2.669 0.367)">
          <path id="Path_3268" data-name="Path 3268" d="M366.455,28.848l-3.3-1.919L306.886,59.417l3.3,1.919Z" transform="translate(-306.886 -26.929)" fill="#85a9ff"/>
        </g>
        <g id="Group_770" data-name="Group 770" transform="translate(3.3 1.919)">
          <path id="Path_3269" data-name="Path 3269" d="M307.052,61.176a5.875,5.875,0,0,0-2.669,4.622l.1,36.053,61.623-35.578-.1-36.053c-.006-1.7-1.206-2.385-2.688-1.532Zm.29,36.255-.094-33.25L363.6,31.643l.094,33.254L307.342,97.431Z" transform="translate(-304.383 -28.321)" fill="#aecfff"/>
        </g>
        <path id="Path_3270" data-name="Path 3270" d="M357.354,60.689c0-.039,0-.08,0-.12s0-.086.006-.13.008-.087.011-.13.007-.088.011-.132.017-.09.025-.135V60.03c0-.041.013-.081.019-.124l.03-.14c.01-.047.019-.095.032-.14s.025-.095.036-.143.023-.074.031-.11l0,0a.248.248,0,0,1,.009-.027c.014-.045.03-.09.045-.137s.03-.091.047-.138.032-.086.049-.128.036-.087.054-.13.029-.064.04-.1l.006-.01a.047.047,0,0,1,.009-.022c.018-.043.038-.086.057-.129s.046-.094.068-.139.056-.107.083-.162.066-.122.1-.182l0-.008.025-.045,0,0h0l0,0c.061-.1.128-.212.2-.317.054-.077.106-.155.162-.229l.014-.02c.038-.049.072-.1.112-.146s.069-.086.1-.127.067-.083.1-.12.068-.079.1-.117l.021-.019.01-.014a1.052,1.052,0,0,0,.078-.081c.037-.038.077-.074.111-.109s.079-.076.119-.111.079-.07.119-.1c.021-.017.041-.036.062-.05l.011-.011c.019-.011.03-.026.047-.036.041-.03.077-.06.117-.09s.078-.057.117-.084.076-.051.116-.075.074-.048.11-.07a.12.12,0,0,0,.029-.016l3.3,1.919a3.961,3.961,0,0,0-.531.368l-.021.017a5.348,5.348,0,0,0-.481.453.022.022,0,0,0-.013.013,5.611,5.611,0,0,0-.447.536v0l0,.006a6.513,6.513,0,0,0-.389.591.045.045,0,0,0-.01.019,6.187,6.187,0,0,0-.563,1.294l0,.006a5.235,5.235,0,0,0-.152.658l0,.011h0a4.3,4.3,0,0,0-.053.647Z" transform="translate(-357.354 -23.213)" fill="#85a9ff"/>
      </g>
      <g id="Group_824" data-name="Group 824" transform="translate(4.939 21.53)">
        <g id="Group_773" data-name="Group 773" transform="translate(3.514 4.004)">
          <g id="Group_772" data-name="Group 772" transform="translate(0)">
            <path id="Path_3271" data-name="Path 3271" d="M293.327,111.543l-.764-.294c.231-.6,5.715-14.682,16-14.269,5.112.206,7.413-4.053,9.858-8.563,2.222-4.1,4.522-8.341,9.093-9.633,4.315-1.221,7.22-7.974,10.033-14.5,3.272-7.6,6.364-14.779,11.743-14.779h.031c3.214.017,5.013,2.725,6.751,5.343,2.322,3.5,4.723,7.113,10.616,5.316l10.752-3.275.237.784L366.93,60.943c-6.473,1.97-9.165-2.075-11.536-5.646-1.7-2.553-3.3-4.964-6.076-4.978H349.3c-4.842,0-7.971,7.261-10.994,14.286-2.887,6.705-5.873,13.64-10.562,14.967-4.242,1.2-6.455,5.286-8.6,9.235-2.457,4.533-4.976,9.234-10.612,8.991C298.881,97.426,293.38,111.4,293.327,111.543Z" transform="translate(-292.563 -49.501)" fill="#24b8d1"/>
          </g>
        </g>
        <g id="Group_775" data-name="Group 775" transform="translate(13.664 49.822)">
          <g id="Group_774" data-name="Group 774" transform="translate(1.041 1.289)">
            <path id="Path_3272" data-name="Path 3272" d="M358.038,91.9c.574-.333,1.046-.064,1.048.6a2.3,2.3,0,0,1-1.041,1.806c-.575.331-1.048.066-1.05-.6A2.3,2.3,0,0,1,358.038,91.9Z" transform="translate(-356.994 -91.753)" fill="#1c8ea2"/>
          </g>
          <path id="Path_3273" data-name="Path 3273" d="M356.056,94.49c0,1.326.94,1.859,2.095,1.193a4.589,4.589,0,0,0,2.084-3.6c0-1.326-.944-1.862-2.095-1.2A4.59,4.59,0,0,0,356.056,94.49Zm2.092-.059c-.575.331-1.048.066-1.05-.6a2.3,2.3,0,0,1,1.044-1.8c.574-.333,1.046-.064,1.048.6a2.3,2.3,0,0,1-1.041,1.806Z" transform="translate(-356.056 -90.597)" fill="#09aebf"/>
        </g>
        <g id="Group_777" data-name="Group 777" transform="translate(32.912 33.585)">
          <g id="Group_776" data-name="Group 776" transform="translate(1.047 1.29)">
            <path id="Path_3274" data-name="Path 3274" d="M340.767,77.334c.576-.333,1.047-.065,1.049.594a2.311,2.311,0,0,1-1.041,1.807c-.578.332-1.047.065-1.048-.6A2.3,2.3,0,0,1,340.767,77.334Z" transform="translate(-339.727 -77.19)" fill="#1c8ea2"/>
          </g>
          <path id="Path_3275" data-name="Path 3275" d="M338.792,79.927c0,1.326.944,1.861,2.1,1.193a4.591,4.591,0,0,0,2.08-3.6c0-1.327-.942-1.862-2.095-1.2A4.587,4.587,0,0,0,338.792,79.927Zm2.095-.059c-.578.332-1.047.065-1.048-.6a2.3,2.3,0,0,1,1.04-1.8c.576-.333,1.047-.065,1.049.594a2.311,2.311,0,0,1-1.041,1.807Z" transform="translate(-338.792 -76.033)" fill="#09aebf"/>
        </g>
        <g id="Group_779" data-name="Group 779" transform="translate(56.912 2.295)">
          <g id="Group_778" data-name="Group 778" transform="translate(1.044 1.289)">
            <path id="Path_3276" data-name="Path 3276" d="M319.247,49.268c.574-.332,1.046-.065,1.047.6a2.3,2.3,0,0,1-1.039,1.805c-.578.333-1.049.065-1.052-.6A2.3,2.3,0,0,1,319.247,49.268Z" transform="translate(-318.202 -49.125)" fill="#1c8ea2"/>
          </g>
          <path id="Path_3277" data-name="Path 3277" d="M317.265,51.863c0,1.323.942,1.859,2.1,1.192a4.59,4.59,0,0,0,2.083-3.6c0-1.329-.942-1.863-2.094-1.2A4.593,4.593,0,0,0,317.265,51.863Zm2.1-.061c-.578.333-1.049.065-1.052-.6a2.3,2.3,0,0,1,1.045-1.8c.574-.332,1.046-.065,1.047.6a2.3,2.3,0,0,1-1.039,1.805Z" transform="translate(-317.265 -47.969)" fill="#09aebf"/>
        </g>
        <g id="Group_781" data-name="Group 781" transform="translate(86.545 9.23)">
          <g id="Group_780" data-name="Group 780" transform="translate(1.044 1.29)">
            <path id="Path_3278" data-name="Path 3278" d="M292.665,55.489c.575-.333,1.048-.064,1.05.6a2.306,2.306,0,0,1-1.04,1.806c-.578.333-1.048.064-1.05-.6A2.307,2.307,0,0,1,292.665,55.489Z" transform="translate(-291.625 -55.346)" fill="#1c8ea2"/>
          </g>
          <path id="Path_3279" data-name="Path 3279" d="M290.689,58.085c0,1.323.941,1.859,2.095,1.193a4.585,4.585,0,0,0,2.083-3.606c0-1.327-.943-1.862-2.095-1.2A4.6,4.6,0,0,0,290.689,58.085Zm2.094-.06c-.578.333-1.048.064-1.05-.6a2.307,2.307,0,0,1,1.04-1.8c.575-.333,1.048-.064,1.05.6a2.306,2.306,0,0,1-1.04,1.806Z" transform="translate(-290.689 -54.189)" fill="#09aebf"/>
        </g>
        <g id="Group_783" data-name="Group 783" transform="translate(1.806 63.962)">
          <g id="Group_782" data-name="Group 782" transform="translate(1.044 1.29)">
            <path id="Path_3280" data-name="Path 3280" d="M368.673,104.579c.574-.332,1.045-.065,1.047.6a2.307,2.307,0,0,1-1.039,1.805c-.578.333-1.048.065-1.051-.6A2.3,2.3,0,0,1,368.673,104.579Z" transform="translate(-367.629 -104.436)" fill="#1c8ea2"/>
          </g>
          <path id="Path_3281" data-name="Path 3281" d="M366.692,107.173c0,1.325.943,1.86,2.1,1.194a4.593,4.593,0,0,0,2.083-3.607c0-1.326-.944-1.862-2.095-1.2A4.593,4.593,0,0,0,366.692,107.173Zm2.095-.06c-.578.333-1.048.065-1.051-.6a2.294,2.294,0,0,1,1.044-1.8c.574-.332,1.045-.065,1.047.6a2.308,2.308,0,0,1-1.039,1.805Z" transform="translate(-366.692 -103.279)" fill="#09aebf"/>
        </g>
        <g id="Group_791" data-name="Group 791" transform="translate(84.737 6.936)">
          <g id="Group_784" data-name="Group 784" transform="translate(0.818 1.052)" opacity="0.5">
            <path id="Path_3282" data-name="Path 3282" d="M292.873,53.5c1.7-.98,3.077-.193,3.084,1.758a6.763,6.763,0,0,1-3.064,5.311c-1.7.982-3.083.2-3.091-1.759A6.756,6.756,0,0,1,292.873,53.5Z" transform="translate(-289.803 -53.075)" fill="#85a9ff"/>
          </g>
          <g id="Group_786" data-name="Group 786" transform="translate(0)" opacity="0.5">
            <g id="Group_785" data-name="Group 785">
              <path id="Path_3283" data-name="Path 3283" d="M293.026,61.56a8.453,8.453,0,0,0,3.834-6.644c-.006-1.692-.87-2.785-2.2-2.785a3.533,3.533,0,0,0-1.75.533,8.467,8.467,0,0,0-3.839,6.642c.007,1.695.871,2.791,2.205,2.791A3.546,3.546,0,0,0,293.026,61.56Zm3.645-6.643a8.25,8.25,0,0,1-3.738,6.481,3.358,3.358,0,0,1-1.658.508c-1.239,0-2.012-1-2.017-2.6A8.27,8.27,0,0,1,293,52.826a3.365,3.365,0,0,1,1.657-.507C295.895,52.318,296.667,53.315,296.67,54.917Z" transform="translate(-289.069 -52.131)" fill="#85a9ff"/>
            </g>
          </g>
          <g id="Group_787" data-name="Group 787" transform="translate(2.209 2.84)" opacity="0.6">
            <path id="Path_3284" data-name="Path 3284" d="M292.732,54.909c.93-.536,1.688-.1,1.691.964a3.7,3.7,0,0,1-1.68,2.912c-.933.539-1.689.107-1.694-.964A3.71,3.71,0,0,1,292.732,54.909Z" transform="translate(-291.05 -54.678)" fill="#85a9ff"/>
          </g>
          <g id="Group_790" data-name="Group 790" transform="translate(2.517 3.193)">
            <g id="Group_788" data-name="Group 788" transform="translate(0)">
              <path id="Path_3285" data-name="Path 3285" d="M292.7,55.183c.76-.438,1.379-.086,1.381.788a3.023,3.023,0,0,1-1.371,2.377c-.763.438-1.38.086-1.384-.788A3.035,3.035,0,0,1,292.7,55.183Z" transform="translate(-291.328 -54.995)" fill="#85a9ff"/>
            </g>
            <g id="Group_789" data-name="Group 789" transform="translate(0.623 0.801)">
              <path id="Path_3286" data-name="Path 3286" d="M292.639,55.817c.418-.24.757-.048.757.43a1.653,1.653,0,0,1-.751,1.3c-.417.241-.756.048-.758-.43A1.662,1.662,0,0,1,292.639,55.817Z" transform="translate(-291.886 -55.713)" fill="#6e97ea"/>
            </g>
          </g>
        </g>
        <g id="Group_799" data-name="Group 799" transform="translate(55.107)">
          <g id="Group_792" data-name="Group 792" transform="translate(0.822 1.052)" opacity="0.5">
            <path id="Path_3287" data-name="Path 3287" d="M319.447,47.275c1.7-.98,3.076-.193,3.083,1.758a6.753,6.753,0,0,1-3.063,5.312c-1.7.982-3.084.2-3.087-1.758A6.748,6.748,0,0,1,319.447,47.275Z" transform="translate(-316.38 -46.854)" fill="#85a9ff"/>
          </g>
          <g id="Group_794" data-name="Group 794" transform="translate(0)" opacity="0.5">
            <g id="Group_793" data-name="Group 793">
              <path id="Path_3288" data-name="Path 3288" d="M319.6,55.34a8.471,8.471,0,0,0,3.834-6.644c-.006-1.692-.87-2.786-2.2-2.786a3.529,3.529,0,0,0-1.748.533,8.466,8.466,0,0,0-3.84,6.643c.006,1.694.871,2.79,2.2,2.79A3.551,3.551,0,0,0,319.6,55.34Zm3.644-6.644a8.255,8.255,0,0,1-3.738,6.48,3.343,3.343,0,0,1-1.66.51c-1.238,0-2.009-1-2.012-2.6a8.254,8.254,0,0,1,3.743-6.478,3.332,3.332,0,0,1,1.655-.508C322.468,46.1,323.243,47.094,323.246,48.7Z" transform="translate(-315.644 -45.91)" fill="#85a9ff"/>
            </g>
          </g>
          <g id="Group_795" data-name="Group 795" transform="translate(2.209 2.84)" opacity="0.6">
            <path id="Path_3289" data-name="Path 3289" d="M319.31,48.689c.929-.539,1.687-.106,1.69.963a3.7,3.7,0,0,1-1.68,2.912c-.933.539-1.69.106-1.694-.966A3.7,3.7,0,0,1,319.31,48.689Z" transform="translate(-317.626 -48.457)" fill="#85a9ff"/>
          </g>
          <g id="Group_798" data-name="Group 798" transform="translate(2.52 3.194)">
            <g id="Group_796" data-name="Group 796" transform="translate(0)">
              <path id="Path_3290" data-name="Path 3290" d="M319.275,48.963c.759-.438,1.379-.086,1.381.786a3.017,3.017,0,0,1-1.372,2.377c-.761.44-1.378.087-1.381-.787A3.022,3.022,0,0,1,319.275,48.963Z" transform="translate(-317.903 -48.775)" fill="#85a9ff"/>
            </g>
            <g id="Group_797" data-name="Group 797" transform="translate(0.622 0.8)">
              <path id="Path_3291" data-name="Path 3291" d="M319.214,49.595c.416-.239.756-.046.756.433a1.663,1.663,0,0,1-.749,1.3c-.42.241-.758.048-.758-.433A1.658,1.658,0,0,1,319.214,49.595Z" transform="translate(-318.463 -49.492)" fill="#6e97ea"/>
            </g>
          </g>
        </g>
        <g id="Group_807" data-name="Group 807" transform="translate(31.106 31.237)">
          <g id="Group_800" data-name="Group 800" transform="translate(0.819 1.052)" opacity="0.5">
            <path id="Path_3292" data-name="Path 3292" d="M340.975,75.291c1.7-.98,3.079-.192,3.084,1.758A6.755,6.755,0,0,1,341,82.361c-1.7.983-3.084.2-3.089-1.759A6.76,6.76,0,0,1,340.975,75.291Z" transform="translate(-337.907 -74.87)" fill="#85a9ff"/>
          </g>
          <g id="Group_802" data-name="Group 802" transform="translate(0)" opacity="0.5">
            <g id="Group_801" data-name="Group 801">
              <path id="Path_3293" data-name="Path 3293" d="M341.13,83.357a8.464,8.464,0,0,0,3.833-6.644c-.006-1.694-.87-2.786-2.2-2.786a3.532,3.532,0,0,0-1.751.533,8.469,8.469,0,0,0-3.836,6.642c.006,1.695.87,2.79,2.2,2.79A3.554,3.554,0,0,0,341.13,83.357Zm3.644-6.644a8.255,8.255,0,0,1-3.738,6.48,3.365,3.365,0,0,1-1.66.51c-1.238,0-2.01-1-2.014-2.6a8.263,8.263,0,0,1,3.742-6.479,3.373,3.373,0,0,1,1.657-.506C344,74.115,344.768,75.111,344.773,76.713Z" transform="translate(-337.172 -73.927)" fill="#85a9ff"/>
            </g>
          </g>
          <g id="Group_803" data-name="Group 803" transform="translate(2.209 2.839)" opacity="0.6">
            <path id="Path_3294" data-name="Path 3294" d="M340.834,76.7c.93-.536,1.688-.1,1.692.966a3.708,3.708,0,0,1-1.681,2.911c-.932.539-1.689.107-1.694-.964A3.709,3.709,0,0,1,340.834,76.7Z" transform="translate(-339.152 -76.473)" fill="#85a9ff"/>
          </g>
          <g id="Group_806" data-name="Group 806" transform="translate(2.52 3.193)">
            <g id="Group_804" data-name="Group 804" transform="translate(0)">
              <path id="Path_3295" data-name="Path 3295" d="M340.8,76.979c.761-.438,1.377-.086,1.379.787a3.015,3.015,0,0,1-1.369,2.376c-.763.44-1.378.088-1.381-.787A3.026,3.026,0,0,1,340.8,76.979Z" transform="translate(-339.433 -76.791)" fill="#85a9ff"/>
            </g>
            <g id="Group_805" data-name="Group 805" transform="translate(0.621 0.8)">
              <path id="Path_3296" data-name="Path 3296" d="M340.742,77.612c.417-.241.757-.047.757.431a1.658,1.658,0,0,1-.75,1.3c-.419.241-.758.047-.759-.433A1.665,1.665,0,0,1,340.742,77.612Z" transform="translate(-339.989 -77.508)" fill="#6e97ea"/>
            </g>
          </g>
        </g>
        <g id="Group_815" data-name="Group 815" transform="translate(11.857 47.473)">
          <g id="Group_808" data-name="Group 808" transform="translate(0.819 1.053)" opacity="0.5">
            <path id="Path_3297" data-name="Path 3297" d="M358.24,89.855c1.7-.98,3.078-.192,3.084,1.758a6.758,6.758,0,0,1-3.065,5.313c-1.7.981-3.081.193-3.087-1.76A6.755,6.755,0,0,1,358.24,89.855Z" transform="translate(-355.172 -89.434)" fill="#85a9ff"/>
          </g>
          <g id="Group_810" data-name="Group 810" transform="translate(0)" opacity="0.5">
            <g id="Group_809" data-name="Group 809">
              <path id="Path_3298" data-name="Path 3298" d="M358.394,97.92a8.475,8.475,0,0,0,3.834-6.645c-.007-1.692-.871-2.785-2.2-2.785a3.522,3.522,0,0,0-1.75.533,8.464,8.464,0,0,0-3.839,6.643c.007,1.694.87,2.79,2.2,2.79A3.546,3.546,0,0,0,358.394,97.92Zm3.644-6.644a8.265,8.265,0,0,1-3.736,6.48,3.367,3.367,0,0,1-1.662.51c-1.238,0-2.009-1-2.012-2.6a8.247,8.247,0,0,1,3.743-6.478,3.349,3.349,0,0,1,1.656-.508C361.262,88.678,362.033,89.674,362.038,91.276Z" transform="translate(-354.436 -88.49)" fill="#85a9ff"/>
            </g>
          </g>
          <g id="Group_811" data-name="Group 811" transform="translate(2.21 2.841)" opacity="0.6">
            <path id="Path_3299" data-name="Path 3299" d="M358.1,91.269c.931-.537,1.688-.1,1.691.963a3.707,3.707,0,0,1-1.682,2.912c-.931.537-1.688.107-1.69-.966A3.7,3.7,0,0,1,358.1,91.269Z" transform="translate(-356.418 -91.038)" fill="#85a9ff"/>
          </g>
          <g id="Group_814" data-name="Group 814" transform="translate(2.52 3.193)">
            <g id="Group_812" data-name="Group 812" transform="translate(0)">
              <path id="Path_3300" data-name="Path 3300" d="M358.068,91.542c.759-.438,1.378-.085,1.38.787a3.02,3.02,0,0,1-1.372,2.376c-.76.44-1.379.089-1.38-.787A3.025,3.025,0,0,1,358.068,91.542Z" transform="translate(-356.696 -91.354)" fill="#85a9ff"/>
            </g>
            <g id="Group_813" data-name="Group 813" transform="translate(0.621 0.8)">
              <path id="Path_3301" data-name="Path 3301" d="M358.007,92.175c.416-.239.756-.047.757.431a1.649,1.649,0,0,1-.753,1.3c-.416.241-.756.047-.757-.431A1.659,1.659,0,0,1,358.007,92.175Z" transform="translate(-357.254 -92.072)" fill="#6e97ea"/>
            </g>
          </g>
        </g>
        <g id="Group_823" data-name="Group 823" transform="translate(0 61.613)">
          <g id="Group_816" data-name="Group 816" transform="translate(0.818 1.053)" opacity="0.5">
            <path id="Path_3302" data-name="Path 3302" d="M368.877,102.539c1.7-.981,3.082-.193,3.083,1.757a6.755,6.755,0,0,1-3.062,5.313c-1.7.982-3.081.194-3.088-1.76A6.753,6.753,0,0,1,368.877,102.539Z" transform="translate(-365.81 -102.116)" fill="#85a9ff"/>
          </g>
          <g id="Group_818" data-name="Group 818" opacity="0.5">
            <g id="Group_817" data-name="Group 817">
              <path id="Path_3303" data-name="Path 3303" d="M369.029,110.6a8.467,8.467,0,0,0,3.834-6.644c-.006-1.692-.87-2.786-2.2-2.786a3.531,3.531,0,0,0-1.752.534,8.464,8.464,0,0,0-3.836,6.642c0,1.695.871,2.788,2.2,2.788A3.533,3.533,0,0,0,369.029,110.6Zm3.646-6.644a8.264,8.264,0,0,1-3.741,6.481,3.364,3.364,0,0,1-1.658.51c-1.239,0-2.012-1-2.015-2.6A8.262,8.262,0,0,1,369,101.868a3.36,3.36,0,0,1,1.657-.506C371.9,101.362,372.668,102.355,372.675,103.958Z" transform="translate(-365.072 -101.172)" fill="#85a9ff"/>
            </g>
          </g>
          <g id="Group_819" data-name="Group 819" transform="translate(2.209 2.841)" opacity="0.6">
            <path id="Path_3304" data-name="Path 3304" d="M368.736,103.951c.931-.537,1.688-.1,1.69.964a3.7,3.7,0,0,1-1.679,2.912c-.931.537-1.69.106-1.692-.966A3.706,3.706,0,0,1,368.736,103.951Z" transform="translate(-367.055 -103.72)" fill="#85a9ff"/>
          </g>
          <g id="Group_822" data-name="Group 822" transform="translate(2.519 3.194)">
            <g id="Group_820" data-name="Group 820" transform="translate(0)">
              <path id="Path_3305" data-name="Path 3305" d="M368.7,104.225c.759-.438,1.377-.086,1.38.786a3.032,3.032,0,0,1-1.37,2.378c-.761.439-1.381.087-1.382-.788A3.031,3.031,0,0,1,368.7,104.225Z" transform="translate(-367.332 -104.037)" fill="#85a9ff"/>
            </g>
            <g id="Group_821" data-name="Group 821" transform="translate(0.622 0.8)">
              <path id="Path_3306" data-name="Path 3306" d="M368.641,104.858c.417-.241.756-.047.757.431a1.651,1.651,0,0,1-.751,1.3c-.416.242-.757.048-.757-.43A1.665,1.665,0,0,1,368.641,104.858Z" transform="translate(-367.89 -104.754)" fill="#6e97ea"/>
            </g>
          </g>
        </g>
      </g>
      <g id="Group_825" data-name="Group 825" transform="translate(19.14 46.803)">
        <path id="Path_3307" data-name="Path 3307" d="M302.021,75.195a1.756,1.756,0,0,1,.367-.1h.022a1.292,1.292,0,0,1,.388.009l.007,0a1.223,1.223,0,0,1,.381.142l-.613-.358-1.626-.943c-.045-.025-.09-.046-.134-.065a.871.871,0,0,0-.125-.045,1.013,1.013,0,0,0-.112-.027l-.006,0h-.011a1.021,1.021,0,0,0-.129-.014,1.149,1.149,0,0,0-.138,0,.719.719,0,0,0-.1.011h-.028a.079.079,0,0,1-.022,0,1.6,1.6,0,0,0-.19.041c-.048.013-.1.035-.155.054-.02.009-.041.013-.064.022a.141.141,0,0,0-.036.014,2.757,2.757,0,0,0-.369.182,12.187,12.187,0,0,0-1.845,1.471,12.732,12.732,0,0,1-1.927,1.514,3.94,3.94,0,0,1-.414.2c-.067.031-.139.056-.211.081-.043.014-.088.033-.134.046a2.9,2.9,0,0,1-.317.065l-.05.006a1.621,1.621,0,0,1-.329,0,2.687,2.687,0,0,1-.6-.123.284.284,0,0,1-.059-.023,2.716,2.716,0,0,1-.511-.229q1.114.646,2.224,1.294c.011,0,.025.012.038.019a2.578,2.578,0,0,0,.31.152,1.569,1.569,0,0,0,.159.056c.022.01.042.017.062.025s.046.016.068.023a2.53,2.53,0,0,0,.294.068c.079.014.158.023.241.032l.04,0a1.483,1.483,0,0,0,.186,0c.035,0,.069-.007.1-.009.014,0,.037,0,.058-.007a.352.352,0,0,0,.041,0,1.973,1.973,0,0,0,.241-.05l.029-.01c.046-.011.093-.031.138-.047s.113-.035.165-.057c.011,0,.026-.013.04-.021a3.939,3.939,0,0,0,.413-.205,12.583,12.583,0,0,0,1.929-1.514,12.129,12.129,0,0,1,1.844-1.469,2.8,2.8,0,0,1,.408-.2A.4.4,0,0,1,302.021,75.195Z" transform="translate(-229.16 -67.979)" fill="#edb93b"/>
        <path id="Path_3308" data-name="Path 3308" d="M317.082,75.819c.077-.022.147-.046.215-.061s.116-.027.172-.037a2.52,2.52,0,0,1,.258-.039l.1-.01a2.262,2.262,0,0,1,.326,0c.022,0,.047,0,.07.008a2.012,2.012,0,0,1,.25.04l.078.017a2.69,2.69,0,0,1,.268.089.055.055,0,0,0,.021.008,2.607,2.607,0,0,1,.3.147.1.1,0,0,0-.021-.012l-1.631-.949-.571-.332a.083.083,0,0,1-.025-.013,2.268,2.268,0,0,0-.261-.128l0,0-.054-.017a1.659,1.659,0,0,0-.185-.068l-.057-.013-.079-.019c-.037-.007-.068-.016-.1-.021a1.355,1.355,0,0,0-.156-.02c-.021,0-.039-.007-.06-.008l-.028,0a2.5,2.5,0,0,0-.259,0l-.046,0c-.03,0-.065.007-.1.01-.05.006-.1.007-.155.017-.036,0-.072.016-.107.022a1.651,1.651,0,0,0-.164.035c-.038.008-.07.012-.108.023s-.079.029-.114.04c-.1.032-.2.068-.313.109-.039.018-.079.025-.119.042-.025.01-.054.029-.08.04a6.789,6.789,0,0,0-.685.345c-1.822,1.108-4.231,2.9-6.412,4.161-.3.173-.592.331-.883.482-.078.04-.156.079-.235.116-.224.116-.444.217-.663.309l-.2.09a7.869,7.869,0,0,1-.8.276c-.119.032-.229.057-.342.081-.061.014-.127.03-.19.042a3.379,3.379,0,0,1-.472.04c-.022,0-.045,0-.068,0a2,2,0,0,1-.421-.043l-.033-.009a1.458,1.458,0,0,1-.4-.155l.017.009,2.226,1.294a1.414,1.414,0,0,0,.149.071c.055.022.107.04.165.058a.464.464,0,0,0,.067.014c.01,0,.022.006.035.01.028.006.052.013.08.018a1.862,1.862,0,0,0,.224.026c.037,0,.075,0,.113,0s.049,0,.074,0,.051,0,.082,0c.112-.007.226-.017.346-.036.013,0,.027-.007.037-.008.061-.011.13-.029.2-.042.091-.02.184-.035.279-.061.02,0,.04-.016.061-.021a7.823,7.823,0,0,0,.8-.278.264.264,0,0,0,.045-.017c.05-.019.1-.047.146-.067.216-.095.439-.2.669-.31.079-.041.158-.078.239-.12.287-.149.579-.307.88-.481,2.182-1.259,4.59-3.053,6.411-4.16a6.309,6.309,0,0,1,.682-.343c.07-.03.137-.058.2-.083C316.877,75.886,316.981,75.85,317.082,75.819Z" transform="translate(-255.83 -67.912)" fill="#edb93b"/>
        <path id="Path_3309" data-name="Path 3309" d="M361.568,69.9c.028,0,.059-.007.084-.01a3.055,3.055,0,0,1,.332-.021c.038,0,.078,0,.117,0a2.992,2.992,0,0,1,.3.023c.037,0,.072.007.107.012a3.169,3.169,0,0,1,.4.089l.02.007a3.407,3.407,0,0,1,.373.138c.066.028.127.062.193.093s.153.075.232.118l-2.229-1.292-.045-.028c-.066-.033-.129-.064-.2-.095s-.119-.062-.179-.09l-.018-.009a3.106,3.106,0,0,0-.309-.11c-.025-.008-.048-.019-.071-.026h0a2.838,2.838,0,0,0-.346-.08c-.012,0-.026,0-.044-.008s-.069-.007-.1-.011c-.064-.008-.128-.019-.191-.023-.038,0-.075,0-.109,0h-.123c-.032,0-.064,0-.1,0-.07,0-.143.013-.214.02-.036,0-.067.006-.1.011l-.035,0a3.7,3.7,0,0,0-.386.085h-.009a4.443,4.443,0,0,0-.492.177l0,0a4.436,4.436,0,0,0-.471.237,6.231,6.231,0,0,0-.608.413c-.06.046-.117.094-.176.14-.169.136-.338.284-.507.448-.035.032-.066.056-.1.089l-.042.045c-.118.122-.241.256-.366.391-.05.057-.1.1-.149.163l-.022.023c-.059.069-.12.148-.181.221-.095.115-.191.229-.287.352l-.036.046c-.064.084-.129.177-.193.264-.081.113-.168.217-.252.337-.017.031-.042.066-.059.095-.082.116-.165.241-.242.367-.064.095-.128.181-.191.28-.025.038-.047.079-.071.116-.1.163-.2.331-.306.5-.055.089-.107.167-.159.26s-.124.214-.19.326c-.479.848-.927,1.672-1.358,2.484-.041.071-.083.147-.122.217-.059.109-.1.205-.162.313-1.027,1.956-1.941,3.8-2.768,5.509-.033.07-.069.148-.1.216-.069.144-.135.278-.2.419-.133.273-.256.536-.387.8-.181.382-.362.755-.536,1.119-.12.249-.234.488-.35.73-.2.406-.388.8-.582,1.184-.1.2-.2.408-.3.6-.246.491-.487.966-.729,1.42-.032.064-.069.13-.1.192-.242.453-.482.882-.719,1.3-.163.283-.328.552-.49.816-.049.078-.1.163-.148.237-.2.322-.406.627-.618.921-.046.064-.094.125-.138.188-.175.235-.351.462-.527.676-.048.059-.1.119-.143.175-.226.262-.45.507-.683.736-.178.172-.365.324-.547.477-.08.066-.156.144-.236.205a7.149,7.149,0,0,1-.832.561,6.966,6.966,0,0,1-.77.381c-.1.042-.213.075-.32.114-.162.058-.317.118-.482.164s-.337.079-.507.114c-.1.02-.2.047-.3.062a7.463,7.463,0,0,1-.857.087c-.127.008-.252.02-.381.04-.031,0-.064.014-.1.02-.061.01-.126.027-.19.04s-.116.021-.172.037c-.04.011-.084.03-.126.043-.113.033-.223.074-.342.118-.05.02-.1.029-.151.05-.026.011-.051.029-.081.041a6.411,6.411,0,0,0-.708.351,12.665,12.665,0,0,0-2.418,1.9c-.037.033-.073.066-.109.1v0c-.412.4-.821.841-1.224,1.307-.011.01-.018.021-.03.032l-.01.014c-.369.424-.735.875-1.1,1.341-.019.027-.043.051-.061.077s-.018.028-.03.041c-.395.508-.783,1.04-1.166,1.584l-.045.06a.174.174,0,0,0-.018.029c-.457.651-.9,1.322-1.336,2a.438.438,0,0,0-.03.043c-.014.021-.026.042-.039.064-.532.834-1.046,1.68-1.535,2.522l-.013.02c-.017.028-.032.054-.047.081q-.455.779-.881,1.549c-.012.023-.028.048-.04.072q-.411.744-.793,1.461l-.084.152c-.02.036-.035.068-.054.1q-.253.472-.484.928c-.054.1-.1.2-.155.3-.118.232-.236.459-.35.682-.046.1-.1.2-.145.292-.116.232-.23.456-.337.677-.038.074-.074.147-.106.219-.137.274-.27.541-.392.793,0,.013-.016.03-.019.043-.074.154-.143.3-.213.444-.023.051-.047.107-.071.156-.062.125-.116.242-.172.359-.038.072-.068.149-.1.22s-.065.139-.1.211c-.452.968-.736,1.611-.8,1.767l2.223,1.291c.067-.157.36-.823.826-1.821.028-.051.046-.1.07-.152.049-.1.1-.213.153-.321.039-.085.079-.164.117-.252s.094-.2.144-.3.1-.219.161-.336c.127-.263.263-.539.4-.823.029-.06.059-.123.09-.183.116-.236.235-.479.361-.727.04-.079.077-.157.117-.236.139-.277.285-.56.434-.847.023-.04.041-.079.061-.119.178-.341.361-.693.551-1.049.01-.021.022-.043.032-.064.275-.515.559-1.044.86-1.579.009-.019.02-.038.03-.057.282-.508.576-1.025.879-1.543.023-.041.043-.083.069-.123.492-.843,1-1.69,1.539-2.524.019-.031.04-.062.06-.095.436-.685.884-1.357,1.342-2.01.017-.026.037-.051.054-.077q.579-.821,1.171-1.592c.032-.042.067-.083.1-.126.367-.469.737-.923,1.112-1.35.408-.477.827-.927,1.246-1.338.01-.01.02-.017.028-.026a14.984,14.984,0,0,1,1.241-1.1c.038-.031.074-.057.114-.086.173-.134.346-.266.517-.385.211-.144.419-.279.632-.4a6.3,6.3,0,0,1,.706-.351c.079-.033.158-.065.237-.095.112-.043.223-.084.339-.117.1-.029.2-.055.3-.079.064-.014.127-.029.188-.04a3.546,3.546,0,0,1,.478-.059q.423-.022.818-.081l.036-.007c.1-.016.2-.042.3-.064.155-.03.31-.055.458-.095a.473.473,0,0,1,.052-.019c.168-.047.33-.106.492-.166.09-.035.188-.058.275-.094a.259.259,0,0,0,.031-.018,6.227,6.227,0,0,0,.774-.381,7.791,7.791,0,0,0,.832-.557c.1-.078.2-.173.294-.258.164-.139.33-.273.491-.427l.01-.009c.2-.2.4-.414.6-.638.026-.03.051-.065.078-.1l.128-.155c.1-.117.2-.231.292-.356.082-.108.164-.226.25-.339.042-.06.087-.118.132-.181.033-.045.066-.086.1-.13.167-.244.339-.5.507-.761a.134.134,0,0,1,.02-.031c.054-.081.1-.169.152-.252.143-.23.288-.458.429-.7.016-.032.035-.069.054-.1q.353-.607.7-1.268c.013-.026.029-.049.043-.075.028-.052.056-.111.085-.165q.355-.679.72-1.406c.09-.185.183-.378.278-.566q.309-.622.624-1.278c.028-.058.054-.11.084-.168.06-.128.125-.264.186-.394q.368-.758.746-1.552l.193-.4c.117-.251.246-.514.371-.77.385-.794.783-1.612,1.206-2.461.035-.069.064-.135.1-.206.436-.88.914-1.8,1.4-2.726.11-.208.217-.416.33-.627.428-.8.87-1.613,1.343-2.448.125-.222.248-.425.372-.629.088-.147.177-.3.268-.436.1-.161.2-.312.3-.463.07-.1.138-.21.206-.311.112-.159.221-.31.333-.458.06-.084.123-.171.182-.249.1-.135.205-.256.311-.38.065-.08.128-.164.2-.241.055-.06.1-.114.157-.171.128-.14.253-.28.376-.4.051-.049.095-.088.145-.134a6.675,6.675,0,0,1,.511-.452l.168-.136a6.02,6.02,0,0,1,.61-.414,4.963,4.963,0,0,1,.479-.242,4.064,4.064,0,0,1,.487-.174A3.024,3.024,0,0,1,361.568,69.9Z" transform="translate(-321.034 -68.578)" fill="#edb93b"/>
      </g>
      <g id="Group_826" data-name="Group 826" transform="translate(21.363 48.093)">
        <path id="Path_3310" data-name="Path 3310" d="M328.618,70.276c5.106-2.948,8.389,6.962,8.986,10.581.414,2.509,2.787,1.772,5.522.193,2.182-1.259,4.59-3.053,6.411-4.16,4.113-2.377,4.164,2.123,7.113,2.381a2.5,2.5,0,0,0,1.454-.407,12.58,12.58,0,0,0,1.929-1.514,12.128,12.128,0,0,1,1.844-1.469c1.164-.672,2.206-.488,2.992,2.17l-73.16,41.908c.389-.887,7.783-17.756,14.513-21.641a5.028,5.028,0,0,1,2.249-.741,6.962,6.962,0,0,0,3.233-.924c4.556-2.629,6.624-10.624,12.78-21.5C325.967,72.536,327.348,71.009,328.618,70.276Z" transform="translate(-291.71 -69.735)" fill="#ede416"/>
      </g>
      <g id="Group_827" data-name="Group 827" transform="translate(72.78 54.327)">
        <path id="Path_3311" data-name="Path 3311" d="M291.156,81.065c.323-.133.633-.254.935-.37.088-.036.174-.069.262-.1.22-.086.437-.166.649-.245l.23-.082c.273-.1.54-.193.789-.279l.058-.019c.234-.079.459-.154.678-.224q.1-.033.2-.064l.507-.156.163-.048c.208-.061.416-.118.61-.172.217-.058.427-.111.621-.159.062-.013.115-.028.171-.039.134-.031.269-.064.39-.089.068-.014.13-.026.2-.04.1-.02.2-.041.292-.057.059-.011.117-.023.175-.033l.246-.04c.055-.009.1-.016.154-.022s.1-.016.149-.022l.14-.018c.04,0,.079-.009.117-.011s.087-.012.128-.013l.07-.006c.042,0,.077-.007.109-.007.013,0,.03,0,.041,0l.146,0-2.623-1.526c-.015,0-.057,0-.132,0l-.012,0-.047,0c-.035,0-.068,0-.107.007l-.068.006-.134.013c-.032,0-.072.007-.108.012s-.1.009-.145.017l-.147.021c-.035,0-.061.009-.1.013l-.066.01-.241.041-.18.031-.289.059c-.065.013-.127.025-.2.04-.125.026-.261.058-.4.09-.056.012-.1.023-.161.038-.2.048-.407.1-.631.162l-.018,0c-.184.049-.377.1-.579.165-.058.017-.119.033-.181.052-.157.047-.318.1-.487.149-.074.021-.142.046-.217.068-.208.067-.424.137-.648.213-.029.011-.057.019-.085.029q-.376.129-.778.274c-.086.03-.169.062-.254.093-.2.075-.411.152-.621.233l-.282.107c-.3.117-.607.24-.927.368-.355.145-.69.263-1.019.371-.093.029-.178.056-.266.08-.2.062-.4.113-.592.161s-.386.088-.573.123c-.157.028-.315.056-.472.075-.128.016-.258.03-.381.038-.173.013-.343.021-.508.022-.1,0-.193,0-.286,0-.187-.007-.371-.025-.551-.048-.065-.009-.13-.011-.193-.023a5.7,5.7,0,0,1-.7-.156c-.069-.021-.134-.05-.2-.071-.159-.055-.321-.109-.475-.176-.137-.058-.27-.129-.4-.2-.11-.055-.221-.1-.33-.169l2.626,1.526c.022.014.052.03.078.045.081.046.166.08.247.122.135.068.269.14.4.2a.506.506,0,0,1,.05.023c.136.056.278.1.416.147.071.023.139.055.212.075l.016.006a5.23,5.23,0,0,0,.629.145.5.5,0,0,0,.05.007c.066.012.136.016.2.023.128.018.258.039.394.048.045,0,.1,0,.144,0,.1,0,.2,0,.3,0s.177.006.27,0c.072,0,.153-.017.227-.022.128-.01.259-.022.392-.04.072-.009.141-.009.216-.021s.165-.038.244-.052c.188-.035.383-.075.582-.124.081-.02.157-.029.243-.052.107-.03.224-.07.338-.1l.279-.085C290.47,81.326,290.805,81.208,291.156,81.065Z" transform="translate(-266.358 -75.11)" fill="#1f6765"/>
        <path id="Path_3312" data-name="Path 3312" d="M310.92,76.963c.041-.012.081-.027.125-.038s.07-.014.1-.021c.064-.013.127-.027.19-.035l.085-.008a1.609,1.609,0,0,1,.207-.006c.023,0,.042,0,.062,0a1.845,1.845,0,0,1,.258.031c.02,0,.041.011.064.016.068.017.138.037.207.061.021.009.045.016.067.023a2.066,2.066,0,0,1,.27.13c-.007-.006-.016-.009-.023-.014l-1.078-.627-1.52-.884a.141.141,0,0,1-.027-.016,2.055,2.055,0,0,0-.217-.1l-.031-.011c-.02-.008-.04-.013-.059-.021-.038-.012-.076-.029-.114-.039s-.065-.017-.1-.025-.043-.01-.065-.013a.215.215,0,0,0-.037-.008,1.565,1.565,0,0,0-.2-.025h-.081c-.041,0-.086,0-.126,0s-.056.006-.081.008-.059,0-.085.009-.043,0-.065.006c-.042.006-.084.018-.128.026l-.106.023c-.009,0-.022,0-.037.009s-.058.021-.086.03c-.074.023-.151.048-.225.078a.329.329,0,0,0-.052.019.567.567,0,0,0-.052.026,3.913,3.913,0,0,0-.434.215,7.037,7.037,0,0,0-.666.448l-.231.186c-.147.119-.3.242-.449.373l-.258.234c-.148.136-.3.274-.445.417-.081.081-.165.162-.251.243-.037.04-.078.078-.119.117l-.459.458q-.263.263-.526.521c-.1.1-.211.2-.314.3-.136.132-.271.255-.4.381l-.281.25c-.148.133-.3.252-.44.37-.077.061-.151.126-.229.184a6.665,6.665,0,0,1-.659.446,4.166,4.166,0,0,1-.418.208l-.107.046c-.074.029-.147.052-.222.076-.035.01-.071.025-.108.032s-.068.016-.1.023c-.061.011-.119.025-.178.031l-.081.008a1.685,1.685,0,0,1-.2.007c-.02,0-.043,0-.062,0-.082-.006-.163-.014-.246-.028a.444.444,0,0,0-.058-.016,1.564,1.564,0,0,1-.2-.057.649.649,0,0,1-.066-.022,1.762,1.762,0,0,1-.254-.122l2.622,1.526.009,0a1.669,1.669,0,0,0,.21.1l.036.012a.6.6,0,0,0,.067.023l.094.032c.033.01.068.017.1.025s.041.011.059.014l.029.006a1.859,1.859,0,0,0,.193.023h.084l.113,0c.03,0,.059-.008.086-.01l.081-.008.055-.006c.041-.008.083-.019.125-.028s.069-.012.1-.02l.031-.007c.026-.008.053-.019.08-.028.076-.023.147-.047.222-.075.017-.008.031-.01.048-.018s.037-.019.054-.026a4.5,4.5,0,0,0,.421-.211,6.89,6.89,0,0,0,.661-.446l.232-.186c.144-.118.289-.236.438-.367.09-.081.182-.164.273-.25.137-.127.272-.252.409-.384l.313-.305c.03-.03.06-.059.093-.087.143-.145.289-.288.434-.433.2-.2.4-.4.593-.588.076-.074.151-.144.225-.215.155-.154.313-.3.472-.445.077-.072.158-.144.236-.213.157-.139.311-.266.468-.391.071-.058.144-.119.215-.173a6.916,6.916,0,0,1,.669-.452,4.145,4.145,0,0,1,.434-.217l.1-.043C310.77,77.009,310.843,76.986,310.92,76.963Z" transform="translate(-299.503 -75.327)" fill="#1f6765"/>
      </g>
      <g id="Group_830" data-name="Group 830" transform="translate(65.978 40.615)" style="isolation: isolate">
        <g id="Group_829" data-name="Group 829" transform="translate(0)" clip-path="url(#clip-path-3)">
          <g id="Group_828" data-name="Group 828" transform="translate(0 0)" style="isolation: isolate">
            <path id="Path_3313" data-name="Path 3313" d="M317.449,64.7l-2.625-1.527c.05-.028.1-.052.15-.075l2.625,1.526a.906.906,0,0,0-.151.076Z" transform="translate(-314.824 -63.02)" fill="#972cb1"/>
            <path id="Path_3314" data-name="Path 3314" d="M317.328,64.631,314.7,63.1a1.248,1.248,0,0,1,.133-.046l2.627,1.526a1.012,1.012,0,0,0-.135.046Z" transform="translate(-314.553 -63.025)" fill="#932bac"/>
            <path id="Path_3315" data-name="Path 3315" d="M317.234,64.588l-2.627-1.526c.038-.009.074-.017.11-.023l2.623,1.525c-.036.007-.072.014-.107.025Z" transform="translate(-314.324 -63.027)" fill="#902aa8"/>
            <path id="Path_3316" data-name="Path 3316" d="M317.139,64.564l-2.623-1.525c.031,0,.068-.009.1-.01l2.623,1.527c-.032,0-.066,0-.1.008Z" transform="translate(-314.122 -63.028)" fill="#8c29a4"/>
            <path id="Path_3317" data-name="Path 3317" d="M317.049,64.557l-2.623-1.527a.969.969,0,0,1,.1,0l2.626,1.526a.754.754,0,0,0-.1,0Z" transform="translate(-313.931 -63.028)" fill="#88289f"/>
            <path id="Path_3318" data-name="Path 3318" d="M316.961,64.556l-2.626-1.526.1.011,2.627,1.527a.646.646,0,0,0-.1-.012Z" transform="translate(-313.742 -63.028)" fill="#84279b"/>
            <path id="Path_3319" data-name="Path 3319" d="M316.863,64.567l-2.627-1.527a.889.889,0,0,1,.11.028l2.627,1.524c-.038-.01-.077-.019-.11-.025Z" transform="translate(-313.543 -63.027)" fill="#812596"/>
            <path id="Path_3320" data-name="Path 3320" d="M316.757,64.589l-2.627-1.524a.843.843,0,0,1,.119.042l2.626,1.524c-.041-.016-.077-.03-.118-.042Z" transform="translate(-313.326 -63.024)" fill="#7d2492"/>
            <path id="Path_3321" data-name="Path 3321" d="M316.547,64.627,313.921,63.1h0a1.958,1.958,0,0,1,.233.115l2.622,1.524a2.476,2.476,0,0,0-.231-.115Z" transform="translate(-312.998 -63.02)" fill="#79238d"/>
            <path id="Path_3322" data-name="Path 3322" d="M316.536,64.731l-2.622-1.524,0,0,2.626,1.526-.008,0Z" transform="translate(-312.755 -63.008)" fill="#752289"/>
          </g>
        </g>
      </g>
      <path id="Path_3324" data-name="Path 3324" d="M344.5,84.241c.072-.227.141-.457.21-.688.052-.166.1-.333.153-.5.069-.234.136-.472.205-.708.052-.175.1-.347.154-.523.043-.157.088-.317.134-.474.068-.248.138-.494.208-.743.036-.13.072-.261.107-.389q.147-.535.292-1.07c.06-.225.122-.447.18-.669.1-.369.2-.733.3-1.1.147-.557.3-1.109.445-1.658.03-.117.062-.229.093-.346q.177-.651.353-1.289c.023-.088.048-.177.075-.265.067-.245.135-.487.2-.728.037-.138.078-.275.117-.413.058-.208.118-.41.178-.615.048-.163.095-.328.143-.487s.1-.334.152-.5c.056-.183.11-.367.167-.544.043-.142.089-.278.134-.415.061-.194.122-.387.184-.571.027-.075.054-.145.078-.22.072-.212.144-.421.217-.624.033-.094.066-.183.1-.272.061-.171.125-.334.188-.5.05-.129.1-.256.155-.38s.113-.274.168-.4c.036-.083.076-.164.113-.244.082-.182.164-.357.25-.518,0-.01.009-.02.012-.031.1-.193.2-.369.3-.534a.456.456,0,0,0,.029-.048c.1-.166.21-.318.312-.452l.014-.017a3.231,3.231,0,0,1,.227-.253c.048-.051.1-.1.145-.144a1.646,1.646,0,0,1,.288-.216l-2.625-1.527a1.718,1.718,0,0,0-.227.159c-.019.016-.038.04-.057.057-.048.043-.1.1-.151.147-.035.037-.071.065-.108.106s-.08.1-.119.149l-.012.01-.006.011c-.046.058-.094.122-.138.188s-.093.133-.139.206c-.01.017-.019.035-.03.051a.246.246,0,0,1-.026.041c-.028.051-.061.1-.093.154-.064.113-.13.231-.194.353a.154.154,0,0,0-.011.025c-.01.019-.021.039-.03.058l-.153.3c-.03.067-.058.137-.091.205s-.068.147-.1.225c-.027.055-.049.106-.074.161-.035.081-.067.169-.1.252-.051.129-.1.259-.157.394-.02.049-.039.095-.061.146-.037.095-.07.2-.107.3s-.084.222-.125.334c-.059.172-.118.349-.183.528-.036.1-.071.206-.107.316a.6.6,0,0,0-.027.07c-.039.122-.079.251-.119.376-.058.177-.117.351-.174.536-.047.154-.1.316-.146.475-.055.182-.113.363-.167.551s-.1.351-.155.527-.1.36-.159.543-.112.4-.167.6c-.047.168-.095.338-.142.51-.013.049-.031.1-.041.146-.03.106-.059.217-.09.323-.1.361-.2.728-.3,1.1-.038.148-.078.293-.117.443-.124.454-.247.914-.371,1.376-.133.494-.265.992-.4,1.487-.038.142-.078.283-.115.425-.135.492-.27.984-.4,1.472-.01.033-.017.064-.027.1q-.172.622-.347,1.235c-.036.119-.067.235-.1.353-.084.287-.165.574-.251.857-.045.156-.093.31-.141.464-.071.242-.144.485-.217.722-.054.163-.1.322-.156.484-.069.225-.144.45-.215.673-.059.174-.115.346-.174.517s-.11.323-.165.479c-.064.181-.126.357-.19.533-.056.147-.107.293-.163.437s-.1.269-.155.4c-.107.274-.214.54-.323.8-.052.123-.1.246-.156.366s-.1.222-.151.332c-.075.159-.146.317-.221.467-.043.088-.086.176-.133.263-.1.185-.19.367-.287.537-.017.03-.032.061-.05.09-.117.2-.236.4-.355.579-.025.031-.043.061-.066.093-.116.173-.235.332-.353.481-.021.026-.04.049-.062.075a3.949,3.949,0,0,1-.277.3c-.047.051-.1.106-.147.154a3.333,3.333,0,0,1-.407.329,5.173,5.173,0,0,0-.425.317c-.047.041-.094.087-.142.129-.088.076-.174.149-.256.231a.06.06,0,0,1-.017.017c-.142.14-.28.288-.42.446l-.008.01c-.124.144-.247.3-.371.455l0,.006c-.032.04-.064.088-.1.129-.084.115-.173.229-.256.35a.184.184,0,0,0-.018.027c-.071.1-.141.21-.21.314-.052.078-.1.148-.153.227a.086.086,0,0,0-.011.026c-.137.211-.27.427-.4.652l-.006.008c-.008.012-.014.028-.021.041-.141.242-.276.491-.414.746l-.051.087c-.012.032-.031.066-.043.1-.2.37-.388.75-.576,1.142a.208.208,0,0,0-.021.038c-.012.03-.029.064-.043.095q-.259.545-.516,1.114c0,.009-.009.018-.013.027-.183.4-.362.814-.54,1.226,0,.011-.011.023-.017.035s-.011.022-.014.032c-.26.6-.516,1.209-.773,1.814q-.361.853-.719,1.685c-.03.074-.062.147-.1.22-.155.365-.319.73-.477,1.086-.014.035-.032.066-.045.1-.148.329-.3.647-.447.962-.031.066-.062.134-.1.2-.169.355-.342.7-.516,1.027-.039.071-.077.145-.113.216-.1.191-.207.376-.31.557-.033.058-.065.118-.1.175-.088.153-.178.3-.27.442l-.1.165c-.038.054-.074.1-.107.157-.081.126-.164.248-.248.367-.029.041-.061.081-.09.124-.085.115-.171.232-.254.341-.039.046-.077.09-.113.134-.075.09-.153.181-.225.265s-.149.159-.224.236c-.057.058-.115.117-.172.172-.094.088-.185.164-.279.242-.046.04-.094.082-.145.122a3.333,3.333,0,0,1-.43.289,3.136,3.136,0,0,1-.362.182c-.05.021-.1.037-.147.055s-.128.047-.194.066c-.083.022-.165.041-.244.057-.027,0-.05.011-.075.014a2.5,2.5,0,0,1-.343.033l-.094,0a4.773,4.773,0,0,0-.526.052c-.019,0-.043.011-.065.014-.07.012-.142.029-.214.043-.1.022-.205.038-.312.068-.042.011-.08.03-.126.041-.136.041-.274.093-.414.144-.07.027-.146.045-.219.074-.029.012-.055.031-.085.042a7.857,7.857,0,0,0-.824.409c-.242.139-.475.292-.706.45-.07.048-.136.1-.2.152-.161.116-.322.234-.476.36-.083.066-.165.136-.243.205q-.209.172-.409.355l-.251.232c-.076.077-.157.148-.237.225-.029.03-.054.061-.086.091-.3.3-.591.613-.871.93-.02.021-.038.041-.058.06-.038.047-.072.095-.114.142-.221.258-.43.514-.632.774l-.1.115c-.013.018-.026.039-.04.057q-.353.458-.666.9c-.022.031-.046.062-.066.091l-.084.12c-.221.322-.428.633-.617.924a.136.136,0,0,0-.02.032c-.05.075-.088.14-.135.212-.062.1-.128.2-.185.3-.049.079-.091.149-.137.224-.053.093-.109.182-.159.266a.331.331,0,0,1-.03.05c-.058.1-.111.194-.159.282l-.04.068c-.048.093-.1.173-.136.248-.012.019-.02.037-.031.055-.037.068-.068.133-.1.181h0c-.037.069-.061.119-.072.139l2.625,1.526c.009-.018.032-.065.061-.119s.064-.119.106-.194l.045-.08c.033-.064.074-.136.118-.214.017-.029.033-.057.049-.089.055-.1.117-.2.183-.317.052-.087.113-.185.167-.281.047-.074.089-.145.136-.225s.116-.185.174-.279.108-.172.167-.262c.188-.3.4-.618.634-.949.039-.055.078-.109.116-.165.215-.3.442-.615.683-.931l.123-.154c.205-.26.42-.523.644-.784.057-.068.113-.135.172-.2.278-.317.568-.628.871-.93.106-.106.212-.21.322-.313.084-.081.166-.162.252-.237.129-.117.262-.232.394-.342.088-.074.172-.149.262-.219.144-.119.294-.229.444-.337.077-.058.154-.118.236-.174.226-.158.462-.311.7-.448a7.576,7.576,0,0,1,.826-.409c.1-.045.2-.08.3-.117.136-.051.274-.1.415-.142s.291-.079.437-.109c.071-.016.143-.032.214-.046a4.86,4.86,0,0,1,.683-.068h.049c.094-.006.187-.014.281-.029l.013,0c.028,0,.05-.011.078-.017.067-.012.137-.023.2-.042.012,0,.023-.009.035-.012.064-.018.129-.042.19-.065.045-.016.086-.026.127-.042l.027-.013a3.553,3.553,0,0,0,.365-.179,4.272,4.272,0,0,0,.436-.294l.125-.106c.1-.081.2-.164.293-.254.014-.014.031-.027.046-.042.039-.035.075-.081.114-.118.082-.085.163-.167.245-.259.017-.021.038-.04.056-.061.048-.054.091-.115.14-.168s.089-.108.134-.165c.018-.021.031-.037.048-.059.056-.072.114-.154.171-.231.043-.061.09-.12.135-.185a.262.262,0,0,1,.018-.023c.051-.076.1-.158.156-.239s.114-.164.168-.251l.009-.011c.023-.036.046-.075.066-.11q.147-.234.294-.482c.009-.013.014-.023.022-.037.025-.04.047-.085.067-.124.108-.187.216-.379.321-.578.018-.036.039-.068.056-.1s.036-.068.052-.1c.175-.337.348-.681.522-1.038.009-.019.018-.033.026-.051.021-.043.041-.09.062-.135q.229-.478.453-.976c.017-.03.027-.06.041-.091.162-.357.321-.722.482-1.092l.046-.1c.014-.038.03-.076.048-.113.243-.562.482-1.132.725-1.7s.487-1.149.732-1.72c.035-.075.066-.152.1-.227.165-.38.329-.756.5-1.127.014-.029.027-.057.041-.087.157-.349.316-.689.476-1.027.031-.062.061-.129.094-.2.182-.379.368-.746.556-1.1.038-.072.076-.145.111-.216.143-.263.285-.521.43-.769l0-.006c.132-.23.268-.452.406-.667.038-.059.074-.116.113-.173.09-.133.175-.266.264-.392.066-.095.132-.185.2-.275.053-.077.114-.158.167-.232l.013-.012c.118-.155.241-.3.366-.446.14-.162.283-.312.428-.456.078-.076.156-.144.236-.214.059-.054.115-.11.175-.157q.209-.172.423-.318a3.258,3.258,0,0,0,.374-.3c.012-.01.025-.026.037-.037.045-.041.087-.091.134-.137.069-.07.138-.135.206-.215.029-.031.056-.067.085-.1l.053-.069.081-.1c.071-.094.143-.191.214-.293.025-.032.046-.067.069-.1s.035-.057.053-.086c.033-.048.066-.095.1-.145.085-.134.169-.272.251-.416a.306.306,0,0,0,.019-.028l.027-.052c.068-.119.137-.241.205-.369.035-.068.07-.143.106-.214s.08-.154.118-.232c.029-.061.06-.118.091-.182.048-.1.095-.208.139-.311s.1-.215.149-.328c.019-.046.039-.086.06-.133.028-.067.057-.144.086-.212.114-.269.226-.544.336-.828.026-.065.051-.124.077-.188s.048-.127.067-.187c.057-.144.11-.291.165-.438.067-.186.133-.372.2-.564q.075-.206.144-.415c.04-.116.08-.223.117-.339.028-.081.053-.169.082-.251q.1-.3.2-.613C344.391,84.59,344.448,84.417,344.5,84.241Z" transform="translate(-282.684 -22.397)" fill="#1f6765"/>
      <g id="Group_831" data-name="Group 831" transform="translate(34.9 42.141)">
        <path id="Path_3325" data-name="Path 3325" d="M315.289,64.553a.989.989,0,0,1,.927-.074c4.134,1.739,2.482,17.272,5.873,19.2a2.195,2.195,0,0,0,2.3-.188,15.759,15.759,0,0,0,2.853-2.457,15.653,15.653,0,0,1,2.879-2.476,2.2,2.2,0,0,1,2.949.245c3.391,3.383,5.471,6.067,11.2,3.735s8.108-2.325,8.233-2.323l-70.911,40.941c.154-.3,3.076-5.945,7.061-8.245a6.093,6.093,0,0,1,2.877-.891,2.871,2.871,0,0,0,1.368-.4c4.358-2.516,6.748-15.991,11.408-19.121C309.023,89.317,311.663,66.645,315.289,64.553Z" transform="translate(-281.586 -64.397)" fill="#20b3af"/>
      </g>
      <path id="Path_3326" data-name="Path 3326" d="M318.456,89.32c.077-.033.155-.067.234-.1.282-.116.582-.23.906-.339.382-.127.787-.259,1.21-.391.047-.016.1-.031.147-.046.394-.125.806-.252,1.23-.381l.128-.039c.434-.132.881-.264,1.331-.4.079-.022.156-.046.237-.068.416-.123.838-.245,1.259-.366l.213-.062c.452-.13.9-.258,1.353-.385.088-.026.177-.049.268-.074.4-.113.79-.223,1.176-.33l.3-.085c.38-.106.753-.207,1.119-.308l.476-.13c.251-.068.5-.134.734-.2,2.123-.575,3.741-1,4.155-1.1.031-.007.07-.018.084-.021L332.4,82.968c-.117.031-.753.2-1.713.45l-.117.031c-.155.04-.317.085-.487.13l-.348.093c-.05.013-.1.026-.146.037-.349.095-.712.193-1.1.3l-.241.067-.89.241-.321.089c-.409.11-.826.226-1.254.345l-.185.051-1.332.371-.124.037c-.481.134-.964.271-1.447.411l-.112.031c-.459.133-.921.265-1.371.4-.05.016-.1.029-.149.043-.476.14-.943.279-1.4.418l-.052.016c-.445.135-.877.269-1.293.4-.038.013-.077.027-.117.037-.426.136-.836.27-1.217.4-.233.078-.452.157-.664.239-.059.023-.117.046-.175.07s-.114.042-.164.064-.093.043-.14.062c-.192.084-.378.166-.552.25l-.2.1c-.224.113-.437.225-.629.337a13.7,13.7,0,0,0-1.564,1.065,10.986,10.986,0,0,1-1.1.8,2.673,2.673,0,0,1-.278.137c-.056.023-.114.043-.174.062-.023.008-.051.019-.078.027a1.689,1.689,0,0,1-.237.046c-.019,0-.041,0-.064.008a1.956,1.956,0,0,1-.214,0,.513.513,0,0,1-.059,0,1.8,1.8,0,0,1-.277-.035c-.046-.008-.1-.021-.142-.032-.06-.016-.124-.03-.193-.05-.109-.033-.229-.077-.349-.125l-.086-.032c-.145-.061-.294-.132-.457-.213-.183-.094-.365-.177-.544-.253a.192.192,0,0,1-.037-.014c-.221-.088-.437-.166-.651-.23l-.01,0a5.042,5.042,0,0,0-.5-.117c-.019,0-.041-.012-.061-.016h0a4.693,4.693,0,0,0-.488-.058c-.019,0-.033,0-.054,0-.045,0-.086,0-.133,0-.085,0-.173-.007-.256,0-.043,0-.086.01-.129.012s-.106.01-.157.017-.091.006-.133.012c-.085.013-.168.036-.251.051-.042.011-.083.018-.125.027-.016,0-.033.007-.05.012a3.659,3.659,0,0,0-.386.132c-.028.01-.057.017-.085.029a.036.036,0,0,0-.016,0,4.183,4.183,0,0,0-.512.253,5.62,5.62,0,0,0-.53.359c-.057.042-.115.091-.171.139-.12.1-.241.2-.36.318-.033.03-.064.054-.1.085s-.079.086-.118.128c-.065.066-.13.135-.2.206-.035.04-.07.074-.107.115-.056.064-.109.136-.166.205-.038.048-.079.093-.118.143l-.064.077c-.108.14-.219.289-.327.443l-.007.01c-.02.03-.04.064-.062.095-.087.124-.172.251-.256.386-.027.039-.052.084-.078.126-.045.068-.087.142-.132.213s-.089.145-.135.222-.087.159-.132.237c-.051.094-.106.188-.158.287-.027.049-.053.094-.081.146q-.145.271-.291.561c-.125.259-.258.5-.389.739-.028.046-.052.094-.08.137-.132.23-.263.446-.4.653-.031.052-.067.1-.1.153q-.182.271-.37.522c-.026.033-.049.07-.076.1-.146.192-.3.372-.446.544-.09.1-.18.192-.271.288s-.159.173-.239.252a9.4,9.4,0,0,1-.719.628c-.057.046-.116.087-.174.133a8.131,8.131,0,0,1-.743.5,7.238,7.238,0,0,1-.754.37c-.076.032-.149.061-.221.09-.191.074-.38.138-.571.193-.069.02-.137.043-.205.06-.2.051-.394.094-.591.126-.032.006-.065.014-.1.019-.235.035-.464.056-.692.067-.056,0-.111,0-.171,0-.183,0-.366,0-.545-.008l-.2-.012c-.216-.017-.436-.043-.649-.077-.041-.007-.085-.01-.127-.018l-.007,0-.118-.014c-.04,0-.081,0-.121,0h-.013c-.042,0-.084.007-.124.011l-.109.023-.032.008-.025,0a1.855,1.855,0,0,0-.221.076l-.007,0a2.416,2.416,0,0,0-.285.142,4.293,4.293,0,0,0-.454.314c-.019.017-.04.03-.06.047-.146.118-.3.252-.443.4a.329.329,0,0,0-.041.036.387.387,0,0,0-.036.04c-.153.152-.307.314-.457.489a.444.444,0,0,0-.032.032c-.014.017-.027.036-.043.052-.15.176-.3.36-.455.555-.007.01-.013.017-.019.026s-.029.037-.039.054c-.173.224-.342.456-.516.7l-.012.021c-.01.011-.02.027-.028.037-.205.3-.408.6-.609.912a.318.318,0,0,1-.028.043.224.224,0,0,0-.025.041c-.264.414-.52.836-.768,1.262a.09.09,0,0,0-.012.019l-.019.036c-.162.278-.319.556-.472.83-.021.036-.041.069-.058.1-.153.269-.3.536-.433.8-.009.016-.016.029-.025.043s-.018.036-.028.055c-.1.194-.2.386-.3.572-.01.02-.017.037-.026.056-.089.172-.175.336-.255.5-.021.037-.039.075-.059.113-.084.167-.163.328-.24.484-.018.033-.032.065-.049.1-.07.142-.135.275-.2.4-.007.011-.011.022-.017.032l-.009.014c-.082.175-.158.334-.227.483a.247.247,0,0,0-.021.047c-.069.143-.129.27-.178.379l-.012.026c-.1.224-.173.376-.194.425l2.623,1.525c.008-.014.027-.056.041-.09s.039-.083.062-.136.038-.084.059-.133l.064-.133c.04-.086.088-.185.137-.293.019-.041.038-.087.059-.132.064-.127.128-.266.2-.417.017-.037.035-.076.054-.114.058-.115.114-.233.174-.356.018-.036.036-.07.055-.106.075-.156.154-.319.241-.486.014-.036.037-.074.055-.109.08-.159.163-.322.252-.489.008-.025.021-.047.031-.07.095-.182.2-.369.3-.56l.06-.115c.137-.256.281-.52.428-.784.019-.038.037-.076.059-.111.149-.273.308-.549.467-.823.012-.021.026-.041.036-.059.246-.426.506-.848.767-1.261.02-.028.036-.056.057-.085.2-.312.4-.618.605-.911.013-.02.029-.04.041-.06.169-.242.341-.473.513-.7.02-.027.04-.055.061-.08q.226-.291.454-.554l.072-.087q.231-.261.46-.489l.074-.075c.148-.144.3-.278.446-.4a.659.659,0,0,1,.06-.047,3.705,3.705,0,0,1,.454-.314,2.5,2.5,0,0,1,.283-.143,2.2,2.2,0,0,1,.251-.084c.014,0,.025-.006.038-.009a1.5,1.5,0,0,1,.23-.033h.01a1.091,1.091,0,0,1,.25.017c.019,0,.033.006.051.009s.051,0,.078.008c.213.037.428.06.648.078.035,0,.068.01.1.012s.07,0,.1,0c.182.009.361.011.547.006.042,0,.081,0,.126,0,.016,0,.029,0,.045,0a6.658,6.658,0,0,0,.69-.067h.013c.026,0,.054-.011.078-.016.2-.032.4-.076.6-.127.022-.006.048-.009.072-.016.04-.011.084-.031.128-.042.191-.057.382-.124.573-.2.046-.017.089-.028.132-.045s.056-.031.084-.042a7.219,7.219,0,0,0,.758-.374,7.47,7.47,0,0,0,.745-.5c.056-.041.113-.085.169-.129a9.04,9.04,0,0,0,.721-.629.086.086,0,0,0,.023-.021c.08-.079.158-.168.237-.253s.164-.168.244-.26l.029-.032q.2-.226.389-.475l.032-.045c.028-.033.051-.068.078-.1.075-.1.151-.2.225-.308.049-.07.1-.144.147-.215.029-.047.061-.094.094-.14s.045-.069.069-.106c.1-.158.2-.321.3-.489.011-.021.025-.041.035-.064.027-.046.054-.093.078-.139.061-.108.124-.214.182-.326.074-.136.143-.274.213-.417.124-.249.251-.482.373-.711.05-.094.1-.183.151-.272.094-.165.185-.323.279-.477.04-.066.079-.134.118-.2.119-.187.238-.368.357-.539.014-.023.029-.047.045-.069.132-.186.261-.36.395-.53l.125-.151c.088-.11.181-.215.273-.317.065-.072.132-.144.2-.213s.137-.136.206-.2c.123-.117.249-.224.371-.327.053-.043.109-.091.163-.133a5.135,5.135,0,0,1,.532-.36,4.16,4.16,0,0,1,.526-.258c.029-.012.059-.019.087-.03a3.88,3.88,0,0,1,.435-.143c.039-.01.082-.016.121-.023a3.62,3.62,0,0,1,.388-.067c.053-.007.1-.012.15-.016a3.947,3.947,0,0,1,.4-.01c.043,0,.083,0,.127,0a4.84,4.84,0,0,1,1.122.2,6.13,6.13,0,0,1,.653.233c.191.078.382.164.574.263.161.08.311.152.452.212l.018.006a.933.933,0,0,0,.088.032c.116.046.227.088.33.12a.439.439,0,0,1,.046.016c.059.017.115.026.169.039s.08.021.116.028c.01,0,.02.006.031.007.08.013.164.023.239.029a.134.134,0,0,0,.021,0h.039c.048,0,.1,0,.146,0l.084-.009c.019,0,.041,0,.062-.008s.029,0,.043,0c.062-.01.127-.023.191-.039l.009,0,.041-.014c.06-.019.124-.039.182-.064l.021-.01a2.287,2.287,0,0,0,.278-.137,11.355,11.355,0,0,0,1.1-.8A13.488,13.488,0,0,1,317.078,90c.194-.114.407-.225.633-.339.06-.03.126-.059.19-.089C318.077,89.487,318.261,89.4,318.456,89.32Z" transform="translate(-232.154 -20.122)" fill="#1099a7"/>
      <g id="Group_832" data-name="Group 832" transform="translate(54.696 64.373)">
        <path id="Path_3327" data-name="Path 3327" d="M304.606,91.358a4.536,4.536,0,0,1,4.581.147c1.26.64,1.923.6,2.606.2a11.352,11.352,0,0,0,1.1-.8,12.89,12.89,0,0,1,4.082-2.182c5.2-1.734,14.913-4.257,15.424-4.389l-48.17,27.81c.2-.444,3.991-8.895,6.9-10.572a1.579,1.579,0,0,1,1.061-.253,7,7,0,0,0,4.828-.816,10.539,10.539,0,0,0,4.009-4.649C302.178,93.531,303.359,92.079,304.606,91.358Z" transform="translate(-284.227 -84.337)" fill="#0be1f7"/>
      </g>
    </g>
  </g>
</svg>
