<svg xmlns="http://www.w3.org/2000/svg" width="16" height="15.99" viewBox="0 0 16 15.99">
  <g id="phone-receiver" transform="translate(0 -0.188)">
    <g id="Group_18" data-name="Group 18" transform="translate(0 0.188)">
      <path id="Path_31" data-name="Path 31" d="M15.992,12.807a.773.773,0,0,1-.237.678L13.5,15.72a1.268,1.268,0,0,1-.4.288,1.645,1.645,0,0,1-.483.152l-.1.009q-.085.008-.22.008a7.809,7.809,0,0,1-1.042-.11A7.911,7.911,0,0,1,9.5,15.525a14.786,14.786,0,0,1-2.363-1.3,17.617,17.617,0,0,1-2.812-2.371A18.561,18.561,0,0,1,2.357,9.623,15.93,15.93,0,0,1,1.1,7.649,10.628,10.628,0,0,1,.392,6.006a8.717,8.717,0,0,1-.322-1.27A4.2,4.2,0,0,1,0,3.9q.017-.3.017-.339a1.646,1.646,0,0,1,.152-.483,1.269,1.269,0,0,1,.288-.4L2.713.425A.746.746,0,0,1,3.255.188a.632.632,0,0,1,.39.127,1.178,1.178,0,0,1,.288.313L5.745,4.067a.824.824,0,0,1,.085.593,1.056,1.056,0,0,1-.288.542l-.83.83a.283.283,0,0,0-.059.11.418.418,0,0,0-.025.127,3.058,3.058,0,0,0,.3.813,7.463,7.463,0,0,0,.627.991,11,11,0,0,0,1.2,1.347A11.219,11.219,0,0,0,8.116,10.63a7.825,7.825,0,0,0,.991.635,2.634,2.634,0,0,0,.61.246l.212.042a.4.4,0,0,0,.11-.025.283.283,0,0,0,.11-.059l.965-.982a1.038,1.038,0,0,1,.711-.271.885.885,0,0,1,.457.1H12.3l3.269,1.931A.852.852,0,0,1,15.992,12.807Z" transform="translate(0 -0.188)" fill="#ebebeb"/>
    </g>
  </g>
</svg>
