<svg id="plane_1_" data-name="plane (1)" xmlns="http://www.w3.org/2000/svg" width="24.547" height="24.547" viewBox="0 0 24.547 24.547">
  <path id="Path_1669" data-name="Path 1669" d="M19.187,1.9a54.72,54.72,0,0,0-3.965,3.853l-1.749-.285-3.5-.57L2.046,3.611A1.618,1.618,0,0,0,.837,6.517l7.9,5.722L7.259,13.719a12.03,12.03,0,0,0-1.589,2.075L1.986,14.71A1.55,1.55,0,0,0,.667,17.471l3.021,2.091c-.526,1.161-.846,2-.86,2.039a.479.479,0,0,0,.618.618c.039-.015.878-.334,2.039-.86L7.575,24.38a1.55,1.55,0,0,0,2.761-1.319L9.253,19.376a12.038,12.038,0,0,0,2.075-1.589l1.479-1.479,5.722,7.9A1.618,1.618,0,0,0,21.436,23l-1.291-7.928c-.476-2.787-.356-2.187-.57-3.5l-.285-1.749a54.74,54.74,0,0,0,3.851-3.962l0,0c1.479-1.916,1.825-3.852.861-4.817S21.1.424,19.187,1.9ZM1.4,5.741a.659.659,0,0,1,.492-1.184l12.5,2.034L9.425,11.553ZM1.131,15.779a.591.591,0,0,1,.584-.149l3.446,1.014c-.352.617-.708,1.3-1.063,2.037l-2.886-2A.591.591,0,0,1,1.131,15.779Zm8.136,8.136a.591.591,0,0,1-.9-.082l-2-2.886c.739-.355,1.421-.711,2.037-1.063l1.013,3.446A.591.591,0,0,1,9.267,23.915Zm11.222-.761a.659.659,0,0,1-1.184.493l-5.812-8.026,4.962-4.962Zm-9.84-6.045A12.074,12.074,0,0,1,8.355,18.8a35.525,35.525,0,0,1-4.206,2.1A35.069,35.069,0,0,1,6.29,16.615,11.869,11.869,0,0,1,7.938,14.4C19.649,2.714,18.955,3.316,19.666,2.748a2.49,2.49,0,0,1,1.966.667A2.49,2.49,0,0,1,22.3,5.381C21.729,6.093,22.324,5.406,10.65,17.109ZM23.119,4.121a3.164,3.164,0,0,0-2.193-2.193c.694-.352,1.862-.746,2.4-.208C23.752,2.145,23.646,3.081,23.119,4.121Zm0,0" transform="translate(0.001 -0.501)" fill="#b5b5b5"/>
</svg>
