<svg id="_003-ship" data-name="003-ship" xmlns="http://www.w3.org/2000/svg" width="27.759" height="27.427" viewBox="0 0 27.759 27.427">
  <path id="Path_1621" data-name="Path 1621" d="M112.507,271.712a1.86,1.86,0,1,0-1.844,1.855A1.86,1.86,0,0,0,112.507,271.712Zm-1.844.767a.773.773,0,1,1,.772-.773A.773.773,0,0,1,110.663,272.48Zm0,0" transform="translate(-104.049 -258.108)" fill="#b5b5b5"/>
  <path id="Path_1622" data-name="Path 1622" d="M444.45,273.565a1.86,1.86,0,1,0-1.86-1.861A1.861,1.861,0,0,0,444.45,273.565Zm0-2.627a.772.772,0,1,1-.772.772A.772.772,0,0,1,444.45,270.937Zm0,0" transform="translate(-423.318 -258.105)" fill="#b5b5b5"/>
  <path id="Path_1623" data-name="Path 1623" d="M.8,23.026c3.025-1.632,4.39-.9,5.984,0a6.873,6.873,0,0,0,3.5,1.132A8.37,8.37,0,0,0,14.13,23.07c3.024-1.632,4.39-.9,5.984,0a6.873,6.873,0,0,0,3.5,1.131,8.37,8.37,0,0,0,3.846-1.088.545.545,0,0,0-.5-.969c-2.454,1.278-3.906,1.121-5.146.587l4.352-11.146a.544.544,0,0,0-.414-.734L22.66,10.27V6.9a.544.544,0,0,0-.332-.5l-3.884-1.67V.794A.544.544,0,0,0,17.9.25H9.833a.544.544,0,0,0-.544.544V4.7L5.405,6.37a.545.545,0,0,0-.332.5v3.4l-3.084.544a.544.544,0,0,0-.413.734l3.775,9.6c-1.256-.365-2.823-.326-5.075.9A.548.548,0,0,0,.82,23ZM10.377,1.338h6.979V4.509H10.377ZM6.161,7.229,9.969,5.6h7.817l3.808,1.632v2.829L13.978,8.741h-.185L6.178,10.058Zm-3.356,4.5,2.878-.5L13.3,9.916v5.864a.544.544,0,0,0,1.088,0V9.922L22,11.238l2.878.5L20.8,22.172l-.2-.109c-1.632-.9-3.465-1.925-7.007,0-3.264,1.692-4.743.865-6.315,0l-.544-.3Zm0,0" transform="translate(0.001 -0.25)" fill="#b5b5b5"/>
  <path id="Path_1624" data-name="Path 1624" d="M1.039,560.11c3.025-1.632,4.39-.9,5.984,0a6.877,6.877,0,0,0,3.492,1.088,8.369,8.369,0,0,0,3.846-1.088c3.024-1.632,4.39-.9,5.984,0a6.874,6.874,0,0,0,3.5,1.088,8.368,8.368,0,0,0,3.846-1.088.545.545,0,0,0-.5-.969c-3.264,1.692-4.743.865-6.315,0s-3.465-1.926-7.006,0c-3.264,1.692-4.744.865-6.316,0s-3.471-1.926-7.023,0a.548.548,0,0,0,.544.952Zm0,0" transform="translate(-0.24 -533.771)" fill="#b5b5b5"/>
</svg>
