<svg id="_016-train-1" data-name="016-train-1" xmlns="http://www.w3.org/2000/svg" width="15.925" height="28.719" viewBox="0 0 15.925 28.719">
  <path id="Path_1654" data-name="Path 1654" d="M16.175,18.3V6.75A3.291,3.291,0,0,0,13.358,3.19a2.054,2.054,0,1,0-3.47-.075H6.538a2.008,2.008,0,0,0,.3-1.045A2.049,2.049,0,1,0,3.067,3.2,3.292,3.292,0,0,0,.25,6.766V18.317a3.38,3.38,0,0,0,3.636,3.636L2.917,24.4,1.475,28.03a.5.5,0,0,0,.934.372L3.72,25.1H12.7l1.311,3.3a.5.5,0,1,0,.934-.372L13.5,24.4l-.969-2.446A3.4,3.4,0,0,0,16.175,18.3ZM10.6,2.08a1.045,1.045,0,1,1,1.045,1.045A1.045,1.045,0,0,1,10.6,2.08ZM4.785,1.015A1.045,1.045,0,1,1,3.74,2.06,1.045,1.045,0,0,1,4.785,1.015ZM1.269,18.281V6.73A2.413,2.413,0,0,1,3.9,4.1h8.638A2.413,2.413,0,0,1,15.171,6.73V18.281a2.413,2.413,0,0,1-2.632,2.632H3.891A2.384,2.384,0,0,1,1.259,18.3Zm11.049,5.771H4.127l.849-2.14h6.479Zm0,0" transform="translate(-0.25 0)" fill="#b5b5b5"/>
  <path id="Path_1655" data-name="Path 1655" d="M61.9,182.705h8.849a1.1,1.1,0,0,0,1.1-1.1v-4.173a1.1,1.1,0,0,0-1.1-1.1H61.9a1.1,1.1,0,0,0-1.1,1.1v4.178A1.1,1.1,0,0,0,61.9,182.705Zm-.1-5.279a.1.1,0,0,1,.1-.1h8.849a.1.1,0,0,1,.1.1v4.179a.1.1,0,0,1-.1.1H61.9a.1.1,0,0,1-.1-.1Zm0,0" transform="translate(-58.364 -169.225)" fill="#b5b5b5"/>
  <path id="Path_1656" data-name="Path 1656" d="M64.817,385.612a1.944,1.944,0,1,0-1.944,1.944A1.943,1.943,0,0,0,64.817,385.612Zm-2.882,0a.389.389,0,1,1-.005,0Zm0,0" transform="translate(-58.484 -368.203)" fill="#b5b5b5"/>
  <path id="Path_1657" data-name="Path 1657" d="M240.432,383.668a1.944,1.944,0,1,0,1.944,1.944A1.943,1.943,0,0,0,240.432,383.668Zm0,2.883a.939.939,0,1,1,.939-.939A.939.939,0,0,1,240.432,386.551Zm0,0" transform="translate(-228.886 -368.203)" fill="#b5b5b5"/>
</svg>
