<svg xmlns="http://www.w3.org/2000/svg" width="21.676" height="17.612" viewBox="0 0 21.676 17.612">
  <g id="Group_8" data-name="Group 8" transform="translate(0 0)">
    <path id="Path_20" data-name="Path 20" d="M21.676,50.085a9.265,9.265,0,0,1-2.56.7,4.419,4.419,0,0,0,1.955-2.456,8.881,8.881,0,0,1-2.818,1.076,4.443,4.443,0,0,0-7.687,3.039,4.576,4.576,0,0,0,.1,1.013A12.578,12.578,0,0,1,1.509,48.81a4.445,4.445,0,0,0,1.366,5.939A4.388,4.388,0,0,1,.867,54.2v.049a4.464,4.464,0,0,0,3.56,4.366,4.435,4.435,0,0,1-1.165.146,3.929,3.929,0,0,1-.841-.076,4.486,4.486,0,0,0,4.152,3.1,8.929,8.929,0,0,1-5.51,1.9A8.324,8.324,0,0,1,0,63.618a12.511,12.511,0,0,0,6.817,1.994A12.561,12.561,0,0,0,19.465,52.967c0-.2-.007-.386-.016-.574A8.865,8.865,0,0,0,21.676,50.085Z" transform="translate(0 -48)" fill="#ebebeb"/>
  </g>
</svg>
