<svg id="youtube_1_" data-name="youtube (1)" xmlns="http://www.w3.org/2000/svg" width="21.676" height="14.902" viewBox="0 0 21.676 14.902">
  <g id="Group_9" data-name="Group 9" transform="translate(0 0)">
    <path id="Path_21" data-name="Path 21" d="M20.755,81.436c-.588-1.046-1.226-1.238-2.525-1.311S13.668,80,10.841,80s-6.1.037-7.394.123-1.936.266-2.529,1.313S0,84.28,0,87.447v.011c0,3.154.312,4.967.917,6s1.231,1.236,2.528,1.324,4.563.121,7.4.121,6.091-.045,7.39-.119,1.937-.278,2.525-1.324c.611-1.034.92-2.846.92-6v-.011C21.676,84.28,21.367,82.481,20.755,81.436ZM8.129,91.515V83.387L14.9,87.451Z" transform="translate(0 -80)" fill="#333"/>
  </g>
</svg>
