<svg xmlns="http://www.w3.org/2000/svg" width="26.434" height="28.2" viewBox="0 0 26.434 28.2">
  <g id="box" transform="translate(0 0)">
    <g id="Group_150" data-name="Group 150">
      <g id="Group_149" data-name="Group 149">
        <path id="Path_1672" data-name="Path 1672" d="M42.233,6.222,29.429.041a.413.413,0,0,0-.359,0l-12.8,6.181a.413.413,0,0,0-.233.372V21.606a.413.413,0,0,0,.233.372l12.8,6.181a.413.413,0,0,0,.359,0l12.8-6.181a.413.413,0,0,0,.233-.372V6.594A.413.413,0,0,0,42.233,6.222ZM29.249.871,41.1,6.594,37.667,8.253a.41.41,0,0,0-.07-.044L25.824,2.525ZM24.891,2.992,36.727,8.706,34.3,9.877,22.471,4.165ZM37,9.49v4.326L34.74,14.909V10.583ZM41.64,21.346,29.662,27.129V13.034l2.857-1.379a.413.413,0,1,0-.359-.744l-2.911,1.405L28.1,11.763a.413.413,0,0,0-.359.744l1.092.527V27.129L16.858,21.346V7.252l9.121,4.4a.413.413,0,0,0,.359-.744L17.4,6.594l4.1-1.981L33.908,10.6l.006.007v4.957a.413.413,0,0,0,.593.372L37.6,14.448a.413.413,0,0,0,.233-.372V9.091l3.81-1.839Z" transform="translate(-16.032 0.001)" fill="#b5b5b5"/>
      </g>
    </g>
    <g id="Group_152" data-name="Group 152" transform="translate(1.763 18.796)">
      <g id="Group_151" data-name="Group 151">
        <path id="Path_1673" data-name="Path 1673" d="M50.52,342.21l-1.879-.907a.413.413,0,0,0-.359.744l1.879.907a.413.413,0,0,0,.359-.744Z" transform="translate(-48.048 -341.261)" fill="#b5b5b5"/>
      </g>
    </g>
    <g id="Group_154" data-name="Group 154" transform="translate(1.766 16.837)">
      <g id="Group_153" data-name="Group 153" transform="translate(0)">
        <path id="Path_1674" data-name="Path 1674" d="M52.294,307.472l-3.606-1.741a.413.413,0,1,0-.359.744l3.606,1.741a.413.413,0,0,0,.359-.744Z" transform="translate(-48.096 -305.69)" fill="#b5b5b5"/>
      </g>
    </g>
  </g>
</svg>
