<svg id="_004-bus" data-name="004-bus" xmlns="http://www.w3.org/2000/svg" width="23.142" height="23.021" viewBox="0 0 23.142 23.021">
  <path id="Path_1625" data-name="Path 1625" d="M146.836,412.828h-2.962a.484.484,0,1,0,0,.968h2.962a.484.484,0,1,0,0-.968Zm0,0" transform="translate(-137.825 -396.81)" fill="#b5b5b5"/>
  <path id="Path_1626" data-name="Path 1626" d="M355.067,412.828H352.1a.484.484,0,0,0,0,.968h2.962a.484.484,0,1,0,0-.968Zm0,0" transform="translate(-337.974 -396.81)" fill="#b5b5b5"/>
  <path id="Path_1627" data-name="Path 1627" d="M.478,10.887A.484.484,0,0,0,.962,10.4V7.761L2.709,6.7V17.053A3.838,3.838,0,0,0,3.962,20.14v1.936a1.05,1.05,0,0,0,1.045,1.05H7.654A1.05,1.05,0,0,0,8.7,22.076V21.055h5.73V22.1a1.05,1.05,0,0,0,1.045,1.05h2.647a1.05,1.05,0,0,0,1.045-1.05V20.16a4.053,4.053,0,0,0,1.258-3.092V6.7l1.747,1.06V10.4a.484.484,0,0,0,.968,0V7.5a.484.484,0,0,0-.232-.416l-2.482-1.5V4.127a3.719,3.719,0,0,0-4-4H6.73a3.719,3.719,0,0,0-4,4V5.579l-2.5,1.5A.484.484,0,0,0,0,7.49v2.9a.484.484,0,0,0,.479.494Zm18.98,1.805h-7.4V5.342h7.409Zm-8.372,0H3.676V5.342h7.409Zm-3.344,9.4a.082.082,0,0,1-.077.082H5.012a.082.082,0,0,1-.078-.082V20.726a4.733,4.733,0,0,0,1.776.329H7.741Zm10.463,0a.082.082,0,0,1-.077.082H15.475a.082.082,0,0,1-.078-.082V21.055h1.011a4.692,4.692,0,0,0,1.776-.32Zm-1.8-2H6.73A2.784,2.784,0,0,1,3.7,17.053V13.665H19.462v3.387A2.788,2.788,0,0,1,16.409,20.087ZM6.73,1.064h9.679A2.784,2.784,0,0,1,19.443,4.1v.276H3.676V4.1A2.779,2.779,0,0,1,6.73,1.064Zm0,0" transform="translate(0.002 -0.125)" fill="#b5b5b5"/>
</svg>
